STARTFONT 2.1
COMMENT
COMMENT Converted from OpenType font "Xuong.otf" by "otf2bdf 3.0".
COMMENT
FONT -FreeType-Xuong-Bold-R-Normal--50-360-100-100-P-242-ISO10646-1
SIZE 36 100 100
FONTBOUNDINGBOX 53 61 -4 -8
STARTPROPERTIES 19
FOUNDRY "FreeType"
FAMILY_NAME "Xuong"
WEIGHT_NAME "Bold"
SLANT "R"
SETWIDTH_NAME "Normal"
ADD_STYLE_NAME ""
PIXEL_SIZE 50
POINT_SIZE 360
RESOLUTION_X 100
RESOLUTION_Y 100
SPACING "P"
AVERAGE_WIDTH 242
CHARSET_REGISTRY "ISO10646"
CHARSET_ENCODING "1"
FONT_ASCENT 45
FONT_DESCENT 9
COPYRIGHT "-FreeType-Xuong-Bold-R-Normal--50-360-100-100-P-242-ISO10646-1"
_OTF_FONTFILE "Xuong.otf"
_OTF_PSNAME "Xuong"
ENDPROPERTIES
CHARS 445
STARTCHAR 0000
ENCODING 0
SWIDTH 0 0
DWIDTH 0 0
BBX 0 0 0 0
BITMAP
ENDCHAR
STARTCHAR 000D
ENCODING 13
SWIDTH 240 0
DWIDTH 12 0
BBX 0 0 0 0
BITMAP
ENDCHAR
STARTCHAR 0020
ENCODING 32
SWIDTH 240 0
DWIDTH 12 0
BBX 0 0 0 0
BITMAP
ENDCHAR
STARTCHAR 0021
ENCODING 33
SWIDTH 160 0
DWIDTH 8 0
BBX 7 35 1 0
BITMAP
7C
FE
FE
FE
FE
FE
FC
FC
FC
7C
7C
7C
7C
7C
7C
7C
7C
7C
7C
7C
78
78
78
38
38
38
00
00
00
FC
FC
FC
FC
FC
FC
ENDCHAR
STARTCHAR 0022
ENCODING 34
SWIDTH 260 0
DWIDTH 13 0
BBX 13 13 0 22
BITMAP
FDF8
FDF8
FDF8
7DF0
78F0
78F0
78F0
78F0
78F0
78F0
78F0
78F0
78F0
ENDCHAR
STARTCHAR 0023
ENCODING 35
SWIDTH 720 0
DWIDTH 36 0
BBX 36 35 0 0
BITMAP
0001F03E00
0001F07C00
0003E07C00
0003E07C00
0003E07C00
0003E0F800
0007C0F800
0007C0F800
0007C1F800
000FC1F000
0FFFFFFFF0
1FFFFFFFF0
1FFFFFFFF0
1FFFFFFFF0
1FFFFFFFF0
001F03E000
001F07E000
003F07C000
003E07C000
003E07C000
FFFFFFFF80
FFFFFFFF80
FFFFFFFF80
FFFFFFFF80
FFFFFFFF80
00F81F0000
00F81F0000
00F83F0000
01F83E0000
01F03E0000
01F03E0000
01F07E0000
03F07C0000
03E07C0000
03E0FC0000
ENDCHAR
STARTCHAR 0024
ENCODING 36
SWIDTH 540 0
DWIDTH 27 0
BBX 23 45 2 -5
BITMAP
007C00
007C00
007C00
007C00
007C00
7FFFE0
FFFFF0
FFFFF8
FFFFFC
FFFFFC
FFFFFE
FFFFFE
FFFFFE
FF00FE
FF807E
FFC000
FFE000
7FF000
3FF800
1FFC00
0FFE00
07FF00
03FF80
01FFC0
00FFE0
007FF0
003FF8
001FFC
000FFE
0007FE
FC03FE
FE01FE
FFFFFE
FFFFFE
FFFFFE
7FFFFE
7FFFFE
3FFFFE
1FFFFE
0FFFFC
007C00
007C00
007C00
007C00
007C00
ENDCHAR
STARTCHAR 0025
ENCODING 37
SWIDTH 600 0
DWIDTH 30 0
BBX 27 35 2 0
BITMAP
7FE01F00
FFF03F00
FFF03E00
FFF07E00
F0F07C00
F0F0FC00
F0F0F800
F0F1F800
FFF1F000
FFF3F000
FFF3E000
7FE3E000
0007E000
0007C000
000FC000
000F8000
001F8000
001F0000
003F0000
003E0000
007E0000
007C0000
00FC0000
00F8FFC0
01F9FFC0
01F1FFE0
03F1FFE0
03F1E3E0
07E1E3E0
07E1E3E0
07C1E3E0
0FC1FFE0
0F81FFE0
1F81FFE0
1F00FFC0
ENDCHAR
STARTCHAR 0026
ENCODING 38
SWIDTH 680 0
DWIDTH 34 0
BBX 32 35 2 0
BITMAP
03FFF800
03FFFC00
07FFFE00
0FFFFE00
0FFFFF00
1FFFFF80
1FFFFF80
1FFFFF80
1FC03F80
1FC03F80
1FC07F80
1FC0FF80
1FC1FF80
3FFFFF00
7FFFFE00
FFFFFC00
FFFFFC00
FFFFFC0C
FF01FC1E
FE01FE7E
FE00FEFF
FE00FFFF
FE007FFF
FE003FFF
FE003FFE
FE007FF8
FF01FFF0
FFFFFFF0
FFFFFFF8
FFFFFFFC
7FFFFFFC
7FFFFDFE
3FFFF9FF
1FFFE0FF
0FFFC07E
ENDCHAR
STARTCHAR 0027
ENCODING 39
SWIDTH 120 0
DWIDTH 6 0
BBX 6 13 0 22
BITMAP
FC
FC
FC
7C
78
78
78
78
78
78
78
78
78
ENDCHAR
STARTCHAR 0028
ENCODING 40
SWIDTH 220 0
DWIDTH 11 0
BBX 10 39 1 -2
BITMAP
07C0
07C0
0F80
0F80
1F00
3F00
3E00
7E00
7C00
F800
F800
F800
F800
F800
F800
F800
F800
F800
F800
F800
F800
F800
F800
F800
F800
F800
F800
F800
F800
F800
FC00
7E00
3E00
3F00
1F00
1F80
0F80
07C0
07C0
ENDCHAR
STARTCHAR 0029
ENCODING 41
SWIDTH 220 0
DWIDTH 11 0
BBX 10 39 0 -2
BITMAP
F800
F800
7C00
7C00
3E00
3F00
1F00
0F80
0F80
07C0
07C0
07C0
07C0
07C0
07C0
07C0
07C0
07C0
07C0
07C0
07C0
07C0
07C0
07C0
07C0
07C0
07C0
07C0
07C0
07C0
0FC0
1F80
1F00
3F00
3E00
7E00
7C00
F800
F800
ENDCHAR
STARTCHAR 002A
ENCODING 42
SWIDTH 380 0
DWIDTH 19 0
BBX 18 18 1 17
BITMAP
03E000
03E000
23E100
3BE700
7FFF80
7FFF80
FFFFC0
3FFF00
1FFC00
1FFE00
7FFF80
FFFFC0
7FFF80
7FEF00
33E300
03E000
03E000
03E000
ENDCHAR
STARTCHAR 002B
ENCODING 43
SWIDTH 420 0
DWIDTH 21 0
BBX 20 19 1 8
BITMAP
01F000
01F000
01F000
01F000
01F000
01F000
01F000
FFFFF0
FFFFF0
FFFFF0
FFFFF0
FFFFF0
01F000
01F000
01F000
01F000
01F000
01F000
01F000
ENDCHAR
STARTCHAR 002C
ENCODING 44
SWIDTH 180 0
DWIDTH 9 0
BBX 9 12 -1 -5
BITMAP
1F00
1F80
1F80
1F80
1F80
1F80
1F00
3F00
3E00
7C00
FC00
F800
ENDCHAR
STARTCHAR 002D
ENCODING 45
SWIDTH 420 0
DWIDTH 21 0
BBX 20 5 1 17
BITMAP
FFFFF0
FFFFF0
FFFFF0
FFFFF0
FFFFF0
ENDCHAR
STARTCHAR 002E
ENCODING 46
SWIDTH 160 0
DWIDTH 8 0
BBX 6 6 1 0
BITMAP
FC
FC
FC
FC
FC
FC
ENDCHAR
STARTCHAR 002F
ENCODING 47
SWIDTH 260 0
DWIDTH 13 0
BBX 15 41 -1 -3
BITMAP
003E
003E
003E
007E
007C
007C
007C
00FC
00F8
00F8
00F8
01F8
01F0
01F0
01F0
03E0
03E0
03E0
07E0
07C0
07C0
07C0
0FC0
0F80
0F80
0F80
1F80
1F00
1F00
1F00
3F00
3E00
3E00
7E00
7C00
7C00
7C00
FC00
F800
F800
F800
ENDCHAR
STARTCHAR 0030
ENCODING 48
SWIDTH 580 0
DWIDTH 29 0
BBX 25 35 2 0
BITMAP
0FFFF800
1FFFFC00
3FFFFE00
7FFFFF00
7FFFFF00
FFFFFF80
FFFFFF80
FFFFFF80
FF007F80
FF007F80
FF007F80
FF007F80
FF007F80
FF007F80
FF007F80
FF007F80
FF007F80
FF007F80
FF007F80
FF007F80
FF007F80
FF007F80
FF007F80
FF007F80
FF007F80
FF007F80
FF007F80
FFFFFF80
FFFFFF80
FFFFFF80
7FFFFF00
7FFFFF00
3FFFFE00
1FFFFC00
0FFFF800
ENDCHAR
STARTCHAR 0031
ENCODING 49
SWIDTH 400 0
DWIDTH 20 0
BBX 16 35 2 0
BITMAP
00FE
01FF
07FF
0FFF
1FFF
3FFF
FFFF
FFFF
FFFF
FFFF
FFFF
FEFF
FCFF
F0FF
E0FF
00FF
00FF
00FF
00FF
00FF
00FF
00FF
00FF
00FF
00FF
00FF
00FF
00FF
00FF
00FF
00FF
00FF
00FF
00FF
00FF
ENDCHAR
STARTCHAR 0032
ENCODING 50
SWIDTH 540 0
DWIDTH 27 0
BBX 23 35 2 0
BITMAP
0FFFFE
1FFFFE
3FFFFE
7FFFFE
7FFFFE
FFFFFE
FFFFFE
FFFFFE
FF80FE
FF00FE
FF00FE
0001FE
0003FE
0007FE
000FFE
001FFC
003FF8
007FF0
00FFE0
01FFC0
03FF80
07FF00
0FFE00
0FFC00
1FF800
3FF000
7FE000
FFFFFC
FFFFFE
FFFFFE
FFFFFE
FFFFFE
FFFFFE
FFFFFE
FFFFFE
ENDCHAR
STARTCHAR 0033
ENCODING 51
SWIDTH 520 0
DWIDTH 26 0
BBX 22 35 2 0
BITMAP
FFFFF8
FFFFFC
FFFFFC
7FFFFC
3FFFFC
3FFFFC
1FFFFC
0FFFFC
0003FC
0003FC
0003FC
0003FC
0003FC
0003FC
0FFFFC
0FFFFC
0FFFFC
0FFFFC
0FFFFC
0FFFFC
0FFFFC
0003FC
0003FC
0003FC
0003FC
0003FC
0003FC
0FFFFC
1FFFFC
1FFFFC
3FFFFC
7FFFFC
7FFFFC
FFFFFC
FFFFF8
ENDCHAR
STARTCHAR 0034
ENCODING 52
SWIDTH 560 0
DWIDTH 28 0
BBX 25 35 2 0
BITMAP
001FF000
003FF800
007FF800
007FF800
00FFF800
00FFF800
01FFF800
03FFF800
03FFF800
07FFF800
07FFF800
0FFFF800
1FF7F800
1FF7F800
3FE7F800
3FE7F800
7FC7F800
FF87F800
FF87F800
FF07F800
FF07F800
FFFFFF00
FFFFFF80
FFFFFF80
FFFFFF80
FFFFFF80
FFFFFF80
7FFFFF80
0007F800
0007F800
0007F800
0007F800
0007F800
0007F800
0007F800
ENDCHAR
STARTCHAR 0035
ENCODING 53
SWIDTH 500 0
DWIDTH 25 0
BBX 22 35 2 0
BITMAP
7FFFFC
FFFFFC
FFFFFC
FFFFF8
FFFFF0
FFFFF0
FFFFE0
FFFFC0
FF0000
FF0000
FF0000
FF0000
FF0000
FFFFF8
FFFFFC
FFFFFC
FFFFFC
FFFFFC
FFFFFC
FFFFFC
7FFFFC
0003FC
0003FC
0003FC
0003FC
0003FC
0003FC
0FFFFC
1FFFFC
3FFFFC
3FFFFC
7FFFFC
FFFFFC
FFFFFC
FFFFF8
ENDCHAR
STARTCHAR 0036
ENCODING 54
SWIDTH 540 0
DWIDTH 27 0
BBX 23 35 2 0
BITMAP
7FFFF0
FFFFF0
FFFFF8
FFFFFC
FFFFFC
FFFFFE
FFFFFE
FFFFFE
FF01FE
FF00FE
FF007E
FF0000
FF0000
FF0000
FF0000
FFFFFC
FFFFFE
FFFFFE
FFFFFE
FFFFFE
FFFFFE
FFFFFE
FF83FE
FF01FE
FF01FE
FF01FE
FF01FE
FFFFFE
FFFFFE
FFFFFE
FFFFFE
FFFFFE
FFFFFE
FFFFFE
7FFFFC
ENDCHAR
STARTCHAR 0037
ENCODING 55
SWIDTH 480 0
DWIDTH 24 0
BBX 21 35 1 0
BITMAP
FFFFF0
FFFFF8
FFFFF8
7FFFF8
7FFFF8
3FFFF8
1FFFF8
0FFFF8
000FF8
000FF0
001FF0
001FF0
001FF0
003FE0
003FE0
003FE0
007FC0
007FC0
007FC0
00FF80
00FF80
00FF80
01FF00
01FF00
01FF00
03FE00
03FE00
03FE00
03FE00
07FC00
07FC00
07FC00
07F800
07F800
07F800
ENDCHAR
STARTCHAR 0038
ENCODING 56
SWIDTH 580 0
DWIDTH 29 0
BBX 25 35 2 0
BITMAP
0FFFFC00
1FFFFC00
3FFFFE00
7FFFFF00
7FFFFF00
FFFFFF80
FFFFFF80
FFFFFF80
FF80FF80
FF007F80
FF007F80
FF007F80
FF007F80
FF007F80
FF80FF80
FFFFFF80
3FFFFF00
1FFFFC00
3FFFFF00
FFFFFF80
FF80FF80
FF007F80
FF007F80
FF007F80
FF007F80
FF007F80
FF80FF80
FFFFFF80
FFFFFF80
FFFFFF80
7FFFFF00
7FFFFF00
3FFFFE00
1FFFFC00
0FFFFC00
ENDCHAR
STARTCHAR 0039
ENCODING 57
SWIDTH 540 0
DWIDTH 27 0
BBX 23 35 2 0
BITMAP
7FFFFC
FFFFFE
FFFFFE
FFFFFE
FFFFFE
FFFFFE
FFFFFE
FFFFFE
FF01FE
FF01FE
FF01FE
FF01FE
FF83FE
FFFFFE
FFFFFE
FFFFFE
FFFFFE
FFFFFE
7FFFFE
7FFFFE
0001FE
0001FE
0001FE
0001FE
FC01FE
FE01FE
FF01FE
FFFFFE
FFFFFE
FFFFFE
7FFFFE
7FFFFE
3FFFFE
1FFFFE
0FFFFC
ENDCHAR
STARTCHAR 003A
ENCODING 58
SWIDTH 160 0
DWIDTH 8 0
BBX 6 25 1 0
BITMAP
FC
FC
FC
FC
FC
FC
00
00
00
00
00
00
00
00
00
00
00
00
00
FC
FC
FC
FC
FC
FC
ENDCHAR
STARTCHAR 003B
ENCODING 59
SWIDTH 160 0
DWIDTH 8 0
BBX 9 30 -2 -5
BITMAP
1F80
1F80
1F80
1F80
1F80
1F80
0000
0000
0000
0000
0000
0000
0000
0000
0000
0000
0000
0000
0F00
0F80
0F80
0F80
0F80
0F80
0F80
1F00
3F00
3E00
7C00
FC00
ENDCHAR
STARTCHAR 003C
ENCODING 60
SWIDTH 380 0
DWIDTH 19 0
BBX 18 27 1 6
BITMAP
0000C0
0003C0
0007C0
001FC0
007FC0
01FFC0
07FF80
1FFE00
7FF800
FFE000
FF8000
FE0000
F80000
F80000
FC0000
FF0000
FFC000
FFF000
3FFC00
0FFF00
07FFC0
01FFC0
007FC0
001FC0
0007C0
0001C0
000040
ENDCHAR
STARTCHAR 003D
ENCODING 61
SWIDTH 420 0
DWIDTH 21 0
BBX 20 13 1 10
BITMAP
FFFFF0
FFFFF0
FFFFF0
FFFFF0
FFFFF0
000000
000000
FFFFF0
FFFFF0
FFFFF0
FFFFF0
FFFFF0
FFFFF0
ENDCHAR
STARTCHAR 003E
ENCODING 62
SWIDTH 380 0
DWIDTH 19 0
BBX 18 27 1 6
BITMAP
C00000
E00000
F80000
FE0000
FF8000
FFE000
FFF800
3FFE00
0FFF00
03FFC0
00FFC0
003FC0
000FC0
0007C0
000FC0
003FC0
00FFC0
03FFC0
0FFF00
3FFC00
FFF000
FFC000
FF8000
FE0000
F80000
E00000
800000
ENDCHAR
STARTCHAR 003F
ENCODING 63
SWIDTH 520 0
DWIDTH 26 0
BBX 23 35 2 0
BITMAP
0FFFFC
1FFFFE
3FFFFE
7FFFFE
7FFFFE
FFFFFE
FFFFFE
FFFFFE
FE03FE
FE03FE
FE03FE
0003FC
0007F8
0007F8
000FF0
001FE0
001FE0
003FC0
007F80
007F80
007F00
007F00
007F00
007F00
007F00
000000
000000
000000
000000
007F00
007F00
007F00
007F00
007F00
007F00
ENDCHAR
STARTCHAR 0040
ENCODING 64
SWIDTH 780 0
DWIDTH 39 0
BBX 36 40 2 -5
BITMAP
7FFFFFFFE0
FFFFFFFFF0
FFFFFFFFF0
FFFFFFFFF0
FFFFFFFFF0
F8000003F0
F8000003F0
F8000003F0
F807FE03F0
F807FE03F0
F80FFF03F0
F80FFF03F0
F80FFF03F0
F80F0F03F0
F80F0F03F0
F80F0F83F0
F81F0F83F0
F81F0F83F0
F81F0F83F0
F81F0F83F0
F81E07C3F0
F83E07C3F0
F83E07C3F0
F83F0FC3F0
F83FFFC3F0
F87FFFE3F0
F87FFFE3F0
F87DFBFFF0
F87C03FFF0
F87C03FFF0
F8FC03FFF0
F8FC03FFE0
F8FC03FFE0
F800000000
F800000000
FFFFFC0000
FFFFFE0000
FFFFFE0000
FFFFFE0000
7FFFFE0000
ENDCHAR
STARTCHAR 0041
ENCODING 65
SWIDTH 580 0
DWIDTH 29 0
BBX 28 35 1 0
BITMAP
01FFF000
03FFF800
03FFF800
03FFFC00
03FFFC00
07FFFC00
07FFFC00
07FFFC00
07E0FE00
07E0FE00
0FE0FE00
0FE0FE00
0FE07E00
0FE07F00
0FC07F00
1FC07F00
1FC07F00
1FC07F00
1FC07F80
1FC03F80
3F803F80
3FC07F80
3FFFFF80
3FFFFFC0
3FFFFFC0
7FFFFFC0
7FFFDFC0
7FBFDFC0
7F001FE0
7F001FE0
FF001FE0
FF001FE0
FF000FE0
FE000FF0
FE000FF0
ENDCHAR
STARTCHAR 0042
ENCODING 66
SWIDTH 580 0
DWIDTH 29 0
BBX 25 35 2 0
BITMAP
FFFFF800
FFFFFC00
FFFFFE00
FFFFFF00
FFFFFF00
FFFFFF80
FFFFFF80
FF007F80
FF007F80
FF007F80
FF007F80
FF007F80
FF007F80
FF00FF80
FFFFFF80
FFFFFF00
FFFFFE00
FFFFFE00
FFFFFF00
FFFFFF80
FFFFFF80
FF00FF80
FF007F80
FF007F80
FF007F80
FF007F80
FF007F80
FF007F80
FFFFFF80
FFFFFF80
FFFFFF00
FFFFFF00
FFFFFE00
FFFFFC00
FFFFF800
ENDCHAR
STARTCHAR 0043
ENCODING 67
SWIDTH 540 0
DWIDTH 27 0
BBX 23 35 2 0
BITMAP
FFFFF0
FFFFF0
FFFFF8
FFFFFC
FFFFFE
FFFFFE
FFFFFE
FFFFFE
FF01FE
FF00FE
FF0000
FF0000
FF0000
FF0000
FF0000
FF0000
FF0000
FF0000
FF0000
FF0000
FF0000
FF0000
FF0000
FF0000
FF0000
FF00FE
FF01FE
FFFFFE
FFFFFE
FFFFFE
FFFFFE
FFFFFC
FFFFF8
FFFFF0
FFFFF0
ENDCHAR
STARTCHAR 0044
ENCODING 68
SWIDTH 580 0
DWIDTH 29 0
BBX 25 35 2 0
BITMAP
FFFFF800
FFFFFC00
FFFFFE00
FFFFFF00
FFFFFF00
FFFFFF80
FFFFFF80
FFFFFF80
FF007F80
FF007F80
FF007F80
FF007F80
FF007F80
FF007F80
FF007F80
FF007F80
FF007F80
FF007F80
FF007F80
FF007F80
FF007F80
FF007F80
FF007F80
FF007F80
FF007F80
FF007F80
FF007F80
FFFFFF80
FFFFFF80
FFFFFF80
FFFFFF00
FFFFFF00
FFFFFE00
FFFFFC00
FFFFF800
ENDCHAR
STARTCHAR 0045
ENCODING 69
SWIDTH 540 0
DWIDTH 27 0
BBX 23 35 2 0
BITMAP
FFFFF0
FFFFF0
FFFFF8
FFFFFC
FFFFFC
FFFFFE
FFFFFE
FFFFFE
FF00FE
FF007E
FF0000
FF0000
FF0000
FF0000
FFFF80
FFFF80
FFFF80
FFFF80
FFFF80
FFFF80
FFFF80
FF0000
FF0000
FF0000
FF0000
FF007E
FF00FE
FFFFFE
FFFFFE
FFFFFE
FFFFFC
FFFFFC
FFFFF8
FFFFF0
FFFFF0
ENDCHAR
STARTCHAR 0046
ENCODING 70
SWIDTH 500 0
DWIDTH 25 0
BBX 22 35 2 0
BITMAP
FFFFE0
FFFFE0
FFFFF0
FFFFF8
FFFFF8
FFFFFC
FFFFFC
FFFFFC
FF01FC
FF00FC
FF0000
FF0000
FF0000
FF0000
FF0000
FF0000
FFFFE0
FFFFE0
FFFFE0
FFFFE0
FFFFE0
FFFFE0
FFFFE0
FF0000
FF0000
FF0000
FF0000
FF0000
FF0000
FF0000
FF0000
FF0000
FF0000
FF0000
FF0000
ENDCHAR
STARTCHAR 0047
ENCODING 71
SWIDTH 540 0
DWIDTH 27 0
BBX 24 35 2 0
BITMAP
FFFFF0
FFFFF8
FFFFFC
FFFFFC
FFFFFE
FFFFFF
FFFFFF
FFFFFF
FF007F
FF007F
FF0000
FF0000
FF0000
FF0000
FF0000
FF0FFF
FF0FFF
FF0FFF
FF0FFF
FF0FFF
FF0FFF
FF0FFF
FF0FFF
FF00FF
FF00FF
FF00FF
FF00FF
FFFFFF
FFFFFF
FFFFFF
FFFFFF
FFFFFF
FFFFFF
FFFFFF
FFFFCF
ENDCHAR
STARTCHAR 0048
ENCODING 72
SWIDTH 580 0
DWIDTH 29 0
BBX 25 35 2 0
BITMAP
FF007F80
FF007F80
FF007F80
FF007F80
FF007F80
FF007F80
FF007F80
FF007F80
FF007F80
FF007F80
FF007F80
FF007F80
FF80FF80
FFFFFF80
FFFFFF80
FFFFFF80
FFFFFF80
FFFFFF80
FFFFFF80
FFFFFF80
FFFFFF80
FF007F80
FF007F80
FF007F80
FF007F80
FF007F80
FF007F80
FF007F80
FF007F80
FF007F80
FF007F80
FF007F80
FF007F80
FF007F80
FF007F80
ENDCHAR
STARTCHAR 0049
ENCODING 73
SWIDTH 220 0
DWIDTH 11 0
BBX 8 35 2 0
BITMAP
FF
FF
FF
FF
FF
FF
FF
FF
FF
FF
FF
FF
FF
FF
FF
FF
FF
FF
FF
FF
FF
FF
FF
FF
FF
FF
FF
FF
FF
FF
FF
FF
FF
FF
FF
ENDCHAR
STARTCHAR 004A
ENCODING 74
SWIDTH 500 0
DWIDTH 25 0
BBX 22 35 2 0
BITMAP
0FFFFC
0FFFFC
0FFFFC
0FFFFC
0FFFFC
0FFFFC
0FFFFC
0FFFFC
0003FC
0003FC
0003FC
0003FC
0003FC
0003FC
0003FC
0003FC
0003FC
0003FC
0003FC
0003FC
0003FC
0003FC
0003FC
0003FC
0003FC
FF03FC
FF03FC
FFFFFC
FFFFFC
FFFFFC
7FFFFC
7FFFFC
3FFFFC
1FFFFC
0FFFFC
ENDCHAR
STARTCHAR 004B
ENCODING 75
SWIDTH 560 0
DWIDTH 28 0
BBX 25 35 2 0
BITMAP
FF007F80
FF00FF80
FF01FF80
FF01FF80
FF03FF00
FF07FF00
FF07FE00
FF0FFC00
FF1FF800
FF1FF800
FF3FF000
FF7FE000
FF7FE000
FFFFC000
FFFF8000
FFFF0000
FFFF0000
FFFE0000
FFFE0000
FFFF0000
FFFF8000
FFFFC000
FF7FC000
FF7FE000
FF3FF000
FF1FF800
FF1FF800
FF0FFC00
FF07FE00
FF07FF00
FF03FF00
FF01FF80
FF00FF80
FF00FF80
FF007F80
ENDCHAR
STARTCHAR 004C
ENCODING 76
SWIDTH 400 0
DWIDTH 20 0
BBX 19 35 2 0
BITMAP
FF0000
FF0000
FF0000
FF0000
FF0000
FF0000
FF0000
FF0000
FF0000
FF0000
FF0000
FF0000
FF0000
FF0000
FF0000
FF0000
FF0000
FF0000
FF0000
FF0000
FF0000
FF0000
FF0000
FF0000
FF0000
FF0000
FF0000
FFFFE0
FFFFE0
FFFFE0
FFFFC0
FFFF80
FFFF80
FFFF00
FFFE00
ENDCHAR
STARTCHAR 004D
ENCODING 77
SWIDTH 680 0
DWIDTH 34 0
BBX 31 35 2 0
BITMAP
0FF03FE0
1FF83FF0
3FF83FF8
7FF83FF8
7FF83FFC
FFF83FFE
FFF87FFE
FFFC7FFE
FFFC7FFE
FFFC7FFE
FFFC7FFE
FF7C7DFE
FF7CFDFE
FF7CF9FE
FF7EF9FE
FF3EF9FE
FF3EF9FE
FF3EF9FE
FF3EF9FE
FF3FF1FE
FF3FF1FE
FF1FF1FE
FF1FF1FE
FF1FF1FE
FF1FF1FE
FF1FE1FE
FF0FE1FE
FF0001FE
FF0001FE
FF0001FE
FF0001FE
FF0001FE
FF0001FE
FF0001FE
FF0001FE
ENDCHAR
STARTCHAR 004E
ENCODING 78
SWIDTH 560 0
DWIDTH 28 0
BBX 25 35 2 0
BITMAP
0F007F80
1F007F80
3F807F80
7F807F80
7FC07F80
FFC07F80
FFE07F80
FFE07F80
FFF07F80
FFF07F80
FFF07F80
FFF87F80
FFF87F80
FFFC7F80
FFFC7F80
FFFE7F80
FFFE7F80
FFFFFF80
FF7FFF80
FF3FFF80
FF3FFF80
FF1FFF80
FF1FFF80
FF0FFF80
FF0FFF80
FF07FF80
FF07FF80
FF07FF80
FF03FF80
FF03FF80
FF01FF00
FF01FE00
FF00FC00
FF00FC00
FF007800
ENDCHAR
STARTCHAR 004F
ENCODING 79
SWIDTH 620 0
DWIDTH 31 0
BBX 27 35 2 0
BITMAP
0FFFFE00
1FFFFF00
3FFFFF80
7FFFFFC0
7FFFFFC0
FFFFFFE0
FFFFFFE0
FFFFFFE0
FF001FE0
FF001FE0
FF001FE0
FF001FE0
FF001FE0
FF001FE0
FF001FE0
FF001FE0
FF001FE0
FF001FE0
FF001FE0
FF001FE0
FF001FE0
FF001FE0
FF001FE0
FF001FE0
FF001FE0
FF001FE0
FF001FE0
FFFFFFE0
FFFFFFE0
FFFFFFE0
7FFFFFC0
7FFFFFC0
3FFFFF80
1FFFFF00
0FFFFE00
ENDCHAR
STARTCHAR 0050
ENCODING 80
SWIDTH 540 0
DWIDTH 27 0
BBX 23 35 2 0
BITMAP
FFFFE0
FFFFF0
FFFFF8
FFFFFC
FFFFFC
FFFFFE
FFFFFE
FFFFFE
FF01FE
FF01FE
FF01FE
FF01FE
FF01FE
FF01FE
FF01FE
FF03FE
FFFFFE
FFFFFE
FFFFFE
FFFFFC
FFFFF8
FFFFF8
FFFFF0
FFFFE0
FF0000
FF0000
FF0000
FF0000
FF0000
FF0000
FF0000
FF0000
FF0000
FF0000
FF0000
ENDCHAR
STARTCHAR 0051
ENCODING 81
SWIDTH 640 0
DWIDTH 32 0
BBX 30 35 2 -1
BITMAP
0FFFFE00
1FFFFF00
3FFFFF80
7FFFFFC0
7FFFFFC0
FFFFFFE0
FFFFFFE0
FFFFFFE0
FF001FE0
FF001FE0
FF001FE0
FF001FE0
FF001FE0
FF001FE0
FF001FE0
FF001FE0
FF001FE0
FF001FE0
FF001FE0
FF001FE0
FF001FE0
FF001FE0
FF001FE0
FF001FE0
FF001FE0
FF001FE0
FF001FF0
FFFFFFFC
FFFFFFFC
FFFFFFFC
7FFFFFFC
7FFFFFFC
3FFFFFFC
1FFFFFF8
0FFFFE70
ENDCHAR
STARTCHAR 0052
ENCODING 82
SWIDTH 540 0
DWIDTH 27 0
BBX 24 35 2 0
BITMAP
FFFFE0
FFFFF0
FFFFF8
FFFFFC
FFFFFC
FFFFFE
FFFFFE
FFFFFE
FF01FE
FF01FE
FF01FE
FF01FE
FF01FE
FF03FE
FFFFFE
FFFFFC
FFFFF8
FFFFF8
FFFFF0
FFFFE0
FFFFE0
FFFFF0
FF0FF0
FF0FF8
FF07F8
FF07FC
FF07FC
FF03FC
FF03FE
FF03FE
FF01FF
FF01FF
FF01FF
FF00FF
FF00FF
ENDCHAR
STARTCHAR 0053
ENCODING 83
SWIDTH 540 0
DWIDTH 27 0
BBX 23 35 2 0
BITMAP
7FFFE0
FFFFF0
FFFFF8
FFFFFC
FFFFFC
FFFFFE
FFFFFE
FFFFFE
FF00FE
FF807E
FFC000
FFE000
7FF000
3FF800
1FFC00
0FFE00
07FF00
03FF80
01FFC0
00FFE0
007FF0
003FF8
001FFC
000FFE
0007FE
FC03FE
FE01FE
FFFFFE
FFFFFE
FFFFFE
7FFFFE
7FFFFE
3FFFFE
1FFFFE
0FFFFC
ENDCHAR
STARTCHAR 0054
ENCODING 84
SWIDTH 520 0
DWIDTH 26 0
BBX 27 35 0 0
BITMAP
0FFFFE00
1FFFFF00
3FFFFF00
7FFFFF80
7FFFFFC0
FFFFFFC0
FFFFFFE0
FF7F9FE0
FC7F8FE0
F87F87E0
007F8000
007F8000
007F8000
007F8000
007F8000
007F8000
007F8000
007F8000
007F8000
007F8000
007F8000
007F8000
007F8000
007F8000
007F8000
007F8000
007F8000
007F8000
007F8000
007F8000
007F8000
007F8000
007F8000
007F8000
007F8000
ENDCHAR
STARTCHAR 0055
ENCODING 85
SWIDTH 600 0
DWIDTH 30 0
BBX 27 35 2 0
BITMAP
FF001FE0
FF001FE0
FF001FE0
FF001FE0
FF001FE0
FF001FE0
FF001FE0
FF001FE0
FF001FE0
FF001FE0
FF001FE0
FF001FE0
FF001FE0
FF001FE0
FF001FE0
FF001FE0
FF001FE0
FF001FE0
FF001FE0
FF001FE0
FF001FE0
FF001FE0
FF001FE0
FF001FE0
FF001FE0
FF001FE0
FF003FE0
FFFFFFE0
FFFFFFE0
FFFFFFE0
7FFFFFC0
7FFFFF80
3FFFFF00
1FFFFF00
0FFFFE00
ENDCHAR
STARTCHAR 0056
ENCODING 86
SWIDTH 560 0
DWIDTH 28 0
BBX 28 35 0 0
BITMAP
FF0007F0
7F0007F0
7F000FF0
7F800FF0
7F800FF0
7F800FE0
3F800FE0
3F800FE0
3F801FE0
3F801FE0
3FC01FC0
1FC01FC0
1FC01FC0
1FC01FC0
1FC01FC0
1FC03F80
0FE03F80
0FE03F80
0FE03F80
0FE03F80
0FE03F00
07E07F00
07E07F00
07F07F00
07F07F00
07F07E00
03F07E00
03FFFE00
03FFFE00
03FFFE00
03FFFC00
01FFFC00
01FFFC00
01FFFC00
00FFF800
ENDCHAR
STARTCHAR 0057
ENCODING 87
SWIDTH 880 0
DWIDTH 44 0
BBX 40 35 2 0
BITMAP
FF000000FF
FF000000FF
FF000000FF
FF000000FF
FF800000FF
FF800001FF
7F800001FF
7F800001FE
7F800001FE
7FC00001FE
7FC07F01FE
3FC0FF03FE
3FC0FF83FC
3FC1FF83FC
3FC1FF83FC
3FE1FF83FC
1FE1FFC7FC
1FE3FFC7F8
1FE3F7C7F8
1FE3F7C7F8
0FF3E7E7F8
0FF7E7E7F8
0FFFE7FFF0
0FFFE3FFF0
0FFFE3FFF0
07FFC3FFF0
07FFC3FFF0
07FFC1FFE0
07FFC1FFE0
07FFC1FFE0
03FF81FFE0
03FF81FFE0
03FF80FFC0
03FF80FFC0
01FF80FFC0
ENDCHAR
STARTCHAR 0058
ENCODING 88
SWIDTH 600 0
DWIDTH 30 0
BBX 27 35 2 0
BITMAP
FF001FE0
FF001FE0
FF803FE0
FF803FE0
FF807FC0
7FC07FC0
7FC0FF80
3FE0FF80
3FE0FF00
1FE1FF00
1FF1FE00
0FF3FE00
0FFBFC00
07FFFC00
07FFF800
03FFF800
03FFF800
03FFF800
07FFF800
07FFFC00
07FFFC00
0FFFFE00
0FFBFE00
1FF3FF00
1FF1FF00
3FE1FF00
3FE0FF80
3FE0FF80
7FC0FFC0
7FC07FC0
FF807FE0
FF803FE0
FF803FE0
FF001FE0
FF001FE0
ENDCHAR
STARTCHAR 0059
ENCODING 89
SWIDTH 460 0
DWIDTH 23 0
BBX 23 35 0 0
BITMAP
FE00FE
FF00FE
FF01FE
FF01FE
7F81FE
7F83FE
7FC3FC
3FC3FC
3FC7F8
1FE7F8
1FE7F0
0FEFF0
0FFFF0
07FFE0
07FFE0
07FFC0
03FFC0
03FF80
01FF80
01FF00
00FF00
00FF00
00FF00
00FF00
00FF00
00FF00
00FF00
00FF00
00FF00
00FF00
00FF00
00FF00
00FF00
00FF00
00FF00
ENDCHAR
STARTCHAR 005A
ENCODING 90
SWIDTH 560 0
DWIDTH 28 0
BBX 24 35 2 0
BITMAP
FFFFF8
FFFFF8
FFFFFC
FFFFFE
FFFFFF
FFFFFF
FFFFFF
7FFFFE
0007FE
000FFC
000FF8
001FF8
003FF0
003FF0
007FE0
00FFC0
00FFC0
01FF80
01FF80
03FF00
07FE00
07FE00
0FFC00
0FF800
1FF800
3FF000
3FF000
7FFFFE
7FFFFF
FFFFFF
7FFFFF
7FFFFF
3FFFFF
1FFFFF
0FFFFF
ENDCHAR
STARTCHAR 005B
ENCODING 91
SWIDTH 240 0
DWIDTH 12 0
BBX 10 40 1 -3
BITMAP
FFC0
FFC0
FFC0
FFC0
FF80
F800
F800
F800
F800
F800
F800
F800
F800
F800
F800
F800
F800
F800
F800
F800
F800
F800
F800
F800
F800
F800
F800
F800
F800
F800
F800
F800
F800
F800
FF80
FFC0
FFC0
FFC0
FFC0
FFC0
ENDCHAR
STARTCHAR 005C
ENCODING 92
SWIDTH 260 0
DWIDTH 13 0
BBX 15 41 -1 -3
BITMAP
F800
F800
F800
FC00
7C00
7C00
7C00
7E00
3E00
3E00
3E00
3F00
1F00
1F00
1F00
0F80
0F80
0F80
0FC0
07C0
07C0
07C0
07E0
03E0
03E0
03E0
03F0
01F0
01F0
01F0
01F8
00F8
00F8
00FC
007C
007C
007C
007E
003E
003E
003E
ENDCHAR
STARTCHAR 005D
ENCODING 93
SWIDTH 240 0
DWIDTH 12 0
BBX 10 40 1 -3
BITMAP
FFC0
FFC0
FFC0
FFC0
7FC0
07C0
07C0
07C0
07C0
07C0
07C0
07C0
07C0
07C0
07C0
07C0
07C0
07C0
07C0
07C0
07C0
07C0
07C0
07C0
07C0
07C0
07C0
07C0
07C0
07C0
07C0
07C0
07C0
07C0
7FC0
7FC0
FFC0
FFC0
FFC0
FFC0
ENDCHAR
STARTCHAR 005E
ENCODING 94
SWIDTH 580 0
DWIDTH 29 0
BBX 27 18 1 17
BITMAP
007FC000
007FE000
00FFE000
00FFF000
01FFF000
01F9F800
03F1F800
07F0FC00
07E0FC00
0FE07E00
0FC07F00
1FC03F00
1F803F80
3F801F80
3F001FC0
7F000FC0
7E000FE0
FE0007E0
ENDCHAR
STARTCHAR 005F
ENCODING 95
SWIDTH 420 0
DWIDTH 21 0
BBX 20 5 1 0
BITMAP
FFFFF0
FFFFF0
FFFFF0
FFFFF0
FFFFF0
ENDCHAR
STARTCHAR 0060
ENCODING 96
SWIDTH 380 0
DWIDTH 19 0
BBX 18 5 1 37
BITMAP
FC0000
FFE000
FFFF00
7FFFC0
003FC0
ENDCHAR
STARTCHAR 0061
ENCODING 97
SWIDTH 580 0
DWIDTH 29 0
BBX 28 35 1 0
BITMAP
01FFF000
03FFF800
03FFF800
03FFFC00
03FFFC00
07FFFC00
07FFFC00
07FFFC00
07E0FE00
07E0FE00
0FE0FE00
0FE0FE00
0FE07E00
0FE07F00
0FC07F00
1FC07F00
1FC07F00
1FC07F00
1FC07F80
1FC03F80
3F803F80
3FC07F80
3FFFFF80
3FFFFFC0
3FFFFFC0
7FFFFFC0
7FFFDFC0
7FBFDFC0
7F001FE0
7F001FE0
FF001FE0
FF001FE0
FF000FE0
FE000FF0
FE000FF0
ENDCHAR
STARTCHAR 0062
ENCODING 98
SWIDTH 580 0
DWIDTH 29 0
BBX 25 35 2 0
BITMAP
FFFFF800
FFFFFC00
FFFFFE00
FFFFFF00
FFFFFF00
FFFFFF80
FFFFFF80
FF007F80
FF007F80
FF007F80
FF007F80
FF007F80
FF007F80
FF00FF80
FFFFFF80
FFFFFF00
FFFFFE00
FFFFFE00
FFFFFF00
FFFFFF80
FFFFFF80
FF00FF80
FF007F80
FF007F80
FF007F80
FF007F80
FF007F80
FF007F80
FFFFFF80
FFFFFF80
FFFFFF00
FFFFFF00
FFFFFE00
FFFFFC00
FFFFF800
ENDCHAR
STARTCHAR 0063
ENCODING 99
SWIDTH 540 0
DWIDTH 27 0
BBX 23 35 2 0
BITMAP
FFFFF0
FFFFF0
FFFFF8
FFFFFC
FFFFFE
FFFFFE
FFFFFE
FFFFFE
FF01FE
FF00FE
FF0000
FF0000
FF0000
FF0000
FF0000
FF0000
FF0000
FF0000
FF0000
FF0000
FF0000
FF0000
FF0000
FF0000
FF0000
FF00FE
FF01FE
FFFFFE
FFFFFE
FFFFFE
FFFFFE
FFFFFC
FFFFF8
FFFFF0
FFFFF0
ENDCHAR
STARTCHAR 0064
ENCODING 100
SWIDTH 580 0
DWIDTH 29 0
BBX 25 35 2 0
BITMAP
FFFFF800
FFFFFC00
FFFFFE00
FFFFFF00
FFFFFF00
FFFFFF80
FFFFFF80
FFFFFF80
FF007F80
FF007F80
FF007F80
FF007F80
FF007F80
FF007F80
FF007F80
FF007F80
FF007F80
FF007F80
FF007F80
FF007F80
FF007F80
FF007F80
FF007F80
FF007F80
FF007F80
FF007F80
FF007F80
FFFFFF80
FFFFFF80
FFFFFF80
FFFFFF00
FFFFFF00
FFFFFE00
FFFFFC00
FFFFF800
ENDCHAR
STARTCHAR 0065
ENCODING 101
SWIDTH 540 0
DWIDTH 27 0
BBX 23 35 2 0
BITMAP
FFFFF0
FFFFF0
FFFFF8
FFFFFC
FFFFFC
FFFFFE
FFFFFE
FFFFFE
FF00FE
FF007E
FF0000
FF0000
FF0000
FF0000
FFFF80
FFFF80
FFFF80
FFFF80
FFFF80
FFFF80
FFFF80
FF0000
FF0000
FF0000
FF0000
FF007E
FF00FE
FFFFFE
FFFFFE
FFFFFE
FFFFFC
FFFFFC
FFFFF8
FFFFF0
FFFFF0
ENDCHAR
STARTCHAR 0066
ENCODING 102
SWIDTH 500 0
DWIDTH 25 0
BBX 22 35 2 0
BITMAP
FFFFE0
FFFFE0
FFFFF0
FFFFF8
FFFFF8
FFFFFC
FFFFFC
FFFFFC
FF01FC
FF00FC
FF0000
FF0000
FF0000
FF0000
FF0000
FF0000
FFFFE0
FFFFE0
FFFFE0
FFFFE0
FFFFE0
FFFFE0
FFFFE0
FF0000
FF0000
FF0000
FF0000
FF0000
FF0000
FF0000
FF0000
FF0000
FF0000
FF0000
FF0000
ENDCHAR
STARTCHAR 0067
ENCODING 103
SWIDTH 540 0
DWIDTH 27 0
BBX 24 35 2 0
BITMAP
FFFFF0
FFFFF8
FFFFFC
FFFFFC
FFFFFE
FFFFFF
FFFFFF
FFFFFF
FF007F
FF007F
FF0000
FF0000
FF0000
FF0000
FF0000
FF0FFF
FF0FFF
FF0FFF
FF0FFF
FF0FFF
FF0FFF
FF0FFF
FF0FFF
FF00FF
FF00FF
FF00FF
FF00FF
FFFFFF
FFFFFF
FFFFFF
FFFFFF
FFFFFF
FFFFFF
FFFFFF
FFFFCF
ENDCHAR
STARTCHAR 0068
ENCODING 104
SWIDTH 580 0
DWIDTH 29 0
BBX 25 35 2 0
BITMAP
FF007F80
FF007F80
FF007F80
FF007F80
FF007F80
FF007F80
FF007F80
FF007F80
FF007F80
FF007F80
FF007F80
FF007F80
FF80FF80
FFFFFF80
FFFFFF80
FFFFFF80
FFFFFF80
FFFFFF80
FFFFFF80
FFFFFF80
FFFFFF80
FF007F80
FF007F80
FF007F80
FF007F80
FF007F80
FF007F80
FF007F80
FF007F80
FF007F80
FF007F80
FF007F80
FF007F80
FF007F80
FF007F80
ENDCHAR
STARTCHAR 0069
ENCODING 105
SWIDTH 220 0
DWIDTH 11 0
BBX 8 35 2 0
BITMAP
FF
FF
FF
FF
FF
FF
FF
FF
FF
FF
FF
FF
FF
FF
FF
FF
FF
FF
FF
FF
FF
FF
FF
FF
FF
FF
FF
FF
FF
FF
FF
FF
FF
FF
FF
ENDCHAR
STARTCHAR 006A
ENCODING 106
SWIDTH 500 0
DWIDTH 25 0
BBX 22 35 2 0
BITMAP
0FFFFC
0FFFFC
0FFFFC
0FFFFC
0FFFFC
0FFFFC
0FFFFC
0FFFFC
0003FC
0003FC
0003FC
0003FC
0003FC
0003FC
0003FC
0003FC
0003FC
0003FC
0003FC
0003FC
0003FC
0003FC
0003FC
0003FC
0003FC
FF03FC
FF03FC
FFFFFC
FFFFFC
FFFFFC
7FFFFC
7FFFFC
3FFFFC
1FFFFC
0FFFFC
ENDCHAR
STARTCHAR 006B
ENCODING 107
SWIDTH 560 0
DWIDTH 28 0
BBX 25 35 2 0
BITMAP
FF007F80
FF00FF80
FF01FF80
FF01FF80
FF03FF00
FF07FF00
FF07FE00
FF0FFC00
FF1FF800
FF1FF800
FF3FF000
FF7FE000
FF7FE000
FFFFC000
FFFF8000
FFFF0000
FFFF0000
FFFE0000
FFFE0000
FFFF0000
FFFF8000
FFFFC000
FF7FC000
FF7FE000
FF3FF000
FF1FF800
FF1FF800
FF0FFC00
FF07FE00
FF07FF00
FF03FF00
FF01FF80
FF00FF80
FF00FF80
FF007F80
ENDCHAR
STARTCHAR 006C
ENCODING 108
SWIDTH 400 0
DWIDTH 20 0
BBX 19 35 2 0
BITMAP
FF0000
FF0000
FF0000
FF0000
FF0000
FF0000
FF0000
FF0000
FF0000
FF0000
FF0000
FF0000
FF0000
FF0000
FF0000
FF0000
FF0000
FF0000
FF0000
FF0000
FF0000
FF0000
FF0000
FF0000
FF0000
FF0000
FF0000
FFFFE0
FFFFE0
FFFFE0
FFFFC0
FFFF80
FFFF80
FFFF00
FFFE00
ENDCHAR
STARTCHAR 006D
ENCODING 109
SWIDTH 680 0
DWIDTH 34 0
BBX 31 35 2 0
BITMAP
0FF03FE0
1FF83FF0
3FF83FF8
7FF83FF8
7FF83FFC
FFF83FFE
FFF87FFE
FFFC7FFE
FFFC7FFE
FFFC7FFE
FFFC7FFE
FF7C7DFE
FF7CFDFE
FF7CF9FE
FF7EF9FE
FF3EF9FE
FF3EF9FE
FF3EF9FE
FF3EF9FE
FF3FF1FE
FF3FF1FE
FF1FF1FE
FF1FF1FE
FF1FF1FE
FF1FF1FE
FF1FE1FE
FF0FE1FE
FF0001FE
FF0001FE
FF0001FE
FF0001FE
FF0001FE
FF0001FE
FF0001FE
FF0001FE
ENDCHAR
STARTCHAR 006E
ENCODING 110
SWIDTH 560 0
DWIDTH 28 0
BBX 25 35 2 0
BITMAP
0F007F80
1F007F80
3F807F80
7F807F80
7FC07F80
FFC07F80
FFE07F80
FFE07F80
FFF07F80
FFF07F80
FFF07F80
FFF87F80
FFF87F80
FFFC7F80
FFFC7F80
FFFE7F80
FFFE7F80
FFFFFF80
FF7FFF80
FF3FFF80
FF3FFF80
FF1FFF80
FF1FFF80
FF0FFF80
FF0FFF80
FF07FF80
FF07FF80
FF07FF80
FF03FF80
FF03FF80
FF01FF00
FF01FE00
FF00FC00
FF00FC00
FF007800
ENDCHAR
STARTCHAR 006F
ENCODING 111
SWIDTH 620 0
DWIDTH 31 0
BBX 27 35 2 0
BITMAP
0FFFFE00
1FFFFF00
3FFFFF80
7FFFFFC0
7FFFFFC0
FFFFFFE0
FFFFFFE0
FFFFFFE0
FF001FE0
FF001FE0
FF001FE0
FF001FE0
FF001FE0
FF001FE0
FF001FE0
FF001FE0
FF001FE0
FF001FE0
FF001FE0
FF001FE0
FF001FE0
FF001FE0
FF001FE0
FF001FE0
FF001FE0
FF001FE0
FF001FE0
FFFFFFE0
FFFFFFE0
FFFFFFE0
7FFFFFC0
7FFFFFC0
3FFFFF80
1FFFFF00
0FFFFE00
ENDCHAR
STARTCHAR 0070
ENCODING 112
SWIDTH 540 0
DWIDTH 27 0
BBX 23 35 2 0
BITMAP
FFFFE0
FFFFF0
FFFFF8
FFFFFC
FFFFFC
FFFFFE
FFFFFE
FFFFFE
FF01FE
FF01FE
FF01FE
FF01FE
FF01FE
FF01FE
FF01FE
FF03FE
FFFFFE
FFFFFE
FFFFFE
FFFFFC
FFFFF8
FFFFF8
FFFFF0
FFFFE0
FF0000
FF0000
FF0000
FF0000
FF0000
FF0000
FF0000
FF0000
FF0000
FF0000
FF0000
ENDCHAR
STARTCHAR 0071
ENCODING 113
SWIDTH 640 0
DWIDTH 32 0
BBX 30 35 2 -1
BITMAP
0FFFFE00
1FFFFF00
3FFFFF80
7FFFFFC0
7FFFFFC0
FFFFFFE0
FFFFFFE0
FFFFFFE0
FF001FE0
FF001FE0
FF001FE0
FF001FE0
FF001FE0
FF001FE0
FF001FE0
FF001FE0
FF001FE0
FF001FE0
FF001FE0
FF001FE0
FF001FE0
FF001FE0
FF001FE0
FF001FE0
FF001FE0
FF001FE0
FF001FF0
FFFFFFFC
FFFFFFFC
FFFFFFFC
7FFFFFFC
7FFFFFFC
3FFFFFFC
1FFFFFF8
0FFFFE70
ENDCHAR
STARTCHAR 0072
ENCODING 114
SWIDTH 540 0
DWIDTH 27 0
BBX 24 35 2 0
BITMAP
FFFFE0
FFFFF0
FFFFF8
FFFFFC
FFFFFC
FFFFFE
FFFFFE
FFFFFE
FF01FE
FF01FE
FF01FE
FF01FE
FF01FE
FF03FE
FFFFFE
FFFFFC
FFFFF8
FFFFF8
FFFFF0
FFFFE0
FFFFE0
FFFFF0
FF0FF0
FF0FF8
FF07F8
FF07FC
FF07FC
FF03FC
FF03FE
FF03FE
FF01FF
FF01FF
FF01FF
FF00FF
FF00FF
ENDCHAR
STARTCHAR 0073
ENCODING 115
SWIDTH 540 0
DWIDTH 27 0
BBX 23 35 2 0
BITMAP
7FFFE0
FFFFF0
FFFFF8
FFFFFC
FFFFFC
FFFFFE
FFFFFE
FFFFFE
FF00FE
FF807E
FFC000
FFE000
7FF000
3FF800
1FFC00
0FFE00
07FF00
03FF80
01FFC0
00FFE0
007FF0
003FF8
001FFC
000FFE
0007FE
FC03FE
FE01FE
FFFFFE
FFFFFE
FFFFFE
7FFFFE
7FFFFE
3FFFFE
1FFFFE
0FFFFC
ENDCHAR
STARTCHAR 0074
ENCODING 116
SWIDTH 520 0
DWIDTH 26 0
BBX 27 35 0 0
BITMAP
0FFFFE00
1FFFFF00
3FFFFF00
7FFFFF80
7FFFFFC0
FFFFFFC0
FFFFFFE0
FF7F9FE0
FC7F8FE0
F87F87E0
007F8000
007F8000
007F8000
007F8000
007F8000
007F8000
007F8000
007F8000
007F8000
007F8000
007F8000
007F8000
007F8000
007F8000
007F8000
007F8000
007F8000
007F8000
007F8000
007F8000
007F8000
007F8000
007F8000
007F8000
007F8000
ENDCHAR
STARTCHAR 0075
ENCODING 117
SWIDTH 600 0
DWIDTH 30 0
BBX 27 35 2 0
BITMAP
FF001FE0
FF001FE0
FF001FE0
FF001FE0
FF001FE0
FF001FE0
FF001FE0
FF001FE0
FF001FE0
FF001FE0
FF001FE0
FF001FE0
FF001FE0
FF001FE0
FF001FE0
FF001FE0
FF001FE0
FF001FE0
FF001FE0
FF001FE0
FF001FE0
FF001FE0
FF001FE0
FF001FE0
FF001FE0
FF001FE0
FF003FE0
FFFFFFE0
FFFFFFE0
FFFFFFE0
7FFFFFC0
7FFFFF80
3FFFFF00
1FFFFF00
0FFFFE00
ENDCHAR
STARTCHAR 0076
ENCODING 118
SWIDTH 560 0
DWIDTH 28 0
BBX 28 35 0 0
BITMAP
FF0007F0
7F0007F0
7F000FF0
7F800FF0
7F800FF0
7F800FE0
3F800FE0
3F800FE0
3F801FE0
3F801FE0
3FC01FC0
1FC01FC0
1FC01FC0
1FC01FC0
1FC01FC0
1FC03F80
0FE03F80
0FE03F80
0FE03F80
0FE03F80
0FE03F00
07E07F00
07E07F00
07F07F00
07F07F00
07F07E00
03F07E00
03FFFE00
03FFFE00
03FFFE00
03FFFC00
01FFFC00
01FFFC00
01FFFC00
00FFF800
ENDCHAR
STARTCHAR 0077
ENCODING 119
SWIDTH 880 0
DWIDTH 44 0
BBX 40 35 2 0
BITMAP
FF000000FF
FF000000FF
FF000000FF
FF000000FF
FF800000FF
FF800001FF
7F800001FF
7F800001FE
7F800001FE
7FC00001FE
7FC07F01FE
3FC0FF03FE
3FC0FF83FC
3FC1FF83FC
3FC1FF83FC
3FE1FF83FC
1FE1FFC7FC
1FE3FFC7F8
1FE3F7C7F8
1FE3F7C7F8
0FF3E7E7F8
0FF7E7E7F8
0FFFE7FFF0
0FFFE3FFF0
0FFFE3FFF0
07FFC3FFF0
07FFC3FFF0
07FFC1FFE0
07FFC1FFE0
07FFC1FFE0
03FF81FFE0
03FF81FFE0
03FF80FFC0
03FF80FFC0
01FF80FFC0
ENDCHAR
STARTCHAR 0078
ENCODING 120
SWIDTH 600 0
DWIDTH 30 0
BBX 27 35 2 0
BITMAP
FF001FE0
FF001FE0
FF803FE0
FF803FE0
FF807FC0
7FC07FC0
7FC0FF80
3FE0FF80
3FE0FF00
1FE1FF00
1FF1FE00
0FF3FE00
0FFBFC00
07FFFC00
07FFF800
03FFF800
03FFF800
03FFF800
07FFF800
07FFFC00
07FFFC00
0FFFFE00
0FFBFE00
1FF3FF00
1FF1FF00
3FE1FF00
3FE0FF80
3FE0FF80
7FC0FFC0
7FC07FC0
FF807FE0
FF803FE0
FF803FE0
FF001FE0
FF001FE0
ENDCHAR
STARTCHAR 0079
ENCODING 121
SWIDTH 460 0
DWIDTH 23 0
BBX 23 35 0 0
BITMAP
FE00FE
FF00FE
FF01FE
FF01FE
7F81FE
7F83FE
7FC3FC
3FC3FC
3FC7F8
1FE7F8
1FE7F0
0FEFF0
0FFFF0
07FFE0
07FFE0
07FFC0
03FFC0
03FF80
01FF80
01FF00
00FF00
00FF00
00FF00
00FF00
00FF00
00FF00
00FF00
00FF00
00FF00
00FF00
00FF00
00FF00
00FF00
00FF00
00FF00
ENDCHAR
STARTCHAR 007A
ENCODING 122
SWIDTH 560 0
DWIDTH 28 0
BBX 24 35 2 0
BITMAP
FFFFF8
FFFFF8
FFFFFC
FFFFFE
FFFFFF
FFFFFF
FFFFFF
7FFFFE
0007FE
000FFC
000FF8
001FF8
003FF0
003FF0
007FE0
00FFC0
00FFC0
01FF80
01FF80
03FF00
07FE00
07FE00
0FFC00
0FF800
1FF800
3FF000
3FF000
7FFFFE
7FFFFF
FFFFFF
7FFFFF
7FFFFF
3FFFFF
1FFFFF
0FFFFF
ENDCHAR
STARTCHAR 007B
ENCODING 123
SWIDTH 280 0
DWIDTH 14 0
BBX 13 40 1 -3
BITMAP
1FF8
1FF8
1FF8
1FF0
1FF0
1F00
1F00
1F00
1F00
1F00
1F00
1F00
1F00
1F00
1F00
1F00
3F00
7E00
FC00
F800
F800
FC00
7F00
1F00
1F00
1F00
1F00
1F00
1F00
1F00
1F00
1F00
1F00
1F00
1FE0
1FF0
1FF8
1FF8
1FF8
1FF8
ENDCHAR
STARTCHAR 007C
ENCODING 124
SWIDTH 140 0
DWIDTH 7 0
BBX 5 40 1 -3
BITMAP
F8
F8
F8
F8
F8
F8
F8
F8
F8
F8
F8
F8
F8
F8
F8
F8
F8
F8
F8
F8
F8
F8
F8
F8
F8
F8
F8
F8
F8
F8
F8
F8
F8
F8
F8
F8
F8
F8
F8
F8
ENDCHAR
STARTCHAR 007D
ENCODING 125
SWIDTH 280 0
DWIDTH 14 0
BBX 13 40 1 -3
BITMAP
FF80
FF80
FF80
FF80
7F80
0F80
0F80
0F80
0F80
0F80
0F80
0F80
0F80
0F80
0F80
0F80
0FE0
07F0
01F8
01F8
01F8
03F8
07E0
0FC0
0F80
0F80
0F80
0F80
0F80
0F80
0F80
0F80
0F80
0F80
7F80
7F80
FF80
FF80
FF80
FF80
ENDCHAR
STARTCHAR 007E
ENCODING 126
SWIDTH 440 0
DWIDTH 22 0
BBX 21 7 1 14
BITMAP
030000
0FE000
1FFC38
7FFFF8
FCFFF8
F81FF0
E003C0
ENDCHAR
STARTCHAR 00A1
ENCODING 161
SWIDTH 160 0
DWIDTH 8 0
BBX 7 35 1 0
BITMAP
FC
FC
FC
FC
FC
FC
00
00
00
38
38
38
78
78
78
7C
7C
7C
7C
7C
7C
7C
7C
7C
7C
7C
FC
FC
FC
FE
FE
FE
FE
FE
7C
ENDCHAR
STARTCHAR 00A2
ENCODING 162
SWIDTH 540 0
DWIDTH 27 0
BBX 23 45 2 -5
BITMAP
00F800
00F800
00F800
00F800
00F800
FFFFF0
FFFFF0
FFFFF8
FFFFFC
FFFFFE
FFFFFE
FFFFFE
FFFFFE
FF01FE
FF00FE
FF0000
FF0000
FF0000
FF0000
FF0000
FF0000
FF0000
FF0000
FF0000
FF0000
FF0000
FF0000
FF0000
FF0000
FF0000
FF00FE
FF01FE
FFFFFE
FFFFFE
FFFFFE
FFFFFE
FFFFFC
FFFFF8
FFFFF0
FFFFF0
00F800
00F800
00F800
00F800
00F800
ENDCHAR
STARTCHAR 00A3
ENCODING 163
SWIDTH 500 0
DWIDTH 25 0
BBX 21 35 2 0
BITMAP
7FFFF0
FFFFF8
FFFFF8
FFFFF8
FFFFF8
FFFFF8
FFFFF8
FFFFF8
FF07F8
7F03F8
7F0000
7F8000
3F8000
3F8000
FFFFF8
FFFFF8
FFFFF8
FFFFF8
FFFFF8
0FF000
0FF000
0FF000
0FF000
1FE000
3FC000
7FC000
7F8000
FFFFF0
FFFFF8
FFFFF8
FFFFF8
FFFFF8
FFFFF8
FFFFF8
FFFFF8
ENDCHAR
STARTCHAR 00A4
ENCODING 164
SWIDTH 320 0
DWIDTH 16 0
BBX 14 14 1 11
BITMAP
600C
F01C
7FFC
3FF8
3FF8
3878
3878
3878
3878
3FF8
3FF8
7FFC
F01C
600C
ENDCHAR
STARTCHAR 00A5
ENCODING 165
SWIDTH 460 0
DWIDTH 23 0
BBX 23 35 0 0
BITMAP
FE00FE
FF00FE
FF01FE
FF01FE
7F81FE
7F83FE
7FC3FC
3FC3FC
3FC7F8
1FE7F8
1FE7F0
0FEFF0
0FFFF0
07FFE0
07FFE0
07FFC0
03FFC0
03FF80
1FFFF8
1FFFF8
1FFFF8
1FFFF8
1FFFF8
00FF00
1FFFF8
1FFFF8
1FFFF8
1FFFF8
1FFFF8
00FF00
00FF00
00FF00
00FF00
00FF00
00FF00
ENDCHAR
STARTCHAR 00A6
ENCODING 166
SWIDTH 140 0
DWIDTH 7 0
BBX 5 39 1 -2
BITMAP
F8
F8
F8
F8
F8
F8
F8
F8
F8
F8
F8
F8
F8
F8
F8
F8
F8
F8
00
00
00
F8
F8
F8
F8
F8
F8
F8
F8
F8
F8
F8
F8
F8
F8
F8
F8
F8
F8
ENDCHAR
STARTCHAR 00A7
ENCODING 167
SWIDTH 420 0
DWIDTH 21 0
BBX 18 35 2 0
BITMAP
3FFE00
7FFF00
7FFF80
7FFF80
7FFFC0
7FFFC0
7E07C0
7F0000
3F8000
1FC000
7FE000
FFF000
FFF800
FFFC00
FFFE00
FFFF00
FC3F80
FE1FC0
7F0FC0
7FFFC0
3FFFC0
1FFFC0
0FFFC0
07FFC0
03FF80
01FE00
00FF00
007F00
F83F00
FFFF00
FFFF00
FFFF00
7FFF00
3FFF00
3FFF00
ENDCHAR
STARTCHAR 00A8
ENCODING 168
SWIDTH 280 0
DWIDTH 14 0
BBX 13 5 1 37
BITMAP
F8F8
F8F8
F8F8
F8F8
F8F8
ENDCHAR
STARTCHAR 00A9
ENCODING 169
SWIDTH 720 0
DWIDTH 36 0
BBX 35 39 1 -2
BITMAP
7FFFFFFF80
FFFFFFFFC0
FFFFFFFFE0
FFFFFFFFE0
FFFFFFFFE0
F8000003E0
F8000003E0
F8000003E0
F8000003E0
F83FFC03E0
F83FFE03E0
F83FFF03E0
F83FFF03E0
F83FFF03E0
F83E0F03E0
F83E0003E0
F83E0003E0
F83E0003E0
F83E0003E0
F83E0003E0
F83E0003E0
F83E0003E0
F83E0003E0
F83E0003E0
F83E0F03E0
F83FFF03E0
F83FFF03E0
F83FFF03E0
F83FFE03E0
F83FFC03E0
F8000003E0
F8000003E0
F8000003E0
F8000003E0
FFFFFFFFE0
FFFFFFFFE0
FFFFFFFFE0
FFFFFFFFC0
7FFFFFFF80
ENDCHAR
STARTCHAR 00AB
ENCODING 171
SWIDTH 460 0
DWIDTH 23 0
BBX 21 20 1 7
BITMAP
006008
00E038
01E078
03E0F8
0FE1F8
1F87E0
3F0FC0
7E1F80
F83F00
F83F00
F83F00
FC3F00
7E0FC0
1F87E0
0FC3F0
07E1F8
03E078
00E038
006018
002008
ENDCHAR
STARTCHAR 00AC
ENCODING 172
SWIDTH 560 0
DWIDTH 28 0
BBX 26 13 1 6
BITMAP
FFFFFFC0
FFFFFFC0
FFFFFFC0
FFFFFFC0
FFFFFFC0
000007C0
000007C0
000007C0
000007C0
000007C0
000007C0
000007C0
000007C0
ENDCHAR
STARTCHAR 00AE
ENCODING 174
SWIDTH 380 0
DWIDTH 19 0
BBX 17 20 1 15
BITMAP
FFFF80
FFFF80
FFFF80
E00180
E7E180
E7F180
E7F180
E73180
E73180
E7F180
E7E180
E76180
E77180
E73180
E73180
E00180
E00180
FFFF80
FFFF80
7FFF00
ENDCHAR
STARTCHAR 00AF
ENCODING 175
SWIDTH 420 0
DWIDTH 21 0
BBX 20 5 1 37
BITMAP
FFFFF0
FFFFF0
FFFFF0
FFFFF0
FFFFF0
ENDCHAR
STARTCHAR 00B0
ENCODING 176
SWIDTH 240 0
DWIDTH 12 0
BBX 10 10 1 25
BITMAP
7FC0
FFC0
FFC0
F3C0
F1C0
F1C0
F3C0
FFC0
FFC0
7FC0
ENDCHAR
STARTCHAR 00B1
ENCODING 177
SWIDTH 420 0
DWIDTH 21 0
BBX 20 26 1 1
BITMAP
01F000
01F000
01F000
01F000
01F000
01F000
01F000
FFFFF0
FFFFF0
FFFFF0
FFFFF0
FFFFF0
01F000
01F000
01F000
01F000
01F000
01F000
01F000
000000
000000
FFFFF0
FFFFF0
FFFFF0
FFFFF0
FFFFF0
ENDCHAR
STARTCHAR 00B4
ENCODING 180
SWIDTH 380 0
DWIDTH 19 0
BBX 18 5 1 37
BITMAP
00FFC0
7FFFC0
FFFF00
FFE000
FC0000
ENDCHAR
STARTCHAR 00B6
ENCODING 182
SWIDTH 420 0
DWIDTH 21 0
BBX 17 35 2 0
BITMAP
7FF180
FFF180
FFF180
FFF180
FFF180
FFF180
FFF180
FFF180
FFF180
FFF180
FFF180
FFF180
FFF180
FFF180
FFF180
7FF180
003180
003180
003180
003180
003180
003180
003180
003180
003180
003180
003180
003180
003180
003180
003180
003180
003180
003180
003180
ENDCHAR
STARTCHAR 00B7
ENCODING 183
SWIDTH 160 0
DWIDTH 8 0
BBX 7 7 1 16
BITMAP
FE
FE
FE
FE
FE
FE
FE
ENDCHAR
STARTCHAR 00B8
ENCODING 184
SWIDTH 200 0
DWIDTH 10 0
BBX 8 7 1 -7
BITMAP
07
0E
3E
3E
0E
7E
FC
ENDCHAR
STARTCHAR 00BB
ENCODING 187
SWIDTH 460 0
DWIDTH 23 0
BBX 21 21 1 6
BITMAP
802000
C03000
E03800
F03E00
FC3F00
7E1F80
3F0FC0
1F83F0
07E1F8
03E0F8
03E0F8
03E0F8
07E1F8
0FC3F0
1F87E0
7E1FC0
FC3F00
F83E00
F03C00
C03800
802000
ENDCHAR
STARTCHAR 00BC
ENCODING 188
SWIDTH 580 0
DWIDTH 29 0
BBX 26 35 2 0
BITMAP
0F003E00
3F003C00
7F007C00
FF007800
FF007800
FF00F000
EF00F000
0F01E000
0F01E000
0F03E000
0F03C000
0F07C000
0F078000
0F0F8000
0F0F0000
0F1F0000
0F1E0000
0F3E1E00
003C3F00
007C7F00
00787F00
00F8FF00
00F1FF00
00F1EF00
01F3EF00
01E3CF00
03E7CF00
03C78F00
07C7FF80
0787FFC0
0F87FFC0
0F03FFC0
1F000F00
1E000F00
3E000F00
ENDCHAR
STARTCHAR 00BD
ENCODING 189
SWIDTH 620 0
DWIDTH 31 0
BBX 28 35 2 0
BITMAP
0F003E00
3F003C00
7F007C00
FF007800
FF007800
FF00F000
EF00F000
0F01E000
0F01E000
0F03E000
0F03C000
0F07C000
0F078000
0F0F8000
0F0F0000
0F1F0000
0F1E0000
0F3E3FE0
003C7FF0
007C7FF0
0078FFF0
00F8F8F0
00F0F0F0
00F001F0
01F003F0
01E007E0
03E00FC0
03C01F80
07C01F00
07803E00
0F807C00
0F00FFE0
1F00FFF0
1E00FFF0
3E00FFF0
ENDCHAR
STARTCHAR 00BE
ENCODING 190
SWIDTH 620 0
DWIDTH 31 0
BBX 28 35 2 0
BITMAP
FFE00780
FFE00F80
7FE00F00
3FE01F00
01E01E00
01E01E00
01E03C00
3FE03C00
3FE07C00
3FE07800
3FE0F800
01E0F000
01E1F000
01E1E000
3FE3E000
7FE3C000
FFE7C000
FFE78780
000F8FC0
000F0FC0
001F1FC0
001E1FC0
001E3FC0
003E7FC0
003C7BC0
007CFBC0
0078F3C0
00F9F3C0
00F1FFF0
01F1FFF0
01E1FFF0
03E0FFF0
03C003C0
07C003C0
078003C0
ENDCHAR
STARTCHAR 00BF
ENCODING 191
SWIDTH 520 0
DWIDTH 26 0
BBX 23 35 2 0
BITMAP
03FC00
03FC00
03FC00
03FC00
03FC00
03FC00
000000
000000
000000
000000
03FC00
03FC00
03FC00
03FC00
03FC00
03FC00
03FC00
07F800
0FF000
0FF000
1FE000
3FC000
3FC000
7F8000
FF80FE
FF80FE
FF80FE
FFFFFE
FFFFFE
FFFFFE
FFFFFC
FFFFF8
FFFFF8
FFFFF0
7FFFE0
ENDCHAR
STARTCHAR 00C0
ENCODING 192
SWIDTH 580 0
DWIDTH 29 0
BBX 28 42 1 0
BITMAP
0FE00000
0FFF0000
0FFFF800
03FFFC00
0003FC00
00000000
00000000
01FFF000
03FFF800
03FFF800
03FFFC00
03FFFC00
07FFFC00
07FFFC00
07FFFC00
07E0FE00
07E0FE00
0FE0FE00
0FE0FE00
0FE07E00
0FE07F00
0FC07F00
1FC07F00
1FC07F00
1FC07F00
1FC07F80
1FC03F80
3F803F80
3FC07F80
3FFFFF80
3FFFFFC0
3FFFFFC0
7FFFFFC0
7FFFDFC0
7FBFDFC0
7F001FE0
7F001FE0
FF001FE0
FF001FE0
FF000FE0
FE000FF0
FE000FF0
ENDCHAR
STARTCHAR 00C1
ENCODING 193
SWIDTH 580 0
DWIDTH 29 0
BBX 28 42 1 0
BITMAP
0007FC00
07FFFC00
0FFFF000
0FFE0000
0FC00000
00000000
00000000
01FFF000
03FFF800
03FFF800
03FFFC00
03FFFC00
07FFFC00
07FFFC00
07FFFC00
07E0FE00
07E0FE00
0FE0FE00
0FE0FE00
0FE07E00
0FE07F00
0FC07F00
1FC07F00
1FC07F00
1FC07F00
1FC07F80
1FC03F80
3F803F80
3FC07F80
3FFFFF80
3FFFFFC0
3FFFFFC0
7FFFFFC0
7FFFDFC0
7FBFDFC0
7F001FE0
7F001FE0
FF001FE0
FF001FE0
FF000FE0
FE000FF0
FE000FF0
ENDCHAR
STARTCHAR 00C2
ENCODING 194
SWIDTH 580 0
DWIDTH 29 0
BBX 28 43 1 0
BITMAP
03FFF000
07FFF800
0FFFFC00
1FFFFF00
1F803F00
1F001F00
00000000
00000000
01FFF000
03FFF800
03FFF800
03FFFC00
03FFFC00
07FFFC00
07FFFC00
07FFFC00
07E0FE00
07E0FE00
0FE0FE00
0FE0FE00
0FE07E00
0FE07F00
0FC07F00
1FC07F00
1FC07F00
1FC07F00
1FC07F80
1FC03F80
3F803F80
3FC07F80
3FFFFF80
3FFFFFC0
3FFFFFC0
7FFFFFC0
7FFFDFC0
7FBFDFC0
7F001FE0
7F001FE0
FF001FE0
FF001FE0
FF000FE0
FE000FF0
FE000FF0
ENDCHAR
STARTCHAR 00C3
ENCODING 195
SWIDTH 580 0
DWIDTH 29 0
BBX 28 44 1 0
BITMAP
00600000
01FC0000
07FF8700
1FFFFF00
1F8FFF00
1F03FE00
1C007800
00000000
00000000
01FFF000
03FFF800
03FFF800
03FFFC00
03FFFC00
07FFFC00
07FFFC00
07FFFC00
07E0FE00
07E0FE00
0FE0FE00
0FE0FE00
0FE07E00
0FE07F00
0FC07F00
1FC07F00
1FC07F00
1FC07F00
1FC07F80
1FC03F80
3F803F80
3FC07F80
3FFFFF80
3FFFFFC0
3FFFFFC0
7FFFFFC0
7FFFDFC0
7FBFDFC0
7F001FE0
7F001FE0
FF001FE0
FF001FE0
FF000FE0
FE000FF0
FE000FF0
ENDCHAR
STARTCHAR 00C4
ENCODING 196
SWIDTH 580 0
DWIDTH 29 0
BBX 28 42 1 0
BITMAP
01F1F000
01F1F000
01F1F000
01F1F000
01F1F000
00000000
00000000
01FFF000
03FFF800
03FFF800
03FFFC00
03FFFC00
07FFFC00
07FFFC00
07FFFC00
07E0FE00
07E0FE00
0FE0FE00
0FE0FE00
0FE07E00
0FE07F00
0FC07F00
1FC07F00
1FC07F00
1FC07F00
1FC07F80
1FC03F80
3F803F80
3FC07F80
3FFFFF80
3FFFFFC0
3FFFFFC0
7FFFFFC0
7FFFDFC0
7FBFDFC0
7F001FE0
7F001FE0
FF001FE0
FF001FE0
FF000FE0
FE000FF0
FE000FF0
ENDCHAR
STARTCHAR 00C5
ENCODING 197
SWIDTH 580 0
DWIDTH 29 0
BBX 28 44 1 0
BITMAP
001F8000
003F8000
00318000
00318000
00318000
003F8000
001F8000
00000000
00000000
01FFF000
03FFF800
03FFF800
03FFFC00
03FFFC00
07FFFC00
07FFFC00
07FFFC00
07E0FE00
07E0FE00
0FE0FE00
0FE0FE00
0FE07E00
0FE07F00
0FC07F00
1FC07F00
1FC07F00
1FC07F00
1FC07F80
1FC03F80
3F803F80
3FC07F80
3FFFFF80
3FFFFFC0
3FFFFFC0
7FFFFFC0
7FFFDFC0
7FBFDFC0
7F001FE0
7F001FE0
FF001FE0
FF001FE0
FF000FE0
FE000FF0
FE000FF0
ENDCHAR
STARTCHAR 00C6
ENCODING 198
SWIDTH 840 0
DWIDTH 42 0
BBX 39 35 1 0
BITMAP
01FFFFFFE0
03FFFFFFF0
03FFFFFFF8
03FFFFFFFC
03FFFFFFFC
07FFFFFFFE
07FFFFFFFE
07FFFFFFFE
07E0FF00FE
07E0FF007E
0FE0FF0000
0FE0FF0000
0FE0FF0000
0FE0FF0000
0FC0FFFF80
1FC0FFFF80
1FC0FFFF80
1FC0FFFF80
1FC0FFFF80
1FC0FFFF80
3F80FFFF80
3FC0FF0000
3FFFFF0000
3FFFFF0000
3FFFFF0000
7FFFFF007E
7FFFFF00FE
7FBFFFFFFE
7F00FFFFFE
7F00FFFFFE
FF00FFFFFC
FF00FFFFFC
FF00FFFFF8
FE00FFFFF0
FE00FFFFE0
ENDCHAR
STARTCHAR 00C7
ENCODING 199
SWIDTH 540 0
DWIDTH 27 0
BBX 23 42 2 -7
BITMAP
FFFFF0
FFFFF0
FFFFF8
FFFFFC
FFFFFE
FFFFFE
FFFFFE
FFFFFE
FF01FE
FF00FE
FF0000
FF0000
FF0000
FF0000
FF0000
FF0000
FF0000
FF0000
FF0000
FF0000
FF0000
FF0000
FF0000
FF0000
FF0000
FF00FE
FF01FE
FFFFFE
FFFFFE
FFFFFE
FFFFFE
FFFFFC
FFFFF8
FFFFF0
FFFFF0
001C00
001C00
007800
007800
003800
01F800
03F000
ENDCHAR
STARTCHAR 00C8
ENCODING 200
SWIDTH 540 0
DWIDTH 27 0
BBX 23 42 2 0
BITMAP
3F8000
3FFC00
3FFFE0
0FFFF0
000FF0
000000
000000
FFFFF0
FFFFF0
FFFFF8
FFFFFC
FFFFFC
FFFFFE
FFFFFE
FFFFFE
FF00FE
FF007E
FF0000
FF0000
FF0000
FF0000
FFFF80
FFFF80
FFFF80
FFFF80
FFFF80
FFFF80
FFFF80
FF0000
FF0000
FF0000
FF0000
FF007E
FF00FE
FFFFFE
FFFFFE
FFFFFE
FFFFFC
FFFFFC
FFFFF8
FFFFF0
FFFFF0
ENDCHAR
STARTCHAR 00C9
ENCODING 201
SWIDTH 540 0
DWIDTH 27 0
BBX 23 42 2 0
BITMAP
003FF0
1FFFF0
3FFFC0
3FF800
3F0000
000000
000000
FFFFF0
FFFFF0
FFFFF8
FFFFFC
FFFFFC
FFFFFE
FFFFFE
FFFFFE
FF00FE
FF007E
FF0000
FF0000
FF0000
FF0000
FFFF80
FFFF80
FFFF80
FFFF80
FFFF80
FFFF80
FFFF80
FF0000
FF0000
FF0000
FF0000
FF007E
FF00FE
FFFFFE
FFFFFE
FFFFFE
FFFFFC
FFFFFC
FFFFF8
FFFFF0
FFFFF0
ENDCHAR
STARTCHAR 00CA
ENCODING 202
SWIDTH 540 0
DWIDTH 27 0
BBX 23 43 2 0
BITMAP
1FFF80
3FFFC0
7FFFE0
FFFFF0
FC01F0
F000F0
000000
000000
FFFFF0
FFFFF0
FFFFF8
FFFFFC
FFFFFC
FFFFFE
FFFFFE
FFFFFE
FF00FE
FF007E
FF0000
FF0000
FF0000
FF0000
FFFF80
FFFF80
FFFF80
FFFF80
FFFF80
FFFF80
FFFF80
FF0000
FF0000
FF0000
FF0000
FF007E
FF00FE
FFFFFE
FFFFFE
FFFFFE
FFFFFC
FFFFFC
FFFFF8
FFFFF0
FFFFF0
ENDCHAR
STARTCHAR 00CB
ENCODING 203
SWIDTH 540 0
DWIDTH 27 0
BBX 23 42 2 0
BITMAP
0F8780
0F8780
0F8780
0F8780
0F8780
000000
000000
FFFFF0
FFFFF0
FFFFF8
FFFFFC
FFFFFC
FFFFFE
FFFFFE
FFFFFE
FF00FE
FF007E
FF0000
FF0000
FF0000
FF0000
FFFF80
FFFF80
FFFF80
FFFF80
FFFF80
FFFF80
FFFF80
FF0000
FF0000
FF0000
FF0000
FF007E
FF00FE
FFFFFE
FFFFFE
FFFFFE
FFFFFC
FFFFFC
FFFFF8
FFFFF0
FFFFF0
ENDCHAR
STARTCHAR 00CC
ENCODING 204
SWIDTH 220 0
DWIDTH 11 0
BBX 18 42 -2 0
BITMAP
FC0000
FFE000
FFFF00
7FFFC0
003FC0
000000
000000
0FF000
0FF000
0FF000
0FF000
0FF000
0FF000
0FF000
0FF000
0FF000
0FF000
0FF000
0FF000
0FF000
0FF000
0FF000
0FF000
0FF000
0FF000
0FF000
0FF000
0FF000
0FF000
0FF000
0FF000
0FF000
0FF000
0FF000
0FF000
0FF000
0FF000
0FF000
0FF000
0FF000
0FF000
0FF000
ENDCHAR
STARTCHAR 00CD
ENCODING 205
SWIDTH 220 0
DWIDTH 11 0
BBX 18 42 -3 0
BITMAP
00FFC0
7FFFC0
FFFF00
FFE000
FC0000
000000
000000
07F800
07F800
07F800
07F800
07F800
07F800
07F800
07F800
07F800
07F800
07F800
07F800
07F800
07F800
07F800
07F800
07F800
07F800
07F800
07F800
07F800
07F800
07F800
07F800
07F800
07F800
07F800
07F800
07F800
07F800
07F800
07F800
07F800
07F800
07F800
ENDCHAR
STARTCHAR 00CE
ENCODING 206
SWIDTH 480 0
DWIDTH 24 0
BBX 20 43 2 0
BITMAP
1FFF80
3FFFC0
7FFFE0
FFFFF0
FC01F0
F000F0
000000
000000
03FC00
03FC00
03FC00
03FC00
03FC00
03FC00
03FC00
03FC00
03FC00
03FC00
03FC00
03FC00
03FC00
03FC00
03FC00
03FC00
03FC00
03FC00
03FC00
03FC00
03FC00
03FC00
03FC00
03FC00
03FC00
03FC00
03FC00
03FC00
03FC00
03FC00
03FC00
03FC00
03FC00
03FC00
03FC00
ENDCHAR
STARTCHAR 00CF
ENCODING 207
SWIDTH 220 0
DWIDTH 11 0
BBX 13 42 -1 0
BITMAP
F878
F878
F878
F878
F878
0000
0000
1FE0
1FE0
1FE0
1FE0
1FE0
1FE0
1FE0
1FE0
1FE0
1FE0
1FE0
1FE0
1FE0
1FE0
1FE0
1FE0
1FE0
1FE0
1FE0
1FE0
1FE0
1FE0
1FE0
1FE0
1FE0
1FE0
1FE0
1FE0
1FE0
1FE0
1FE0
1FE0
1FE0
1FE0
1FE0
ENDCHAR
STARTCHAR 00D0
ENCODING 208
SWIDTH 580 0
DWIDTH 29 0
BBX 28 35 -1 0
BITMAP
1FFFFF00
1FFFFF80
1FFFFFC0
1FFFFFE0
1FFFFFE0
1FFFFFF0
1FFFFFF0
1FFFFFF0
1FE00FF0
1FE00FF0
1FE00FF0
1FE00FF0
1FE00FF0
1FE00FF0
1FE00FF0
FFFE0FF0
FFFE0FF0
FFFE0FF0
FFFE0FF0
FFFE0FF0
1FE00FF0
1FE00FF0
1FE00FF0
1FE00FF0
1FE00FF0
1FE00FF0
1FE00FF0
1FFFFFF0
1FFFFFF0
1FFFFFF0
1FFFFFE0
1FFFFFE0
1FFFFFC0
1FFFFF80
1FFFFF00
ENDCHAR
STARTCHAR 00D1
ENCODING 209
SWIDTH 560 0
DWIDTH 28 0
BBX 25 44 2 0
BITMAP
00C00000
03F80000
0FFF0E00
3FFFFE00
3F1FFE00
3E03FC00
3800F000
00000000
00000000
0F007F80
1F007F80
3F807F80
7F807F80
7FC07F80
FFC07F80
FFE07F80
FFE07F80
FFF07F80
FFF07F80
FFF07F80
FFF87F80
FFF87F80
FFFC7F80
FFFC7F80
FFFE7F80
FFFE7F80
FFFFFF80
FF7FFF80
FF3FFF80
FF3FFF80
FF1FFF80
FF1FFF80
FF0FFF80
FF0FFF80
FF07FF80
FF07FF80
FF07FF80
FF03FF80
FF03FF80
FF01FF00
FF01FE00
FF00FC00
FF00FC00
FF007800
ENDCHAR
STARTCHAR 00D2
ENCODING 210
SWIDTH 620 0
DWIDTH 31 0
BBX 27 42 2 0
BITMAP
07F00000
07FF0000
07FFF800
03FFFE00
0001FE00
00000000
00000000
0FFFFE00
1FFFFF00
3FFFFF80
7FFFFFC0
7FFFFFC0
FFFFFFE0
FFFFFFE0
FFFFFFE0
FF001FE0
FF001FE0
FF001FE0
FF001FE0
FF001FE0
FF001FE0
FF001FE0
FF001FE0
FF001FE0
FF001FE0
FF001FE0
FF001FE0
FF001FE0
FF001FE0
FF001FE0
FF001FE0
FF001FE0
FF001FE0
FF001FE0
FFFFFFE0
FFFFFFE0
FFFFFFE0
7FFFFFC0
7FFFFFC0
3FFFFF80
1FFFFF00
0FFFFE00
ENDCHAR
STARTCHAR 00D3
ENCODING 211
SWIDTH 620 0
DWIDTH 31 0
BBX 27 42 2 0
BITMAP
0003FE00
03FFFE00
07FFF800
07FF0000
07E00000
00000000
00000000
0FFFFE00
1FFFFF00
3FFFFF80
7FFFFFC0
7FFFFFC0
FFFFFFE0
FFFFFFE0
FFFFFFE0
FF001FE0
FF001FE0
FF001FE0
FF001FE0
FF001FE0
FF001FE0
FF001FE0
FF001FE0
FF001FE0
FF001FE0
FF001FE0
FF001FE0
FF001FE0
FF001FE0
FF001FE0
FF001FE0
FF001FE0
FF001FE0
FF001FE0
FFFFFFE0
FFFFFFE0
FFFFFFE0
7FFFFFC0
7FFFFFC0
3FFFFF80
1FFFFF00
0FFFFE00
ENDCHAR
STARTCHAR 00D4
ENCODING 212
SWIDTH 620 0
DWIDTH 31 0
BBX 27 43 2 0
BITMAP
01FFF000
03FFFC00
0FFFFE00
1FFFFF00
1F803F00
1F001F00
00000000
00000000
0FFFFE00
1FFFFF00
3FFFFF80
7FFFFFC0
7FFFFFC0
FFFFFFE0
FFFFFFE0
FFFFFFE0
FF001FE0
FF001FE0
FF001FE0
FF001FE0
FF001FE0
FF001FE0
FF001FE0
FF001FE0
FF001FE0
FF001FE0
FF001FE0
FF001FE0
FF001FE0
FF001FE0
FF001FE0
FF001FE0
FF001FE0
FF001FE0
FF001FE0
FFFFFFE0
FFFFFFE0
FFFFFFE0
7FFFFFC0
7FFFFFC0
3FFFFF80
1FFFFF00
0FFFFE00
ENDCHAR
STARTCHAR 00D5
ENCODING 213
SWIDTH 620 0
DWIDTH 31 0
BBX 27 44 2 0
BITMAP
00600000
01FC0000
07FF8700
1FFFFF00
1F8FFF00
1F03FE00
1C007800
00000000
00000000
0FFFFE00
1FFFFF00
3FFFFF80
7FFFFFC0
7FFFFFC0
FFFFFFE0
FFFFFFE0
FFFFFFE0
FF001FE0
FF001FE0
FF001FE0
FF001FE0
FF001FE0
FF001FE0
FF001FE0
FF001FE0
FF001FE0
FF001FE0
FF001FE0
FF001FE0
FF001FE0
FF001FE0
FF001FE0
FF001FE0
FF001FE0
FF001FE0
FF001FE0
FFFFFFE0
FFFFFFE0
FFFFFFE0
7FFFFFC0
7FFFFFC0
3FFFFF80
1FFFFF00
0FFFFE00
ENDCHAR
STARTCHAR 00D6
ENCODING 214
SWIDTH 620 0
DWIDTH 31 0
BBX 27 42 2 0
BITMAP
01F1F000
01F1F000
01F1F000
01F1F000
01F1F000
00000000
00000000
0FFFFE00
1FFFFF00
3FFFFF80
7FFFFFC0
7FFFFFC0
FFFFFFE0
FFFFFFE0
FFFFFFE0
FF001FE0
FF001FE0
FF001FE0
FF001FE0
FF001FE0
FF001FE0
FF001FE0
FF001FE0
FF001FE0
FF001FE0
FF001FE0
FF001FE0
FF001FE0
FF001FE0
FF001FE0
FF001FE0
FF001FE0
FF001FE0
FF001FE0
FFFFFFE0
FFFFFFE0
FFFFFFE0
7FFFFFC0
7FFFFFC0
3FFFFF80
1FFFFF00
0FFFFE00
ENDCHAR
STARTCHAR 00D7
ENCODING 215
SWIDTH 400 0
DWIDTH 20 0
BBX 18 16 1 8
BITMAP
100300
380700
7C0F80
FF1FC0
7FBFC0
3FFF00
1FFE00
07FC00
07FC00
0FFE00
1FFF00
7FFF80
FF3FC0
7E0FC0
3C0780
300300
ENDCHAR
STARTCHAR 00D8
ENCODING 216
SWIDTH 620 0
DWIDTH 31 0
BBX 27 43 2 -4
BITMAP
000007C0
00000FC0
00000F80
00001F80
0FFFFF00
1FFFFF00
3FFFFF80
7FFFFFC0
7FFFFFC0
FFFFFFE0
FFFFFFE0
FFFFFFE0
FF01FFE0
FF03FFE0
FF03FFE0
FF03FFE0
FF07FFE0
FF07DFE0
FF0FDFE0
FF0F9FE0
FF1F9FE0
FF1F1FE0
FF3F1FE0
FF3E1FE0
FF7E1FE0
FF7C1FE0
FFFC1FE0
FFF81FE0
FFF81FE0
FFF01FE0
FFF01FE0
FFFFFFE0
FFFFFFE0
FFFFFFE0
7FFFFFC0
7FFFFFC0
3FFFFF80
1FFFFF00
1FFFFE00
3F000000
3E000000
7E000000
7C000000
ENDCHAR
STARTCHAR 00D9
ENCODING 217
SWIDTH 600 0
DWIDTH 30 0
BBX 27 42 2 0
BITMAP
07E00000
07FF0000
07FFF800
03FFFE00
0003FE00
00000000
00000000
FF001FE0
FF001FE0
FF001FE0
FF001FE0
FF001FE0
FF001FE0
FF001FE0
FF001FE0
FF001FE0
FF001FE0
FF001FE0
FF001FE0
FF001FE0
FF001FE0
FF001FE0
FF001FE0
FF001FE0
FF001FE0
FF001FE0
FF001FE0
FF001FE0
FF001FE0
FF001FE0
FF001FE0
FF001FE0
FF001FE0
FF003FE0
FFFFFFE0
FFFFFFE0
FFFFFFE0
7FFFFFC0
7FFFFF80
3FFFFF00
1FFFFF00
0FFFFE00
ENDCHAR
STARTCHAR 00DA
ENCODING 218
SWIDTH 600 0
DWIDTH 30 0
BBX 27 42 2 0
BITMAP
0007FE00
03FFFE00
07FFF800
07FF0000
07E00000
00000000
00000000
FF001FE0
FF001FE0
FF001FE0
FF001FE0
FF001FE0
FF001FE0
FF001FE0
FF001FE0
FF001FE0
FF001FE0
FF001FE0
FF001FE0
FF001FE0
FF001FE0
FF001FE0
FF001FE0
FF001FE0
FF001FE0
FF001FE0
FF001FE0
FF001FE0
FF001FE0
FF001FE0
FF001FE0
FF001FE0
FF001FE0
FF003FE0
FFFFFFE0
FFFFFFE0
FFFFFFE0
7FFFFFC0
7FFFFF80
3FFFFF00
1FFFFF00
0FFFFE00
ENDCHAR
STARTCHAR 00DB
ENCODING 219
SWIDTH 600 0
DWIDTH 30 0
BBX 27 43 2 0
BITMAP
03FFF000
07FFF800
0FFFFC00
1FFFFE00
1F803F00
1E001F00
00000000
00000000
FF001FE0
FF001FE0
FF001FE0
FF001FE0
FF001FE0
FF001FE0
FF001FE0
FF001FE0
FF001FE0
FF001FE0
FF001FE0
FF001FE0
FF001FE0
FF001FE0
FF001FE0
FF001FE0
FF001FE0
FF001FE0
FF001FE0
FF001FE0
FF001FE0
FF001FE0
FF001FE0
FF001FE0
FF001FE0
FF001FE0
FF003FE0
FFFFFFE0
FFFFFFE0
FFFFFFE0
7FFFFFC0
7FFFFF80
3FFFFF00
1FFFFF00
0FFFFE00
ENDCHAR
STARTCHAR 00DC
ENCODING 220
SWIDTH 600 0
DWIDTH 30 0
BBX 27 42 2 0
BITMAP
01F1F000
01F1F000
01F1F000
01F1F000
01F1F000
00000000
00000000
FF001FE0
FF001FE0
FF001FE0
FF001FE0
FF001FE0
FF001FE0
FF001FE0
FF001FE0
FF001FE0
FF001FE0
FF001FE0
FF001FE0
FF001FE0
FF001FE0
FF001FE0
FF001FE0
FF001FE0
FF001FE0
FF001FE0
FF001FE0
FF001FE0
FF001FE0
FF001FE0
FF001FE0
FF001FE0
FF001FE0
FF003FE0
FFFFFFE0
FFFFFFE0
FFFFFFE0
7FFFFFC0
7FFFFF80
3FFFFF00
1FFFFF00
0FFFFE00
ENDCHAR
STARTCHAR 00DD
ENCODING 221
SWIDTH 460 0
DWIDTH 23 0
BBX 23 42 0 0
BITMAP
001FF8
0FFFF8
1FFFE0
1FFC00
1F8000
000000
000000
FE00FE
FF00FE
FF01FE
FF01FE
7F81FE
7F83FE
7FC3FC
3FC3FC
3FC7F8
1FE7F8
1FE7F0
0FEFF0
0FFFF0
07FFE0
07FFE0
07FFC0
03FFC0
03FF80
01FF80
01FF00
00FF00
00FF00
00FF00
00FF00
00FF00
00FF00
00FF00
00FF00
00FF00
00FF00
00FF00
00FF00
00FF00
00FF00
00FF00
ENDCHAR
STARTCHAR 00DE
ENCODING 222
SWIDTH 540 0
DWIDTH 27 0
BBX 23 41 2 0
BITMAP
FF0000
FF0000
FF0000
FF0000
FF0000
FF0000
FFFFE0
FFFFF0
FFFFF8
FFFFFC
FFFFFC
FFFFFE
FFFFFE
FFFFFE
FF01FE
FF01FE
FF01FE
FF01FE
FF01FE
FF01FE
FF01FE
FF03FE
FFFFFE
FFFFFE
FFFFFE
FFFFFC
FFFFF8
FFFFF8
FFFFF0
FFFFE0
FF0000
FF0000
FF0000
FF0000
FF0000
FF0000
FF0000
FF0000
FF0000
FF0000
FF0000
ENDCHAR
STARTCHAR 00DF
ENCODING 223
SWIDTH 580 0
DWIDTH 29 0
BBX 25 35 2 0
BITMAP
0FFFF800
1FFFFC00
3FFFFE00
7FFFFF00
7FFFFF00
FFFFFF80
FFFFFF80
FF007F80
FF007F80
FF007F80
FF007F80
FF007F80
FF007F80
FF007F80
FF1FFF80
FF3FFF00
FF3FFE00
FF3FFE00
FF3FFF00
FF3FFF80
FF1FFF80
FF007F80
FF007F80
FF007F80
FF007F80
FF007F80
FF007F80
FF007F80
FF3FFF80
FF3FFF80
FF3FFF00
FF3FFF00
FF3FFE00
FF3FFC00
FF3FF800
ENDCHAR
STARTCHAR 00E0
ENCODING 224
SWIDTH 580 0
DWIDTH 29 0
BBX 28 42 1 0
BITMAP
0FE00000
0FFF0000
0FFFF800
03FFFC00
0003FC00
00000000
00000000
01FFF000
03FFF800
03FFF800
03FFFC00
03FFFC00
07FFFC00
07FFFC00
07FFFC00
07E0FE00
07E0FE00
0FE0FE00
0FE0FE00
0FE07E00
0FE07F00
0FC07F00
1FC07F00
1FC07F00
1FC07F00
1FC07F80
1FC03F80
3F803F80
3FC07F80
3FFFFF80
3FFFFFC0
3FFFFFC0
7FFFFFC0
7FFFDFC0
7FBFDFC0
7F001FE0
7F001FE0
FF001FE0
FF001FE0
FF000FE0
FE000FF0
FE000FF0
ENDCHAR
STARTCHAR 00E1
ENCODING 225
SWIDTH 580 0
DWIDTH 29 0
BBX 28 42 1 0
BITMAP
0007FC00
07FFFC00
0FFFF000
0FFE0000
0FC00000
00000000
00000000
01FFF000
03FFF800
03FFF800
03FFFC00
03FFFC00
07FFFC00
07FFFC00
07FFFC00
07E0FE00
07E0FE00
0FE0FE00
0FE0FE00
0FE07E00
0FE07F00
0FC07F00
1FC07F00
1FC07F00
1FC07F00
1FC07F80
1FC03F80
3F803F80
3FC07F80
3FFFFF80
3FFFFFC0
3FFFFFC0
7FFFFFC0
7FFFDFC0
7FBFDFC0
7F001FE0
7F001FE0
FF001FE0
FF001FE0
FF000FE0
FE000FF0
FE000FF0
ENDCHAR
STARTCHAR 00E2
ENCODING 226
SWIDTH 580 0
DWIDTH 29 0
BBX 28 43 1 0
BITMAP
03FFF000
07FFF800
0FFFFC00
1FFFFF00
1F803F00
1F001F00
00000000
00000000
01FFF000
03FFF800
03FFF800
03FFFC00
03FFFC00
07FFFC00
07FFFC00
07FFFC00
07E0FE00
07E0FE00
0FE0FE00
0FE0FE00
0FE07E00
0FE07F00
0FC07F00
1FC07F00
1FC07F00
1FC07F00
1FC07F80
1FC03F80
3F803F80
3FC07F80
3FFFFF80
3FFFFFC0
3FFFFFC0
7FFFFFC0
7FFFDFC0
7FBFDFC0
7F001FE0
7F001FE0
FF001FE0
FF001FE0
FF000FE0
FE000FF0
FE000FF0
ENDCHAR
STARTCHAR 00E3
ENCODING 227
SWIDTH 580 0
DWIDTH 29 0
BBX 28 44 1 0
BITMAP
00600000
01FC0000
07FF8700
1FFFFF00
1F8FFF00
1F03FE00
1C007800
00000000
00000000
01FFF000
03FFF800
03FFF800
03FFFC00
03FFFC00
07FFFC00
07FFFC00
07FFFC00
07E0FE00
07E0FE00
0FE0FE00
0FE0FE00
0FE07E00
0FE07F00
0FC07F00
1FC07F00
1FC07F00
1FC07F00
1FC07F80
1FC03F80
3F803F80
3FC07F80
3FFFFF80
3FFFFFC0
3FFFFFC0
7FFFFFC0
7FFFDFC0
7FBFDFC0
7F001FE0
7F001FE0
FF001FE0
FF001FE0
FF000FE0
FE000FF0
FE000FF0
ENDCHAR
STARTCHAR 00E4
ENCODING 228
SWIDTH 580 0
DWIDTH 29 0
BBX 28 42 1 0
BITMAP
01F1F000
01F1F000
01F1F000
01F1F000
01F1F000
00000000
00000000
01FFF000
03FFF800
03FFF800
03FFFC00
03FFFC00
07FFFC00
07FFFC00
07FFFC00
07E0FE00
07E0FE00
0FE0FE00
0FE0FE00
0FE07E00
0FE07F00
0FC07F00
1FC07F00
1FC07F00
1FC07F00
1FC07F80
1FC03F80
3F803F80
3FC07F80
3FFFFF80
3FFFFFC0
3FFFFFC0
7FFFFFC0
7FFFDFC0
7FBFDFC0
7F001FE0
7F001FE0
FF001FE0
FF001FE0
FF000FE0
FE000FF0
FE000FF0
ENDCHAR
STARTCHAR 00E5
ENCODING 229
SWIDTH 580 0
DWIDTH 29 0
BBX 28 44 1 0
BITMAP
001F8000
003F8000
00318000
00318000
00318000
003F8000
001F8000
00000000
00000000
01FFF000
03FFF800
03FFF800
03FFFC00
03FFFC00
07FFFC00
07FFFC00
07FFFC00
07E0FE00
07E0FE00
0FE0FE00
0FE0FE00
0FE07E00
0FE07F00
0FC07F00
1FC07F00
1FC07F00
1FC07F00
1FC07F80
1FC03F80
3F803F80
3FC07F80
3FFFFF80
3FFFFFC0
3FFFFFC0
7FFFFFC0
7FFFDFC0
7FBFDFC0
7F001FE0
7F001FE0
FF001FE0
FF001FE0
FF000FE0
FE000FF0
FE000FF0
ENDCHAR
STARTCHAR 00E6
ENCODING 230
SWIDTH 840 0
DWIDTH 42 0
BBX 39 35 1 0
BITMAP
01FFFFFFE0
03FFFFFFF0
03FFFFFFF8
03FFFFFFFC
03FFFFFFFC
07FFFFFFFE
07FFFFFFFE
07FFFFFFFE
07E0FF00FE
07E0FF007E
0FE0FF0000
0FE0FF0000
0FE0FF0000
0FE0FF0000
0FC0FFFF80
1FC0FFFF80
1FC0FFFF80
1FC0FFFF80
1FC0FFFF80
1FC0FFFF80
3F80FFFF80
3FC0FF0000
3FFFFF0000
3FFFFF0000
3FFFFF0000
7FFFFF007E
7FFFFF00FE
7FBFFFFFFE
7F00FFFFFE
7F00FFFFFE
FF00FFFFFC
FF00FFFFFC
FF00FFFFF8
FE00FFFFF0
FE00FFFFE0
ENDCHAR
STARTCHAR 00E7
ENCODING 231
SWIDTH 540 0
DWIDTH 27 0
BBX 23 42 2 -7
BITMAP
FFFFF0
FFFFF0
FFFFF8
FFFFFC
FFFFFE
FFFFFE
FFFFFE
FFFFFE
FF01FE
FF00FE
FF0000
FF0000
FF0000
FF0000
FF0000
FF0000
FF0000
FF0000
FF0000
FF0000
FF0000
FF0000
FF0000
FF0000
FF0000
FF00FE
FF01FE
FFFFFE
FFFFFE
FFFFFE
FFFFFE
FFFFFC
FFFFF8
FFFFF0
FFFFF0
001C00
001C00
007800
007800
003800
01F800
03F000
ENDCHAR
STARTCHAR 00E8
ENCODING 232
SWIDTH 540 0
DWIDTH 27 0
BBX 23 42 2 0
BITMAP
3F8000
3FFC00
3FFFE0
0FFFF0
000FF0
000000
000000
FFFFF0
FFFFF0
FFFFF8
FFFFFC
FFFFFC
FFFFFE
FFFFFE
FFFFFE
FF00FE
FF007E
FF0000
FF0000
FF0000
FF0000
FFFF80
FFFF80
FFFF80
FFFF80
FFFF80
FFFF80
FFFF80
FF0000
FF0000
FF0000
FF0000
FF007E
FF00FE
FFFFFE
FFFFFE
FFFFFE
FFFFFC
FFFFFC
FFFFF8
FFFFF0
FFFFF0
ENDCHAR
STARTCHAR 00E9
ENCODING 233
SWIDTH 540 0
DWIDTH 27 0
BBX 23 42 2 0
BITMAP
003FF0
1FFFF0
3FFFC0
3FF800
3F0000
000000
000000
FFFFF0
FFFFF0
FFFFF8
FFFFFC
FFFFFC
FFFFFE
FFFFFE
FFFFFE
FF00FE
FF007E
FF0000
FF0000
FF0000
FF0000
FFFF80
FFFF80
FFFF80
FFFF80
FFFF80
FFFF80
FFFF80
FF0000
FF0000
FF0000
FF0000
FF007E
FF00FE
FFFFFE
FFFFFE
FFFFFE
FFFFFC
FFFFFC
FFFFF8
FFFFF0
FFFFF0
ENDCHAR
STARTCHAR 00EA
ENCODING 234
SWIDTH 540 0
DWIDTH 27 0
BBX 23 43 2 0
BITMAP
1FFF80
3FFFC0
7FFFE0
FFFFF0
FC01F0
F000F0
000000
000000
FFFFF0
FFFFF0
FFFFF8
FFFFFC
FFFFFC
FFFFFE
FFFFFE
FFFFFE
FF00FE
FF007E
FF0000
FF0000
FF0000
FF0000
FFFF80
FFFF80
FFFF80
FFFF80
FFFF80
FFFF80
FFFF80
FF0000
FF0000
FF0000
FF0000
FF007E
FF00FE
FFFFFE
FFFFFE
FFFFFE
FFFFFC
FFFFFC
FFFFF8
FFFFF0
FFFFF0
ENDCHAR
STARTCHAR 00EB
ENCODING 235
SWIDTH 540 0
DWIDTH 27 0
BBX 23 42 2 0
BITMAP
0F8F80
0F8F80
0F8F80
0F8F80
0F8F80
000000
000000
FFFFF0
FFFFF0
FFFFF8
FFFFFC
FFFFFC
FFFFFE
FFFFFE
FFFFFE
FF00FE
FF007E
FF0000
FF0000
FF0000
FF0000
FFFF80
FFFF80
FFFF80
FFFF80
FFFF80
FFFF80
FFFF80
FF0000
FF0000
FF0000
FF0000
FF007E
FF00FE
FFFFFE
FFFFFE
FFFFFE
FFFFFC
FFFFFC
FFFFF8
FFFFF0
FFFFF0
ENDCHAR
STARTCHAR 00EC
ENCODING 236
SWIDTH 220 0
DWIDTH 11 0
BBX 18 42 -3 0
BITMAP
FC0000
FFE000
FFFF00
7FFFC0
003FC0
000000
000000
07F800
07F800
07F800
07F800
07F800
07F800
07F800
07F800
07F800
07F800
07F800
07F800
07F800
07F800
07F800
07F800
07F800
07F800
07F800
07F800
07F800
07F800
07F800
07F800
07F800
07F800
07F800
07F800
07F800
07F800
07F800
07F800
07F800
07F800
07F800
ENDCHAR
STARTCHAR 00ED
ENCODING 237
SWIDTH 220 0
DWIDTH 11 0
BBX 18 42 -3 0
BITMAP
00FFC0
7FFFC0
FFFF00
FFE000
FC0000
000000
000000
07F800
07F800
07F800
07F800
07F800
07F800
07F800
07F800
07F800
07F800
07F800
07F800
07F800
07F800
07F800
07F800
07F800
07F800
07F800
07F800
07F800
07F800
07F800
07F800
07F800
07F800
07F800
07F800
07F800
07F800
07F800
07F800
07F800
07F800
07F800
ENDCHAR
STARTCHAR 00EE
ENCODING 238
SWIDTH 480 0
DWIDTH 24 0
BBX 20 43 2 0
BITMAP
1FFF80
3FFFC0
7FFFE0
FFFFF0
FC01F0
F000F0
000000
000000
01FE00
01FE00
01FE00
01FE00
01FE00
01FE00
01FE00
01FE00
01FE00
01FE00
01FE00
01FE00
01FE00
01FE00
01FE00
01FE00
01FE00
01FE00
01FE00
01FE00
01FE00
01FE00
01FE00
01FE00
01FE00
01FE00
01FE00
01FE00
01FE00
01FE00
01FE00
01FE00
01FE00
01FE00
01FE00
ENDCHAR
STARTCHAR 00EF
ENCODING 239
SWIDTH 220 0
DWIDTH 11 0
BBX 13 42 -1 0
BITMAP
F878
F878
F878
F878
F878
0000
0000
1FE0
1FE0
1FE0
1FE0
1FE0
1FE0
1FE0
1FE0
1FE0
1FE0
1FE0
1FE0
1FE0
1FE0
1FE0
1FE0
1FE0
1FE0
1FE0
1FE0
1FE0
1FE0
1FE0
1FE0
1FE0
1FE0
1FE0
1FE0
1FE0
1FE0
1FE0
1FE0
1FE0
1FE0
1FE0
ENDCHAR
STARTCHAR 00F0
ENCODING 240
SWIDTH 580 0
DWIDTH 29 0
BBX 28 35 -1 0
BITMAP
1FFFFF00
1FFFFF80
1FFFFFC0
1FFFFFE0
1FFFFFE0
1FFFFFF0
1FFFFFF0
1FFFFFF0
1FE00FF0
1FE00FF0
1FE00FF0
1FE00FF0
1FE00FF0
1FE00FF0
1FE00FF0
FFFE0FF0
FFFE0FF0
FFFE0FF0
FFFE0FF0
FFFE0FF0
1FE00FF0
1FE00FF0
1FE00FF0
1FE00FF0
1FE00FF0
1FE00FF0
1FE00FF0
1FFFFFF0
1FFFFFF0
1FFFFFF0
1FFFFFE0
1FFFFFE0
1FFFFFC0
1FFFFF80
1FFFFF00
ENDCHAR
STARTCHAR 00F1
ENCODING 241
SWIDTH 560 0
DWIDTH 28 0
BBX 25 44 2 0
BITMAP
00C00000
03F80000
0FFF0E00
3FFFFE00
3F1FFE00
3E03FC00
3800F000
00000000
00000000
0F007F80
1F007F80
3F807F80
7F807F80
7FC07F80
FFC07F80
FFE07F80
FFE07F80
FFF07F80
FFF07F80
FFF07F80
FFF87F80
FFF87F80
FFFC7F80
FFFC7F80
FFFE7F80
FFFE7F80
FFFFFF80
FF7FFF80
FF3FFF80
FF3FFF80
FF1FFF80
FF1FFF80
FF0FFF80
FF0FFF80
FF07FF80
FF07FF80
FF07FF80
FF03FF80
FF03FF80
FF01FF00
FF01FE00
FF00FC00
FF00FC00
FF007800
ENDCHAR
STARTCHAR 00F2
ENCODING 242
SWIDTH 620 0
DWIDTH 31 0
BBX 27 42 2 0
BITMAP
0FE00000
0FFE0000
0FFFF000
07FFFC00
0003FC00
00000000
00000000
0FFFFE00
1FFFFF00
3FFFFF80
7FFFFFC0
7FFFFFC0
FFFFFFE0
FFFFFFE0
FFFFFFE0
FF001FE0
FF001FE0
FF001FE0
FF001FE0
FF001FE0
FF001FE0
FF001FE0
FF001FE0
FF001FE0
FF001FE0
FF001FE0
FF001FE0
FF001FE0
FF001FE0
FF001FE0
FF001FE0
FF001FE0
FF001FE0
FF001FE0
FFFFFFE0
FFFFFFE0
FFFFFFE0
7FFFFFC0
7FFFFFC0
3FFFFF80
1FFFFF00
0FFFFE00
ENDCHAR
STARTCHAR 00F3
ENCODING 243
SWIDTH 620 0
DWIDTH 31 0
BBX 27 42 2 0
BITMAP
0007FC00
07FFFC00
0FFFF000
0FFE0000
0FC00000
00000000
00000000
0FFFFE00
1FFFFF00
3FFFFF80
7FFFFFC0
7FFFFFC0
FFFFFFE0
FFFFFFE0
FFFFFFE0
FF001FE0
FF001FE0
FF001FE0
FF001FE0
FF001FE0
FF001FE0
FF001FE0
FF001FE0
FF001FE0
FF001FE0
FF001FE0
FF001FE0
FF001FE0
FF001FE0
FF001FE0
FF001FE0
FF001FE0
FF001FE0
FF001FE0
FFFFFFE0
FFFFFFE0
FFFFFFE0
7FFFFFC0
7FFFFFC0
3FFFFF80
1FFFFF00
0FFFFE00
ENDCHAR
STARTCHAR 00F4
ENCODING 244
SWIDTH 620 0
DWIDTH 31 0
BBX 27 43 2 0
BITMAP
01FFF000
03FFFC00
0FFFFE00
1FFFFF00
1F803F00
1F001F00
00000000
00000000
0FFFFE00
1FFFFF00
3FFFFF80
7FFFFFC0
7FFFFFC0
FFFFFFE0
FFFFFFE0
FFFFFFE0
FF001FE0
FF001FE0
FF001FE0
FF001FE0
FF001FE0
FF001FE0
FF001FE0
FF001FE0
FF001FE0
FF001FE0
FF001FE0
FF001FE0
FF001FE0
FF001FE0
FF001FE0
FF001FE0
FF001FE0
FF001FE0
FF001FE0
FFFFFFE0
FFFFFFE0
FFFFFFE0
7FFFFFC0
7FFFFFC0
3FFFFF80
1FFFFF00
0FFFFE00
ENDCHAR
STARTCHAR 00F5
ENCODING 245
SWIDTH 620 0
DWIDTH 31 0
BBX 27 44 2 0
BITMAP
00600000
01FC0000
07FF8700
1FFFFF00
1F8FFF00
1F03FE00
1C007800
00000000
00000000
0FFFFE00
1FFFFF00
3FFFFF80
7FFFFFC0
7FFFFFC0
FFFFFFE0
FFFFFFE0
FFFFFFE0
FF001FE0
FF001FE0
FF001FE0
FF001FE0
FF001FE0
FF001FE0
FF001FE0
FF001FE0
FF001FE0
FF001FE0
FF001FE0
FF001FE0
FF001FE0
FF001FE0
FF001FE0
FF001FE0
FF001FE0
FF001FE0
FF001FE0
FFFFFFE0
FFFFFFE0
FFFFFFE0
7FFFFFC0
7FFFFFC0
3FFFFF80
1FFFFF00
0FFFFE00
ENDCHAR
STARTCHAR 00F6
ENCODING 246
SWIDTH 620 0
DWIDTH 31 0
BBX 27 42 2 0
BITMAP
01F1F000
01F1F000
01F1F000
01F1F000
01F1F000
00000000
00000000
0FFFFE00
1FFFFF00
3FFFFF80
7FFFFFC0
7FFFFFC0
FFFFFFE0
FFFFFFE0
FFFFFFE0
FF001FE0
FF001FE0
FF001FE0
FF001FE0
FF001FE0
FF001FE0
FF001FE0
FF001FE0
FF001FE0
FF001FE0
FF001FE0
FF001FE0
FF001FE0
FF001FE0
FF001FE0
FF001FE0
FF001FE0
FF001FE0
FF001FE0
FFFFFFE0
FFFFFFE0
FFFFFFE0
7FFFFFC0
7FFFFFC0
3FFFFF80
1FFFFF00
0FFFFE00
ENDCHAR
STARTCHAR 00F7
ENCODING 247
SWIDTH 420 0
DWIDTH 21 0
BBX 20 18 1 9
BITMAP
01F000
01F000
01F000
01F000
01F000
000000
000000
FFFFF0
FFFFF0
FFFFF0
FFFFF0
FFFFF0
000000
01F000
01F000
01F000
01F000
01F000
ENDCHAR
STARTCHAR 00F8
ENCODING 248
SWIDTH 620 0
DWIDTH 31 0
BBX 27 43 2 -4
BITMAP
000007C0
00000FC0
00000F80
00001F80
0FFFFF00
1FFFFF00
3FFFFF80
7FFFFFC0
7FFFFFC0
FFFFFFE0
FFFFFFE0
FFFFFFE0
FF01FFE0
FF03FFE0
FF03FFE0
FF03FFE0
FF07FFE0
FF07DFE0
FF0FDFE0
FF0F9FE0
FF1F9FE0
FF1F1FE0
FF3F1FE0
FF3E1FE0
FF7E1FE0
FF7C1FE0
FFFC1FE0
FFF81FE0
FFF81FE0
FFF01FE0
FFF01FE0
FFFFFFE0
FFFFFFE0
FFFFFFE0
7FFFFFC0
7FFFFFC0
3FFFFF80
1FFFFF00
1FFFFE00
3F000000
3E000000
7E000000
7C000000
ENDCHAR
STARTCHAR 00F9
ENCODING 249
SWIDTH 600 0
DWIDTH 30 0
BBX 27 42 2 0
BITMAP
07E00000
07FF0000
07FFF800
03FFFE00
0003FE00
00000000
00000000
FF001FE0
FF001FE0
FF001FE0
FF001FE0
FF001FE0
FF001FE0
FF001FE0
FF001FE0
FF001FE0
FF001FE0
FF001FE0
FF001FE0
FF001FE0
FF001FE0
FF001FE0
FF001FE0
FF001FE0
FF001FE0
FF001FE0
FF001FE0
FF001FE0
FF001FE0
FF001FE0
FF001FE0
FF001FE0
FF001FE0
FF003FE0
FFFFFFE0
FFFFFFE0
FFFFFFE0
7FFFFFC0
7FFFFF80
3FFFFF00
1FFFFF00
0FFFFE00
ENDCHAR
STARTCHAR 00FA
ENCODING 250
SWIDTH 600 0
DWIDTH 30 0
BBX 27 42 2 0
BITMAP
0007FE00
03FFFE00
07FFF800
07FF0000
07E00000
00000000
00000000
FF001FE0
FF001FE0
FF001FE0
FF001FE0
FF001FE0
FF001FE0
FF001FE0
FF001FE0
FF001FE0
FF001FE0
FF001FE0
FF001FE0
FF001FE0
FF001FE0
FF001FE0
FF001FE0
FF001FE0
FF001FE0
FF001FE0
FF001FE0
FF001FE0
FF001FE0
FF001FE0
FF001FE0
FF001FE0
FF001FE0
FF003FE0
FFFFFFE0
FFFFFFE0
FFFFFFE0
7FFFFFC0
7FFFFF80
3FFFFF00
1FFFFF00
0FFFFE00
ENDCHAR
STARTCHAR 00FB
ENCODING 251
SWIDTH 600 0
DWIDTH 30 0
BBX 27 43 2 0
BITMAP
03FFF000
07FFF800
0FFFFC00
1FFFFE00
1F803F00
1E001F00
00000000
00000000
FF001FE0
FF001FE0
FF001FE0
FF001FE0
FF001FE0
FF001FE0
FF001FE0
FF001FE0
FF001FE0
FF001FE0
FF001FE0
FF001FE0
FF001FE0
FF001FE0
FF001FE0
FF001FE0
FF001FE0
FF001FE0
FF001FE0
FF001FE0
FF001FE0
FF001FE0
FF001FE0
FF001FE0
FF001FE0
FF001FE0
FF003FE0
FFFFFFE0
FFFFFFE0
FFFFFFE0
7FFFFFC0
7FFFFF80
3FFFFF00
1FFFFF00
0FFFFE00
ENDCHAR
STARTCHAR 00FC
ENCODING 252
SWIDTH 600 0
DWIDTH 30 0
BBX 27 42 2 0
BITMAP
01F1F000
01F1F000
01F1F000
01F1F000
01F1F000
00000000
00000000
FF001FE0
FF001FE0
FF001FE0
FF001FE0
FF001FE0
FF001FE0
FF001FE0
FF001FE0
FF001FE0
FF001FE0
FF001FE0
FF001FE0
FF001FE0
FF001FE0
FF001FE0
FF001FE0
FF001FE0
FF001FE0
FF001FE0
FF001FE0
FF001FE0
FF001FE0
FF001FE0
FF001FE0
FF001FE0
FF001FE0
FF003FE0
FFFFFFE0
FFFFFFE0
FFFFFFE0
7FFFFFC0
7FFFFF80
3FFFFF00
1FFFFF00
0FFFFE00
ENDCHAR
STARTCHAR 00FD
ENCODING 253
SWIDTH 460 0
DWIDTH 23 0
BBX 23 42 0 0
BITMAP
001FF8
0FFFF8
1FFFE0
1FFC00
1F8000
000000
000000
FE00FE
FF00FE
FF01FE
FF01FE
7F81FE
7F83FE
7FC3FC
3FC3FC
3FC7F8
1FE7F8
1FE7F0
0FEFF0
0FFFF0
07FFE0
07FFE0
07FFC0
03FFC0
03FF80
01FF80
01FF00
00FF00
00FF00
00FF00
00FF00
00FF00
00FF00
00FF00
00FF00
00FF00
00FF00
00FF00
00FF00
00FF00
00FF00
00FF00
ENDCHAR
STARTCHAR 00FE
ENCODING 254
SWIDTH 540 0
DWIDTH 27 0
BBX 23 41 2 0
BITMAP
FF0000
FF0000
FF0000
FF0000
FF0000
FF0000
FFFFE0
FFFFF0
FFFFF8
FFFFFC
FFFFFC
FFFFFE
FFFFFE
FFFFFE
FF01FE
FF01FE
FF01FE
FF01FE
FF01FE
FF01FE
FF01FE
FF03FE
FFFFFE
FFFFFE
FFFFFE
FFFFFC
FFFFF8
FFFFF8
FFFFF0
FFFFE0
FF0000
FF0000
FF0000
FF0000
FF0000
FF0000
FF0000
FF0000
FF0000
FF0000
FF0000
ENDCHAR
STARTCHAR 00FF
ENCODING 255
SWIDTH 460 0
DWIDTH 23 0
BBX 23 42 0 0
BITMAP
07C3C0
07C3C0
07C3C0
07C3C0
07C3C0
000000
000000
FE00FE
FF00FE
FF01FE
FF01FE
7F81FE
7F83FE
7FC3FC
3FC3FC
3FC7F8
1FE7F8
1FE7F0
0FEFF0
0FFFF0
07FFE0
07FFE0
07FFC0
03FFC0
03FF80
01FF80
01FF00
00FF00
00FF00
00FF00
00FF00
00FF00
00FF00
00FF00
00FF00
00FF00
00FF00
00FF00
00FF00
00FF00
00FF00
00FF00
ENDCHAR
STARTCHAR 0100
ENCODING 256
SWIDTH 580 0
DWIDTH 29 0
BBX 28 42 1 0
BITMAP
0FFFFE00
0FFFFE00
0FFFFE00
0FFFFE00
0FFFFE00
00000000
00000000
01FFF000
03FFF800
03FFF800
03FFFC00
03FFFC00
07FFFC00
07FFFC00
07FFFC00
07E0FE00
07E0FE00
0FE0FE00
0FE0FE00
0FE07E00
0FE07F00
0FC07F00
1FC07F00
1FC07F00
1FC07F00
1FC07F80
1FC03F80
3F803F80
3FC07F80
3FFFFF80
3FFFFFC0
3FFFFFC0
7FFFFFC0
7FFFDFC0
7FBFDFC0
7F001FE0
7F001FE0
FF001FE0
FF001FE0
FF000FE0
FE000FF0
FE000FF0
ENDCHAR
STARTCHAR 0101
ENCODING 257
SWIDTH 580 0
DWIDTH 29 0
BBX 28 42 1 0
BITMAP
0FFFFE00
0FFFFE00
0FFFFE00
0FFFFE00
0FFFFE00
00000000
00000000
01FFF000
03FFF800
03FFF800
03FFFC00
03FFFC00
07FFFC00
07FFFC00
07FFFC00
07E0FE00
07E0FE00
0FE0FE00
0FE0FE00
0FE07E00
0FE07F00
0FC07F00
1FC07F00
1FC07F00
1FC07F00
1FC07F80
1FC03F80
3F803F80
3FC07F80
3FFFFF80
3FFFFFC0
3FFFFFC0
7FFFFFC0
7FFFDFC0
7FBFDFC0
7F001FE0
7F001FE0
FF001FE0
FF001FE0
FF000FE0
FE000FF0
FE000FF0
ENDCHAR
STARTCHAR 0102
ENCODING 258
SWIDTH 580 0
DWIDTH 29 0
BBX 28 43 1 0
BITMAP
1F001F00
1F803F00
1FFFFF00
0FFFFC00
07FFF800
03FFF000
00000000
00000000
01FFF000
03FFF800
03FFF800
03FFFC00
03FFFC00
07FFFC00
07FFFC00
07FFFC00
07E0FE00
07E0FE00
0FE0FE00
0FE0FE00
0FE07E00
0FE07F00
0FC07F00
1FC07F00
1FC07F00
1FC07F00
1FC07F80
1FC03F80
3F803F80
3FC07F80
3FFFFF80
3FFFFFC0
3FFFFFC0
7FFFFFC0
7FFFDFC0
7FBFDFC0
7F001FE0
7F001FE0
FF001FE0
FF001FE0
FF000FE0
FE000FF0
FE000FF0
ENDCHAR
STARTCHAR 0103
ENCODING 259
SWIDTH 580 0
DWIDTH 29 0
BBX 28 43 1 0
BITMAP
1F001F00
1F803F00
1FFFFF00
0FFFFC00
07FFF800
03FFF000
00000000
00000000
01FFF000
03FFF800
03FFF800
03FFFC00
03FFFC00
07FFFC00
07FFFC00
07FFFC00
07E0FE00
07E0FE00
0FE0FE00
0FE0FE00
0FE07E00
0FE07F00
0FC07F00
1FC07F00
1FC07F00
1FC07F00
1FC07F80
1FC03F80
3F803F80
3FC07F80
3FFFFF80
3FFFFFC0
3FFFFFC0
7FFFFFC0
7FFFDFC0
7FBFDFC0
7F001FE0
7F001FE0
FF001FE0
FF001FE0
FF000FE0
FE000FF0
FE000FF0
ENDCHAR
STARTCHAR 0104
ENCODING 260
SWIDTH 580 0
DWIDTH 29 0
BBX 31 43 1 -8
BITMAP
01FFF000
03FFF800
03FFF800
03FFFC00
03FFFC00
07FFFC00
07FFFC00
07FFFC00
07E0FE00
07E0FE00
0FE0FE00
0FE0FE00
0FE07E00
0FE07F00
0FC07F00
1FC07F00
1FC07F00
1FC07F00
1FC07F80
1FC03F80
3F803F80
3FC07F80
3FFFFF80
3FFFFFC0
3FFFFFC0
7FFFFFC0
7FFFDFC0
7FBFDFC0
7F001FE0
7F001FE0
FF001FE0
FF001FE0
FF000FE0
FE000FF0
FE000FF0
000000E0
000001E0
000001C0
000003C0
000003CE
000003FE
000003FC
000003FC
ENDCHAR
STARTCHAR 0105
ENCODING 261
SWIDTH 580 0
DWIDTH 29 0
BBX 31 43 1 -8
BITMAP
01FFF000
03FFF800
03FFF800
03FFFC00
03FFFC00
07FFFC00
07FFFC00
07FFFC00
07E0FE00
07E0FE00
0FE0FE00
0FE0FE00
0FE07E00
0FE07F00
0FC07F00
1FC07F00
1FC07F00
1FC07F00
1FC07F80
1FC03F80
3F803F80
3FC07F80
3FFFFF80
3FFFFFC0
3FFFFFC0
7FFFFFC0
7FFFDFC0
7FBFDFC0
7F001FE0
7F001FE0
FF001FE0
FF001FE0
FF000FE0
FE000FF0
FE000FF0
000000E0
000001E0
000001C0
000003C0
000003CE
000003FE
000003FC
000003FC
ENDCHAR
STARTCHAR 0106
ENCODING 262
SWIDTH 540 0
DWIDTH 27 0
BBX 23 42 2 0
BITMAP
001FF8
0FFFF8
1FFFE0
1FFC00
1F8000
000000
000000
FFFFF0
FFFFF0
FFFFF8
FFFFFC
FFFFFE
FFFFFE
FFFFFE
FFFFFE
FF01FE
FF00FE
FF0000
FF0000
FF0000
FF0000
FF0000
FF0000
FF0000
FF0000
FF0000
FF0000
FF0000
FF0000
FF0000
FF0000
FF0000
FF00FE
FF01FE
FFFFFE
FFFFFE
FFFFFE
FFFFFE
FFFFFC
FFFFF8
FFFFF0
FFFFF0
ENDCHAR
STARTCHAR 0107
ENCODING 263
SWIDTH 540 0
DWIDTH 27 0
BBX 23 42 2 0
BITMAP
001FF8
0FFFF8
1FFFE0
1FFC00
1F8000
000000
000000
FFFFF0
FFFFF0
FFFFF8
FFFFFC
FFFFFE
FFFFFE
FFFFFE
FFFFFE
FF01FE
FF00FE
FF0000
FF0000
FF0000
FF0000
FF0000
FF0000
FF0000
FF0000
FF0000
FF0000
FF0000
FF0000
FF0000
FF0000
FF0000
FF00FE
FF01FE
FFFFFE
FFFFFE
FFFFFE
FFFFFE
FFFFFC
FFFFF8
FFFFF0
FFFFF0
ENDCHAR
STARTCHAR 0108
ENCODING 264
SWIDTH 540 0
DWIDTH 27 0
BBX 23 43 2 0
BITMAP
1FFF80
3FFFC0
7FFFE0
FFFFF0
FC01F0
F000F0
000000
000000
FFFFF0
FFFFF0
FFFFF8
FFFFFC
FFFFFE
FFFFFE
FFFFFE
FFFFFE
FF01FE
FF00FE
FF0000
FF0000
FF0000
FF0000
FF0000
FF0000
FF0000
FF0000
FF0000
FF0000
FF0000
FF0000
FF0000
FF0000
FF0000
FF00FE
FF01FE
FFFFFE
FFFFFE
FFFFFE
FFFFFE
FFFFFC
FFFFF8
FFFFF0
FFFFF0
ENDCHAR
STARTCHAR 0109
ENCODING 265
SWIDTH 540 0
DWIDTH 27 0
BBX 23 43 2 0
BITMAP
1FFF80
3FFFC0
7FFFE0
FFFFF0
FC01F0
F000F0
000000
000000
FFFFF0
FFFFF0
FFFFF8
FFFFFC
FFFFFE
FFFFFE
FFFFFE
FFFFFE
FF01FE
FF00FE
FF0000
FF0000
FF0000
FF0000
FF0000
FF0000
FF0000
FF0000
FF0000
FF0000
FF0000
FF0000
FF0000
FF0000
FF0000
FF00FE
FF01FE
FFFFFE
FFFFFE
FFFFFE
FFFFFE
FFFFFC
FFFFF8
FFFFF0
FFFFF0
ENDCHAR
STARTCHAR 010A
ENCODING 266
SWIDTH 540 0
DWIDTH 27 0
BBX 23 43 2 0
BITMAP
003C00
007E00
007E00
007E00
007E00
007C00
000000
000000
FFFFF0
FFFFF0
FFFFF8
FFFFFC
FFFFFE
FFFFFE
FFFFFE
FFFFFE
FF01FE
FF00FE
FF0000
FF0000
FF0000
FF0000
FF0000
FF0000
FF0000
FF0000
FF0000
FF0000
FF0000
FF0000
FF0000
FF0000
FF0000
FF00FE
FF01FE
FFFFFE
FFFFFE
FFFFFE
FFFFFE
FFFFFC
FFFFF8
FFFFF0
FFFFF0
ENDCHAR
STARTCHAR 010B
ENCODING 267
SWIDTH 540 0
DWIDTH 27 0
BBX 23 43 2 0
BITMAP
003C00
007E00
007E00
007E00
007E00
007C00
000000
000000
FFFFF0
FFFFF0
FFFFF8
FFFFFC
FFFFFE
FFFFFE
FFFFFE
FFFFFE
FF01FE
FF00FE
FF0000
FF0000
FF0000
FF0000
FF0000
FF0000
FF0000
FF0000
FF0000
FF0000
FF0000
FF0000
FF0000
FF0000
FF0000
FF00FE
FF01FE
FFFFFE
FFFFFE
FFFFFE
FFFFFE
FFFFFC
FFFFF8
FFFFF0
FFFFF0
ENDCHAR
STARTCHAR 010C
ENCODING 268
SWIDTH 540 0
DWIDTH 27 0
BBX 23 43 2 0
BITMAP
0E0180
0F0780
0F8F80
07FF00
03FE00
01FC00
000000
000000
FFFFF0
FFFFF0
FFFFF8
FFFFFC
FFFFFE
FFFFFE
FFFFFE
FFFFFE
FF01FE
FF00FE
FF0000
FF0000
FF0000
FF0000
FF0000
FF0000
FF0000
FF0000
FF0000
FF0000
FF0000
FF0000
FF0000
FF0000
FF0000
FF00FE
FF01FE
FFFFFE
FFFFFE
FFFFFE
FFFFFE
FFFFFC
FFFFF8
FFFFF0
FFFFF0
ENDCHAR
STARTCHAR 010D
ENCODING 269
SWIDTH 540 0
DWIDTH 27 0
BBX 23 43 2 0
BITMAP
0E0180
0F0780
0F8F80
07FF00
03FE00
01FC00
000000
000000
FFFFF0
FFFFF0
FFFFF8
FFFFFC
FFFFFE
FFFFFE
FFFFFE
FFFFFE
FF01FE
FF00FE
FF0000
FF0000
FF0000
FF0000
FF0000
FF0000
FF0000
FF0000
FF0000
FF0000
FF0000
FF0000
FF0000
FF0000
FF0000
FF00FE
FF01FE
FFFFFE
FFFFFE
FFFFFE
FFFFFE
FFFFFC
FFFFF8
FFFFF0
FFFFF0
ENDCHAR
STARTCHAR 010E
ENCODING 270
SWIDTH 580 0
DWIDTH 29 0
BBX 25 43 2 0
BITMAP
0380E000
03C1E000
03E3E000
01FFC000
00FF8000
007F0000
00000000
00000000
FFFFF800
FFFFFC00
FFFFFE00
FFFFFF00
FFFFFF00
FFFFFF80
FFFFFF80
FFFFFF80
FF007F80
FF007F80
FF007F80
FF007F80
FF007F80
FF007F80
FF007F80
FF007F80
FF007F80
FF007F80
FF007F80
FF007F80
FF007F80
FF007F80
FF007F80
FF007F80
FF007F80
FF007F80
FF007F80
FFFFFF80
FFFFFF80
FFFFFF80
FFFFFF00
FFFFFF00
FFFFFE00
FFFFFC00
FFFFF800
ENDCHAR
STARTCHAR 010F
ENCODING 271
SWIDTH 760 0
DWIDTH 38 0
BBX 36 35 2 0
BITMAP
FFFFF803E0
FFFFFC03E0
FFFFFE03F0
FFFFFF03F0
FFFFFF03F0
FFFFFF83F0
FFFFFF83E0
FFFFFF87E0
FF007F87C0
FF007F8F80
FF007F9F80
FF007F9F00
FF007F8000
FF007F8000
FF007F8000
FF007F8000
FF007F8000
FF007F8000
FF007F8000
FF007F8000
FF007F8000
FF007F8000
FF007F8000
FF007F8000
FF007F8000
FF007F8000
FF007F8000
FFFFFF8000
FFFFFF8000
FFFFFF8000
FFFFFF0000
FFFFFF0000
FFFFFE0000
FFFFFC0000
FFFFF80000
ENDCHAR
STARTCHAR 0110
ENCODING 272
SWIDTH 580 0
DWIDTH 29 0
BBX 28 35 -1 0
BITMAP
1FFFFF00
1FFFFF80
1FFFFFC0
1FFFFFE0
1FFFFFE0
1FFFFFF0
1FFFFFF0
1FFFFFF0
1FE00FF0
1FE00FF0
1FE00FF0
1FE00FF0
1FE00FF0
1FE00FF0
1FE00FF0
FFFE0FF0
FFFE0FF0
FFFE0FF0
FFFE0FF0
FFFE0FF0
1FE00FF0
1FE00FF0
1FE00FF0
1FE00FF0
1FE00FF0
1FE00FF0
1FE00FF0
1FFFFFF0
1FFFFFF0
1FFFFFF0
1FFFFFE0
1FFFFFE0
1FFFFFC0
1FFFFF80
1FFFFF00
ENDCHAR
STARTCHAR 0111
ENCODING 273
SWIDTH 580 0
DWIDTH 29 0
BBX 28 35 -1 0
BITMAP
1FFFFF00
1FFFFF80
1FFFFFC0
1FFFFFE0
1FFFFFE0
1FFFFFF0
1FFFFFF0
1FFFFFF0
1FE00FF0
1FE00FF0
1FE00FF0
1FE00FF0
1FE00FF0
1FE00FF0
1FE00FF0
FFFE0FF0
FFFE0FF0
FFFE0FF0
FFFE0FF0
FFFE0FF0
1FE00FF0
1FE00FF0
1FE00FF0
1FE00FF0
1FE00FF0
1FE00FF0
1FE00FF0
1FFFFFF0
1FFFFFF0
1FFFFFF0
1FFFFFE0
1FFFFFE0
1FFFFFC0
1FFFFF80
1FFFFF00
ENDCHAR
STARTCHAR 0112
ENCODING 274
SWIDTH 540 0
DWIDTH 27 0
BBX 23 42 2 0
BITMAP
FFFFF0
FFFFF0
FFFFF0
FFFFF0
FFFFF0
000000
000000
FFFFF0
FFFFF0
FFFFF8
FFFFFC
FFFFFC
FFFFFE
FFFFFE
FFFFFE
FF00FE
FF007E
FF0000
FF0000
FF0000
FF0000
FFFF80
FFFF80
FFFF80
FFFF80
FFFF80
FFFF80
FFFF80
FF0000
FF0000
FF0000
FF0000
FF007E
FF00FE
FFFFFE
FFFFFE
FFFFFE
FFFFFC
FFFFFC
FFFFF8
FFFFF0
FFFFF0
ENDCHAR
STARTCHAR 0113
ENCODING 275
SWIDTH 540 0
DWIDTH 27 0
BBX 23 42 2 0
BITMAP
FFFFF0
FFFFF0
FFFFF0
FFFFF0
FFFFF0
000000
000000
FFFFF0
FFFFF0
FFFFF8
FFFFFC
FFFFFC
FFFFFE
FFFFFE
FFFFFE
FF00FE
FF007E
FF0000
FF0000
FF0000
FF0000
FFFF80
FFFF80
FFFF80
FFFF80
FFFF80
FFFF80
FFFF80
FF0000
FF0000
FF0000
FF0000
FF007E
FF00FE
FFFFFE
FFFFFE
FFFFFE
FFFFFC
FFFFFC
FFFFF8
FFFFF0
FFFFF0
ENDCHAR
STARTCHAR 0116
ENCODING 278
SWIDTH 540 0
DWIDTH 27 0
BBX 23 43 2 0
BITMAP
007800
00FC00
00FC00
00FC00
00FC00
00F800
000000
000000
FFFFF0
FFFFF0
FFFFF8
FFFFFC
FFFFFC
FFFFFE
FFFFFE
FFFFFE
FF00FE
FF007E
FF0000
FF0000
FF0000
FF0000
FFFF80
FFFF80
FFFF80
FFFF80
FFFF80
FFFF80
FFFF80
FF0000
FF0000
FF0000
FF0000
FF007E
FF00FE
FFFFFE
FFFFFE
FFFFFE
FFFFFC
FFFFFC
FFFFF8
FFFFF0
FFFFF0
ENDCHAR
STARTCHAR 0117
ENCODING 279
SWIDTH 540 0
DWIDTH 27 0
BBX 23 43 2 0
BITMAP
007800
00FC00
00FC00
00FC00
00FC00
00F800
000000
000000
FFFFF0
FFFFF0
FFFFF8
FFFFFC
FFFFFC
FFFFFE
FFFFFE
FFFFFE
FF00FE
FF007E
FF0000
FF0000
FF0000
FF0000
FFFF80
FFFF80
FFFF80
FFFF80
FFFF80
FFFF80
FFFF80
FF0000
FF0000
FF0000
FF0000
FF007E
FF00FE
FFFFFE
FFFFFE
FFFFFE
FFFFFC
FFFFFC
FFFFF8
FFFFF0
FFFFF0
ENDCHAR
STARTCHAR 0118
ENCODING 280
SWIDTH 540 0
DWIDTH 27 0
BBX 23 43 2 -8
BITMAP
FFFFF0
FFFFF0
FFFFF8
FFFFFC
FFFFFC
FFFFFE
FFFFFE
FFFFFE
FF00FE
FF007E
FF0000
FF0000
FF0000
FF0000
FFFF80
FFFF80
FFFF80
FFFF80
FFFF80
FFFF80
FFFF80
FF0000
FF0000
FF0000
FF0000
FF007E
FF00FE
FFFFFE
FFFFFE
FFFFFE
FFFFFC
FFFFFC
FFFFF8
FFFFF0
FFFFF0
007000
00F000
00E000
01C000
01CE00
01FE00
01FE00
01FC00
ENDCHAR
STARTCHAR 0119
ENCODING 281
SWIDTH 540 0
DWIDTH 27 0
BBX 23 43 2 -8
BITMAP
FFFFF0
FFFFF0
FFFFF8
FFFFFC
FFFFFC
FFFFFE
FFFFFE
FFFFFE
FF00FE
FF007E
FF0000
FF0000
FF0000
FF0000
FFFF80
FFFF80
FFFF80
FFFF80
FFFF80
FFFF80
FFFF80
FF0000
FF0000
FF0000
FF0000
FF007E
FF00FE
FFFFFE
FFFFFE
FFFFFE
FFFFFC
FFFFFC
FFFFF8
FFFFF0
FFFFF0
007000
00F000
00E000
01C000
01CE00
01FE00
01FE00
01FC00
ENDCHAR
STARTCHAR 011C
ENCODING 284
SWIDTH 540 0
DWIDTH 27 0
BBX 24 43 2 0
BITMAP
07FFC0
0FFFF0
3FFFF8
7FFFFC
7E00FC
7C007C
000000
000000
FFFFF0
FFFFF8
FFFFFC
FFFFFC
FFFFFE
FFFFFF
FFFFFF
FFFFFF
FF007F
FF007F
FF0000
FF0000
FF0000
FF0000
FF0000
FF0FFF
FF0FFF
FF0FFF
FF0FFF
FF0FFF
FF0FFF
FF0FFF
FF0FFF
FF00FF
FF00FF
FF00FF
FF00FF
FFFFFF
FFFFFF
FFFFFF
FFFFFF
FFFFFF
FFFFFF
FFFFFF
FFFFCF
ENDCHAR
STARTCHAR 011D
ENCODING 285
SWIDTH 540 0
DWIDTH 27 0
BBX 24 43 2 0
BITMAP
07FFC0
0FFFF0
3FFFF8
7FFFFC
7E00FC
7C007C
000000
000000
FFFFF0
FFFFF8
FFFFFC
FFFFFC
FFFFFE
FFFFFF
FFFFFF
FFFFFF
FF007F
FF007F
FF0000
FF0000
FF0000
FF0000
FF0000
FF0FFF
FF0FFF
FF0FFF
FF0FFF
FF0FFF
FF0FFF
FF0FFF
FF0FFF
FF00FF
FF00FF
FF00FF
FF00FF
FFFFFF
FFFFFF
FFFFFF
FFFFFF
FFFFFF
FFFFFF
FFFFFF
FFFFCF
ENDCHAR
STARTCHAR 011E
ENCODING 286
SWIDTH 540 0
DWIDTH 27 0
BBX 24 43 2 0
BITMAP
7C007C
7E00FC
7FFFFC
3FFFF8
0FFFF0
07FFC0
000000
000000
FFFFF0
FFFFF8
FFFFFC
FFFFFC
FFFFFE
FFFFFF
FFFFFF
FFFFFF
FF007F
FF007F
FF0000
FF0000
FF0000
FF0000
FF0000
FF0FFF
FF0FFF
FF0FFF
FF0FFF
FF0FFF
FF0FFF
FF0FFF
FF0FFF
FF00FF
FF00FF
FF00FF
FF00FF
FFFFFF
FFFFFF
FFFFFF
FFFFFF
FFFFFF
FFFFFF
FFFFFF
FFFFCF
ENDCHAR
STARTCHAR 011F
ENCODING 287
SWIDTH 540 0
DWIDTH 27 0
BBX 24 43 2 0
BITMAP
7C007C
7E00FC
7FFFFC
3FFFF8
0FFFF0
07FFC0
000000
000000
FFFFF0
FFFFF8
FFFFFC
FFFFFC
FFFFFE
FFFFFF
FFFFFF
FFFFFF
FF007F
FF007F
FF0000
FF0000
FF0000
FF0000
FF0000
FF0FFF
FF0FFF
FF0FFF
FF0FFF
FF0FFF
FF0FFF
FF0FFF
FF0FFF
FF00FF
FF00FF
FF00FF
FF00FF
FFFFFF
FFFFFF
FFFFFF
FFFFFF
FFFFFF
FFFFFF
FFFFFF
FFFFCF
ENDCHAR
STARTCHAR 0120
ENCODING 288
SWIDTH 540 0
DWIDTH 27 0
BBX 24 43 2 0
BITMAP
003C00
007E00
007E00
007E00
007E00
003C00
000000
000000
FFFFF0
FFFFF8
FFFFFC
FFFFFC
FFFFFE
FFFFFF
FFFFFF
FFFFFF
FF007F
FF007F
FF0000
FF0000
FF0000
FF0000
FF0000
FF0FFF
FF0FFF
FF0FFF
FF0FFF
FF0FFF
FF0FFF
FF0FFF
FF0FFF
FF00FF
FF00FF
FF00FF
FF00FF
FFFFFF
FFFFFF
FFFFFF
FFFFFF
FFFFFF
FFFFFF
FFFFFF
FFFFCF
ENDCHAR
STARTCHAR 0121
ENCODING 289
SWIDTH 540 0
DWIDTH 27 0
BBX 24 43 2 0
BITMAP
003C00
007E00
007E00
007E00
007E00
003C00
000000
000000
FFFFF0
FFFFF8
FFFFFC
FFFFFC
FFFFFE
FFFFFF
FFFFFF
FFFFFF
FF007F
FF007F
FF0000
FF0000
FF0000
FF0000
FF0000
FF0FFF
FF0FFF
FF0FFF
FF0FFF
FF0FFF
FF0FFF
FF0FFF
FF0FFF
FF00FF
FF00FF
FF00FF
FF00FF
FFFFFF
FFFFFF
FFFFFF
FFFFFF
FFFFFF
FFFFFF
FFFFFF
FFFFCF
ENDCHAR
STARTCHAR 0122
ENCODING 290
SWIDTH 540 0
DWIDTH 27 0
BBX 24 43 2 -8
BITMAP
FFFFF0
FFFFF8
FFFFFC
FFFFFC
FFFFFE
FFFFFF
FFFFFF
FFFFFF
FF007F
FF007F
FF0000
FF0000
FF0000
FF0000
FF0000
FF0FFF
FF0FFF
FF0FFF
FF0FFF
FF0FFF
FF0FFF
FF0FFF
FF0FFF
FF00FF
FF00FF
FF00FF
FF00FF
FFFFFF
FFFFFF
FFFFFF
FFFFFF
FFFFFF
FFFFFF
FFFFFF
FFFFCF
000000
003800
003C00
003C00
003C00
003800
007000
00F000
ENDCHAR
STARTCHAR 0123
ENCODING 291
SWIDTH 540 0
DWIDTH 27 0
BBX 24 43 2 -8
BITMAP
FFFFF0
FFFFF8
FFFFFC
FFFFFC
FFFFFE
FFFFFF
FFFFFF
FFFFFF
FF007F
FF007F
FF0000
FF0000
FF0000
FF0000
FF0000
FF0FFF
FF0FFF
FF0FFF
FF0FFF
FF0FFF
FF0FFF
FF0FFF
FF0FFF
FF00FF
FF00FF
FF00FF
FF00FF
FFFFFF
FFFFFF
FFFFFF
FFFFFF
FFFFFF
FFFFFF
FFFFFF
FFFFCF
000000
003800
003C00
003C00
003C00
003800
007000
00F000
ENDCHAR
STARTCHAR 0124
ENCODING 292
SWIDTH 580 0
DWIDTH 29 0
BBX 25 43 2 0
BITMAP
03FFE000
07FFF800
1FFFFC00
3FFFFE00
3F007E00
3E003E00
00000000
00000000
FF007F80
FF007F80
FF007F80
FF007F80
FF007F80
FF007F80
FF007F80
FF007F80
FF007F80
FF007F80
FF007F80
FF007F80
FF80FF80
FFFFFF80
FFFFFF80
FFFFFF80
FFFFFF80
FFFFFF80
FFFFFF80
FFFFFF80
FFFFFF80
FF007F80
FF007F80
FF007F80
FF007F80
FF007F80
FF007F80
FF007F80
FF007F80
FF007F80
FF007F80
FF007F80
FF007F80
FF007F80
FF007F80
ENDCHAR
STARTCHAR 0125
ENCODING 293
SWIDTH 580 0
DWIDTH 29 0
BBX 25 43 2 0
BITMAP
03FFE000
07FFF800
1FFFFC00
3FFFFE00
3F007E00
3E003E00
00000000
00000000
FF007F80
FF007F80
FF007F80
FF007F80
FF007F80
FF007F80
FF007F80
FF007F80
FF007F80
FF007F80
FF007F80
FF007F80
FF80FF80
FFFFFF80
FFFFFF80
FFFFFF80
FFFFFF80
FFFFFF80
FFFFFF80
FFFFFF80
FFFFFF80
FF007F80
FF007F80
FF007F80
FF007F80
FF007F80
FF007F80
FF007F80
FF007F80
FF007F80
FF007F80
FF007F80
FF007F80
FF007F80
FF007F80
ENDCHAR
STARTCHAR 0126
ENCODING 294
SWIDTH 580 0
DWIDTH 29 0
BBX 33 35 -2 0
BITMAP
0FF007F800
0FF007F800
0FF007F800
FFFFFFFF80
FFFFFFFF80
FFFFFFFF80
FFFFFFFF80
FFFFFFFF80
FFFFFFFF80
0FF007F800
0FF007F800
0FF007F800
0FF80FF800
0FFFFFF800
0FFFFFF800
0FFFFFF800
0FFFFFF800
0FFFFFF800
0FFFFFF800
0FFFFFF800
0FFFFFF800
0FF007F800
0FF007F800
0FF007F800
0FF007F800
0FF007F800
0FF007F800
0FF007F800
0FF007F800
0FF007F800
0FF007F800
0FF007F800
0FF007F800
0FF007F800
0FF007F800
ENDCHAR
STARTCHAR 0127
ENCODING 295
SWIDTH 580 0
DWIDTH 29 0
BBX 33 35 -2 0
BITMAP
0FF007F800
0FF007F800
0FF007F800
FFFFFFFF80
FFFFFFFF80
FFFFFFFF80
FFFFFFFF80
FFFFFFFF80
FFFFFFFF80
0FF007F800
0FF007F800
0FF007F800
0FF80FF800
0FFFFFF800
0FFFFFF800
0FFFFFF800
0FFFFFF800
0FFFFFF800
0FFFFFF800
0FFFFFF800
0FFFFFF800
0FF007F800
0FF007F800
0FF007F800
0FF007F800
0FF007F800
0FF007F800
0FF007F800
0FF007F800
0FF007F800
0FF007F800
0FF007F800
0FF007F800
0FF007F800
0FF007F800
ENDCHAR
STARTCHAR 0128
ENCODING 296
SWIDTH 220 0
DWIDTH 11 0
BBX 20 44 -4 0
BITMAP
020000
0FC000
3FF870
FFFFF0
F8FFF0
F01FE0
C00380
000000
000000
03FC00
03FC00
03FC00
03FC00
03FC00
03FC00
03FC00
03FC00
03FC00
03FC00
03FC00
03FC00
03FC00
03FC00
03FC00
03FC00
03FC00
03FC00
03FC00
03FC00
03FC00
03FC00
03FC00
03FC00
03FC00
03FC00
03FC00
03FC00
03FC00
03FC00
03FC00
03FC00
03FC00
03FC00
03FC00
ENDCHAR
STARTCHAR 0129
ENCODING 297
SWIDTH 220 0
DWIDTH 11 0
BBX 20 44 -4 0
BITMAP
020000
0FC000
3FF870
FFFFF0
FCFFF0
F01FE0
C00380
000000
000000
03FC00
03FC00
03FC00
03FC00
03FC00
03FC00
03FC00
03FC00
03FC00
03FC00
03FC00
03FC00
03FC00
03FC00
03FC00
03FC00
03FC00
03FC00
03FC00
03FC00
03FC00
03FC00
03FC00
03FC00
03FC00
03FC00
03FC00
03FC00
03FC00
03FC00
03FC00
03FC00
03FC00
03FC00
03FC00
ENDCHAR
STARTCHAR 012A
ENCODING 298
SWIDTH 220 0
DWIDTH 11 0
BBX 20 42 -4 0
BITMAP
FFFFF0
FFFFF0
FFFFF0
FFFFF0
FFFFF0
000000
000000
03FC00
03FC00
03FC00
03FC00
03FC00
03FC00
03FC00
03FC00
03FC00
03FC00
03FC00
03FC00
03FC00
03FC00
03FC00
03FC00
03FC00
03FC00
03FC00
03FC00
03FC00
03FC00
03FC00
03FC00
03FC00
03FC00
03FC00
03FC00
03FC00
03FC00
03FC00
03FC00
03FC00
03FC00
03FC00
ENDCHAR
STARTCHAR 012B
ENCODING 299
SWIDTH 220 0
DWIDTH 11 0
BBX 20 42 -4 0
BITMAP
FFFFF0
FFFFF0
FFFFF0
FFFFF0
FFFFF0
000000
000000
03FC00
03FC00
03FC00
03FC00
03FC00
03FC00
03FC00
03FC00
03FC00
03FC00
03FC00
03FC00
03FC00
03FC00
03FC00
03FC00
03FC00
03FC00
03FC00
03FC00
03FC00
03FC00
03FC00
03FC00
03FC00
03FC00
03FC00
03FC00
03FC00
03FC00
03FC00
03FC00
03FC00
03FC00
03FC00
ENDCHAR
STARTCHAR 012E
ENCODING 302
SWIDTH 220 0
DWIDTH 11 0
BBX 8 43 2 -8
BITMAP
FF
FF
FF
FF
FF
FF
FF
FF
FF
FF
FF
FF
FF
FF
FF
FF
FF
FF
FF
FF
FF
FF
FF
FF
FF
FF
FF
FF
FF
FF
FF
FF
FF
FF
FF
38
70
F0
E0
E7
FF
FF
FE
ENDCHAR
STARTCHAR 012F
ENCODING 303
SWIDTH 220 0
DWIDTH 11 0
BBX 8 43 2 -8
BITMAP
FF
FF
FF
FF
FF
FF
FF
FF
FF
FF
FF
FF
FF
FF
FF
FF
FF
FF
FF
FF
FF
FF
FF
FF
FF
FF
FF
FF
FF
FF
FF
FF
FF
FF
FF
38
70
F0
E0
E7
FF
FF
FE
ENDCHAR
STARTCHAR 0134
ENCODING 308
SWIDTH 500 0
DWIDTH 25 0
BBX 22 43 2 0
BITMAP
01FFC0
03FFE0
07FFF0
0FFFF8
0F80FC
0F007C
000000
000000
0FFFFC
0FFFFC
0FFFFC
0FFFFC
0FFFFC
0FFFFC
0FFFFC
0FFFFC
0003FC
0003FC
0003FC
0003FC
0003FC
0003FC
0003FC
0003FC
0003FC
0003FC
0003FC
0003FC
0003FC
0003FC
0003FC
0003FC
0003FC
FF03FC
FF03FC
FFFFFC
FFFFFC
FFFFFC
7FFFFC
7FFFFC
3FFFFC
1FFFFC
0FFFFC
ENDCHAR
STARTCHAR 0135
ENCODING 309
SWIDTH 500 0
DWIDTH 25 0
BBX 22 43 2 0
BITMAP
01FFC0
03FFE0
07FFF0
0FFFF8
0F80FC
0F007C
000000
000000
0FFFFC
0FFFFC
0FFFFC
0FFFFC
0FFFFC
0FFFFC
0FFFFC
0FFFFC
0003FC
0003FC
0003FC
0003FC
0003FC
0003FC
0003FC
0003FC
0003FC
0003FC
0003FC
0003FC
0003FC
0003FC
0003FC
0003FC
0003FC
FF03FC
FF03FC
FFFFFC
FFFFFC
FFFFFC
7FFFFC
7FFFFC
3FFFFC
1FFFFC
0FFFFC
ENDCHAR
STARTCHAR 0136
ENCODING 310
SWIDTH 560 0
DWIDTH 28 0
BBX 25 43 2 -8
BITMAP
FF007F80
FF00FF80
FF01FF80
FF01FF80
FF03FF00
FF07FF00
FF07FE00
FF0FFC00
FF1FF800
FF1FF800
FF3FF000
FF7FE000
FF7FE000
FFFFC000
FFFF8000
FFFF0000
FFFF0000
FFFE0000
FFFE0000
FFFF0000
FFFF8000
FFFFC000
FF7FC000
FF7FE000
FF3FF000
FF1FF800
FF1FF800
FF0FFC00
FF07FE00
FF07FF00
FF03FF00
FF01FF80
FF00FF80
FF00FF80
FF007F80
00000000
001C0000
001C0000
001C0000
001C0000
001C0000
00380000
00700000
ENDCHAR
STARTCHAR 0137
ENCODING 311
SWIDTH 560 0
DWIDTH 28 0
BBX 25 43 2 -8
BITMAP
FF007F80
FF00FF80
FF01FF80
FF01FF80
FF03FF00
FF07FF00
FF07FE00
FF0FFC00
FF1FF800
FF1FF800
FF3FF000
FF7FE000
FF7FE000
FFFFC000
FFFF8000
FFFF0000
FFFF0000
FFFE0000
FFFE0000
FFFF0000
FFFF8000
FFFFC000
FF7FC000
FF7FE000
FF3FF000
FF1FF800
FF1FF800
FF0FFC00
FF07FE00
FF07FF00
FF03FF00
FF01FF80
FF00FF80
FF00FF80
FF007F80
00000000
001C0000
001C0000
001C0000
001C0000
001C0000
00380000
00700000
ENDCHAR
STARTCHAR 0139
ENCODING 313
SWIDTH 400 0
DWIDTH 20 0
BBX 23 42 -2 0
BITMAP
00FFC0
7FFFC0
FFFF00
FFE000
FC0000
000000
000000
0FF000
0FF000
0FF000
0FF000
0FF000
0FF000
0FF000
0FF000
0FF000
0FF000
0FF000
0FF000
0FF000
0FF000
0FF000
0FF000
0FF000
0FF000
0FF000
0FF000
0FF000
0FF000
0FF000
0FF000
0FF000
0FF000
0FF000
0FFFFE
0FFFFE
0FFFFE
0FFFFC
0FFFF8
0FFFF8
0FFFF0
0FFFE0
ENDCHAR
STARTCHAR 013A
ENCODING 314
SWIDTH 400 0
DWIDTH 20 0
BBX 23 42 -2 0
BITMAP
00FFC0
7FFFC0
FFFF00
FFE000
FC0000
000000
000000
0FF000
0FF000
0FF000
0FF000
0FF000
0FF000
0FF000
0FF000
0FF000
0FF000
0FF000
0FF000
0FF000
0FF000
0FF000
0FF000
0FF000
0FF000
0FF000
0FF000
0FF000
0FF000
0FF000
0FF000
0FF000
0FF000
0FF000
0FFFFE
0FFFFE
0FFFFE
0FFFFC
0FFFF8
0FFFF8
0FFFF0
0FFFE0
ENDCHAR
STARTCHAR 013C
ENCODING 316
SWIDTH 400 0
DWIDTH 20 0
BBX 19 43 2 -8
BITMAP
FF0000
FF0000
FF0000
FF0000
FF0000
FF0000
FF0000
FF0000
FF0000
FF0000
FF0000
FF0000
FF0000
FF0000
FF0000
FF0000
FF0000
FF0000
FF0000
FF0000
FF0000
FF0000
FF0000
FF0000
FF0000
FF0000
FF0000
FFFFE0
FFFFE0
FFFFE0
FFFFC0
FFFF80
FFFF80
FFFF00
FFFE00
000000
00E000
00E000
00E000
00E000
01E000
01C000
038000
ENDCHAR
STARTCHAR 013D
ENCODING 317
SWIDTH 400 0
DWIDTH 20 0
BBX 22 43 -1 0
BITMAP
E01C00
F03C00
F87C00
7FF800
3FF000
1FE000
000000
000000
1FE000
1FE000
1FE000
1FE000
1FE000
1FE000
1FE000
1FE000
1FE000
1FE000
1FE000
1FE000
1FE000
1FE000
1FE000
1FE000
1FE000
1FE000
1FE000
1FE000
1FE000
1FE000
1FE000
1FE000
1FE000
1FE000
1FE000
1FFFFC
1FFFFC
1FFFFC
1FFFF8
1FFFF0
1FFFF0
1FFFE0
1FFFC0
ENDCHAR
STARTCHAR 013E
ENCODING 318
SWIDTH 400 0
DWIDTH 20 0
BBX 22 43 -1 0
BITMAP
E01C00
F03C00
F87C00
7FF800
3FF000
1FE000
000000
000000
1FE000
1FE000
1FE000
1FE000
1FE000
1FE000
1FE000
1FE000
1FE000
1FE000
1FE000
1FE000
1FE000
1FE000
1FE000
1FE000
1FE000
1FE000
1FE000
1FE000
1FE000
1FE000
1FE000
1FE000
1FE000
1FE000
1FE000
1FFFFC
1FFFFC
1FFFFC
1FFFF8
1FFFF0
1FFFF0
1FFFE0
1FFFC0
ENDCHAR
STARTCHAR 0141
ENCODING 321
SWIDTH 500 0
DWIDTH 25 0
BBX 23 35 2 0
BITMAP
07F000
07F000
07F000
07F000
07F000
07F000
07F000
07F000
07F0E0
07F3E0
07F7E0
07FFE0
07FFE0
07FFC0
07FF00
0FFC00
3FF000
7FF000
FFF000
FFF000
FFF000
F7F000
C7F000
07F000
07F000
07F000
07F800
07FFFE
07FFFE
07FFFE
07FFFE
07FFFC
07FFF8
07FFF0
07FFF0
ENDCHAR
STARTCHAR 0142
ENCODING 322
SWIDTH 500 0
DWIDTH 25 0
BBX 23 35 2 0
BITMAP
07F000
07F000
07F000
07F000
07F000
07F000
07F000
07F000
07F0E0
07F3E0
07F7E0
07FFE0
07FFE0
07FFC0
07FF00
0FFC00
3FF000
7FF000
FFF000
FFF000
FFF000
F7F000
C7F000
07F000
07F000
07F000
07F800
07FFFE
07FFFE
07FFFE
07FFFE
07FFFC
07FFF8
07FFF0
07FFF0
ENDCHAR
STARTCHAR 0143
ENCODING 323
SWIDTH 560 0
DWIDTH 28 0
BBX 25 42 2 0
BITMAP
000FF800
0FFFF800
1FFFE000
1FFC0000
1F800000
00000000
00000000
0F007F80
1F007F80
3F807F80
7F807F80
7FC07F80
FFC07F80
FFE07F80
FFE07F80
FFF07F80
FFF07F80
FFF07F80
FFF87F80
FFF87F80
FFFC7F80
FFFC7F80
FFFE7F80
FFFE7F80
FFFFFF80
FF7FFF80
FF3FFF80
FF3FFF80
FF1FFF80
FF1FFF80
FF0FFF80
FF0FFF80
FF07FF80
FF07FF80
FF07FF80
FF03FF80
FF03FF80
FF01FF00
FF01FE00
FF00FC00
FF00FC00
FF007800
ENDCHAR
STARTCHAR 0144
ENCODING 324
SWIDTH 560 0
DWIDTH 28 0
BBX 25 42 2 0
BITMAP
000FF800
0FFFF800
1FFFE000
1FFC0000
1F800000
00000000
00000000
0F007F80
1F007F80
3F807F80
7F807F80
7FC07F80
FFC07F80
FFE07F80
FFE07F80
FFF07F80
FFF07F80
FFF07F80
FFF87F80
FFF87F80
FFFC7F80
FFFC7F80
FFFE7F80
FFFE7F80
FFFFFF80
FF7FFF80
FF3FFF80
FF3FFF80
FF1FFF80
FF1FFF80
FF0FFF80
FF0FFF80
FF07FF80
FF07FF80
FF07FF80
FF03FF80
FF03FF80
FF01FF00
FF01FE00
FF00FC00
FF00FC00
FF007800
ENDCHAR
STARTCHAR 0145
ENCODING 325
SWIDTH 560 0
DWIDTH 28 0
BBX 25 43 2 -8
BITMAP
0F007F80
1F007F80
3F807F80
7F807F80
7FC07F80
FFC07F80
FFE07F80
FFE07F80
FFF07F80
FFF07F80
FFF07F80
FFF87F80
FFF87F80
FFFC7F80
FFFC7F80
FFFE7F80
FFFE7F80
FFFFFF80
FF7FFF80
FF3FFF80
FF3FFF80
FF1FFF80
FF1FFF80
FF0FFF80
FF0FFF80
FF07FF80
FF07FF80
FF07FF80
FF03FF80
FF03FF80
FF01FF00
FF01FE00
FF00FC00
FF00FC00
FF007800
00000000
000C0000
000E0000
000E0000
000E0000
001C0000
001C0000
00380000
ENDCHAR
STARTCHAR 0146
ENCODING 326
SWIDTH 560 0
DWIDTH 28 0
BBX 25 43 2 -8
BITMAP
0F007F80
1F007F80
3F807F80
7F807F80
7FC07F80
FFC07F80
FFE07F80
FFE07F80
FFF07F80
FFF07F80
FFF07F80
FFF87F80
FFF87F80
FFFC7F80
FFFC7F80
FFFE7F80
FFFE7F80
FFFFFF80
FF7FFF80
FF3FFF80
FF3FFF80
FF1FFF80
FF1FFF80
FF0FFF80
FF0FFF80
FF07FF80
FF07FF80
FF07FF80
FF03FF80
FF03FF80
FF01FF00
FF01FE00
FF00FC00
FF00FC00
FF007800
00000000
000C0000
000E0000
000E0000
000E0000
001C0000
001C0000
00380000
ENDCHAR
STARTCHAR 0147
ENCODING 327
SWIDTH 560 0
DWIDTH 28 0
BBX 25 43 2 0
BITMAP
0300E000
0381E000
03C3E000
01FFC000
00FF8000
007F0000
00000000
00000000
0F007F80
1F007F80
3F807F80
7F807F80
7FC07F80
FFC07F80
FFE07F80
FFE07F80
FFF07F80
FFF07F80
FFF07F80
FFF87F80
FFF87F80
FFFC7F80
FFFC7F80
FFFE7F80
FFFE7F80
FFFFFF80
FF7FFF80
FF3FFF80
FF3FFF80
FF1FFF80
FF1FFF80
FF0FFF80
FF0FFF80
FF07FF80
FF07FF80
FF07FF80
FF03FF80
FF03FF80
FF01FF00
FF01FE00
FF00FC00
FF00FC00
FF007800
ENDCHAR
STARTCHAR 0148
ENCODING 328
SWIDTH 560 0
DWIDTH 28 0
BBX 25 43 2 0
BITMAP
0300E000
0381E000
03C3E000
01FFC000
00FF8000
007F0000
00000000
00000000
0F007F80
1F007F80
3F807F80
7F807F80
7FC07F80
FFC07F80
FFE07F80
FFE07F80
FFF07F80
FFF07F80
FFF07F80
FFF87F80
FFF87F80
FFFC7F80
FFFC7F80
FFFE7F80
FFFE7F80
FFFFFF80
FF7FFF80
FF3FFF80
FF3FFF80
FF1FFF80
FF1FFF80
FF0FFF80
FF0FFF80
FF07FF80
FF07FF80
FF07FF80
FF03FF80
FF03FF80
FF01FF00
FF01FE00
FF00FC00
FF00FC00
FF007800
ENDCHAR
STARTCHAR 014C
ENCODING 332
SWIDTH 620 0
DWIDTH 31 0
BBX 27 42 2 0
BITMAP
0FFFFE00
0FFFFE00
0FFFFE00
0FFFFE00
0FFFFE00
00000000
00000000
0FFFFE00
1FFFFF00
3FFFFF80
7FFFFFC0
7FFFFFC0
FFFFFFE0
FFFFFFE0
FFFFFFE0
FF001FE0
FF001FE0
FF001FE0
FF001FE0
FF001FE0
FF001FE0
FF001FE0
FF001FE0
FF001FE0
FF001FE0
FF001FE0
FF001FE0
FF001FE0
FF001FE0
FF001FE0
FF001FE0
FF001FE0
FF001FE0
FF001FE0
FFFFFFE0
FFFFFFE0
FFFFFFE0
7FFFFFC0
7FFFFFC0
3FFFFF80
1FFFFF00
0FFFFE00
ENDCHAR
STARTCHAR 014D
ENCODING 333
SWIDTH 620 0
DWIDTH 31 0
BBX 27 42 2 0
BITMAP
0FFFFE00
0FFFFE00
0FFFFE00
0FFFFE00
0FFFFE00
00000000
00000000
0FFFFE00
1FFFFF00
3FFFFF80
7FFFFFC0
7FFFFFC0
FFFFFFE0
FFFFFFE0
FFFFFFE0
FF001FE0
FF001FE0
FF001FE0
FF001FE0
FF001FE0
FF001FE0
FF001FE0
FF001FE0
FF001FE0
FF001FE0
FF001FE0
FF001FE0
FF001FE0
FF001FE0
FF001FE0
FF001FE0
FF001FE0
FF001FE0
FF001FE0
FFFFFFE0
FFFFFFE0
FFFFFFE0
7FFFFFC0
7FFFFFC0
3FFFFF80
1FFFFF00
0FFFFE00
ENDCHAR
STARTCHAR 0150
ENCODING 336
SWIDTH 620 0
DWIDTH 31 0
BBX 27 45 2 0
BITMAP
000E7000
000E7000
000E7000
001EF000
001CE000
003DE000
0039C000
007BC000
00000000
00000000
0FFFFE00
1FFFFF00
3FFFFF80
7FFFFFC0
7FFFFFC0
FFFFFFE0
FFFFFFE0
FFFFFFE0
FF001FE0
FF001FE0
FF001FE0
FF001FE0
FF001FE0
FF001FE0
FF001FE0
FF001FE0
FF001FE0
FF001FE0
FF001FE0
FF001FE0
FF001FE0
FF001FE0
FF001FE0
FF001FE0
FF001FE0
FF001FE0
FF001FE0
FFFFFFE0
FFFFFFE0
FFFFFFE0
7FFFFFC0
7FFFFFC0
3FFFFF80
1FFFFF00
0FFFFE00
ENDCHAR
STARTCHAR 0151
ENCODING 337
SWIDTH 620 0
DWIDTH 31 0
BBX 27 45 2 0
BITMAP
000E7000
000E7000
000E7000
001EF000
001CE000
003DE000
0039C000
007BC000
00000000
00000000
0FFFFE00
1FFFFF00
3FFFFF80
7FFFFFC0
7FFFFFC0
FFFFFFE0
FFFFFFE0
FFFFFFE0
FF001FE0
FF001FE0
FF001FE0
FF001FE0
FF001FE0
FF001FE0
FF001FE0
FF001FE0
FF001FE0
FF001FE0
FF001FE0
FF001FE0
FF001FE0
FF001FE0
FF001FE0
FF001FE0
FF001FE0
FF001FE0
FF001FE0
FFFFFFE0
FFFFFFE0
FFFFFFE0
7FFFFFC0
7FFFFFC0
3FFFFF80
1FFFFF00
0FFFFE00
ENDCHAR
STARTCHAR 0152
ENCODING 338
SWIDTH 860 0
DWIDTH 43 0
BBX 39 35 2 0
BITMAP
0FFFFFFFE0
1FFFFFFFF0
3FFFFFFFF8
7FFFFFFFFC
7FFFFFFFFC
FFFFFFFFFE
FFFFFFFFFE
FFFFFFFFFE
FF00FF00FE
FF00FF007E
FF00FF0000
FF00FF0000
FF00FF0000
FF00FF0000
FF00FFFF80
FF00FFFF80
FF00FFFF80
FF00FFFF80
FF00FFFF80
FF00FFFF80
FF00FFFF80
FF00FF0000
FF00FF0000
FF00FF0000
FF00FF0000
FF00FF007E
FF00FF00FE
FFFFFFFFFE
FFFFFFFFFE
FFFFFFFFFE
7FFFFFFFFC
7FFFFFFFFC
3FFFFFFFF8
1FFFFFFFF0
0FFFFFFFE0
ENDCHAR
STARTCHAR 0153
ENCODING 339
SWIDTH 860 0
DWIDTH 43 0
BBX 39 35 2 0
BITMAP
0FFFFFFFE0
1FFFFFFFF0
3FFFFFFFF8
7FFFFFFFFC
7FFFFFFFFC
FFFFFFFFFE
FFFFFFFFFE
FFFFFFFFFE
FF00FF00FE
FF00FF007E
FF00FF0000
FF00FF0000
FF00FF0000
FF00FF0000
FF00FFFF80
FF00FFFF80
FF00FFFF80
FF00FFFF80
FF00FFFF80
FF00FFFF80
FF00FFFF80
FF00FF0000
FF00FF0000
FF00FF0000
FF00FF0000
FF00FF007E
FF00FF00FE
FFFFFFFFFE
FFFFFFFFFE
FFFFFFFFFE
7FFFFFFFFC
7FFFFFFFFC
3FFFFFFFF8
1FFFFFFFF0
0FFFFFFFE0
ENDCHAR
STARTCHAR 0154
ENCODING 340
SWIDTH 540 0
DWIDTH 27 0
BBX 24 42 2 0
BITMAP
001FF8
0FFFF8
1FFFC0
1FF800
1F8000
000000
000000
FFFFE0
FFFFF0
FFFFF8
FFFFFC
FFFFFC
FFFFFE
FFFFFE
FFFFFE
FF01FE
FF01FE
FF01FE
FF01FE
FF01FE
FF03FE
FFFFFE
FFFFFC
FFFFF8
FFFFF8
FFFFF0
FFFFE0
FFFFE0
FFFFF0
FF0FF0
FF0FF8
FF07F8
FF07FC
FF07FC
FF03FC
FF03FE
FF03FE
FF01FF
FF01FF
FF01FF
FF00FF
FF00FF
ENDCHAR
STARTCHAR 0155
ENCODING 341
SWIDTH 540 0
DWIDTH 27 0
BBX 24 42 2 0
BITMAP
001FF8
0FFFF8
1FFFC0
1FF800
1F8000
000000
000000
FFFFE0
FFFFF0
FFFFF8
FFFFFC
FFFFFC
FFFFFE
FFFFFE
FFFFFE
FF01FE
FF01FE
FF01FE
FF01FE
FF01FE
FF03FE
FFFFFE
FFFFFC
FFFFF8
FFFFF8
FFFFF0
FFFFE0
FFFFE0
FFFFF0
FF0FF0
FF0FF8
FF07F8
FF07FC
FF07FC
FF03FC
FF03FE
FF03FE
FF01FF
FF01FF
FF01FF
FF00FF
FF00FF
ENDCHAR
STARTCHAR 0156
ENCODING 342
SWIDTH 540 0
DWIDTH 27 0
BBX 24 43 2 -8
BITMAP
FFFFE0
FFFFF0
FFFFF8
FFFFFC
FFFFFC
FFFFFE
FFFFFE
FFFFFE
FF01FE
FF01FE
FF01FE
FF01FE
FF01FE
FF03FE
FFFFFE
FFFFFC
FFFFF8
FFFFF8
FFFFF0
FFFFE0
FFFFE0
FFFFF0
FF0FF0
FF0FF8
FF07F8
FF07FC
FF07FC
FF03FC
FF03FE
FF03FE
FF01FF
FF01FF
FF01FF
FF00FF
FF00FF
000000
001C00
001C00
001C00
001C00
003C00
003800
007000
ENDCHAR
STARTCHAR 0157
ENCODING 343
SWIDTH 540 0
DWIDTH 27 0
BBX 24 43 2 -8
BITMAP
FFFFE0
FFFFF0
FFFFF8
FFFFFC
FFFFFC
FFFFFE
FFFFFE
FFFFFE
FF01FE
FF01FE
FF01FE
FF01FE
FF01FE
FF03FE
FFFFFE
FFFFFC
FFFFF8
FFFFF8
FFFFF0
FFFFE0
FFFFE0
FFFFF0
FF0FF0
FF0FF8
FF07F8
FF07FC
FF07FC
FF03FC
FF03FE
FF03FE
FF01FF
FF01FF
FF01FF
FF00FF
FF00FF
000000
001C00
001C00
001C00
001C00
003C00
003800
007000
ENDCHAR
STARTCHAR 0158
ENCODING 344
SWIDTH 540 0
DWIDTH 27 0
BBX 24 43 2 0
BITMAP
0E0180
0F0380
0F8780
07FF00
03FE00
01FC00
000000
000000
FFFFE0
FFFFF0
FFFFF8
FFFFFC
FFFFFC
FFFFFE
FFFFFE
FFFFFE
FF01FE
FF01FE
FF01FE
FF01FE
FF01FE
FF03FE
FFFFFE
FFFFFC
FFFFF8
FFFFF8
FFFFF0
FFFFE0
FFFFE0
FFFFF0
FF0FF0
FF0FF8
FF07F8
FF07FC
FF07FC
FF03FC
FF03FE
FF03FE
FF01FF
FF01FF
FF01FF
FF00FF
FF00FF
ENDCHAR
STARTCHAR 0159
ENCODING 345
SWIDTH 540 0
DWIDTH 27 0
BBX 24 43 2 0
BITMAP
0E0180
0F0380
0F8780
07FF00
03FE00
01FC00
000000
000000
FFFFE0
FFFFF0
FFFFF8
FFFFFC
FFFFFC
FFFFFE
FFFFFE
FFFFFE
FF01FE
FF01FE
FF01FE
FF01FE
FF01FE
FF03FE
FFFFFE
FFFFFC
FFFFF8
FFFFF8
FFFFF0
FFFFE0
FFFFE0
FFFFF0
FF0FF0
FF0FF8
FF07F8
FF07FC
FF07FC
FF03FC
FF03FE
FF03FE
FF01FF
FF01FF
FF01FF
FF00FF
FF00FF
ENDCHAR
STARTCHAR 015C
ENCODING 348
SWIDTH 540 0
DWIDTH 27 0
BBX 23 43 2 0
BITMAP
1FFF80
3FFFC0
7FFFE0
FFFFF0
FC01F8
F000F8
000000
000000
7FFFE0
FFFFF0
FFFFF8
FFFFFC
FFFFFC
FFFFFE
FFFFFE
FFFFFE
FF00FE
FF807E
FFC000
FFE000
7FF000
3FF800
1FFC00
0FFE00
07FF00
03FF80
01FFC0
00FFE0
007FF0
003FF8
001FFC
000FFE
0007FE
FC03FE
FE01FE
FFFFFE
FFFFFE
FFFFFE
7FFFFE
7FFFFE
3FFFFE
1FFFFE
0FFFFC
ENDCHAR
STARTCHAR 015D
ENCODING 349
SWIDTH 540 0
DWIDTH 27 0
BBX 23 43 2 0
BITMAP
1FFF80
3FFFC0
7FFFE0
FFFFF0
FC01F8
F000F8
000000
000000
7FFFE0
FFFFF0
FFFFF8
FFFFFC
FFFFFC
FFFFFE
FFFFFE
FFFFFE
FF00FE
FF807E
FFC000
FFE000
7FF000
3FF800
1FFC00
0FFE00
07FF00
03FF80
01FFC0
00FFE0
007FF0
003FF8
001FFC
000FFE
0007FE
FC03FE
FE01FE
FFFFFE
FFFFFE
FFFFFE
7FFFFE
7FFFFE
3FFFFE
1FFFFE
0FFFFC
ENDCHAR
STARTCHAR 015E
ENCODING 350
SWIDTH 540 0
DWIDTH 27 0
BBX 23 42 2 -7
BITMAP
7FFFE0
FFFFF0
FFFFF8
FFFFFC
FFFFFC
FFFFFE
FFFFFE
FFFFFE
FF00FE
FF807E
FFC000
FFE000
7FF000
3FF800
1FFC00
0FFE00
07FF00
03FF80
01FFC0
00FFE0
007FF0
003FF8
001FFC
000FFE
0007FE
FC03FE
FE01FE
FFFFFE
FFFFFE
FFFFFE
7FFFFE
7FFFFE
3FFFFE
1FFFFE
0FFFFC
000700
000E00
003C00
003C00
000C00
00FC00
00FC00
ENDCHAR
STARTCHAR 015F
ENCODING 351
SWIDTH 540 0
DWIDTH 27 0
BBX 23 42 2 -7
BITMAP
7FFFE0
FFFFF0
FFFFF8
FFFFFC
FFFFFC
FFFFFE
FFFFFE
FFFFFE
FF00FE
FF807E
FFC000
FFE000
7FF000
3FF800
1FFC00
0FFE00
07FF00
03FF80
01FFC0
00FFE0
007FF0
003FF8
001FFC
000FFE
0007FE
FC03FE
FE01FE
FFFFFE
FFFFFE
FFFFFE
7FFFFE
7FFFFE
3FFFFE
1FFFFE
0FFFFC
000700
000E00
003C00
003C00
000C00
00FC00
00FC00
ENDCHAR
STARTCHAR 0160
ENCODING 352
SWIDTH 540 0
DWIDTH 27 0
BBX 23 43 2 0
BITMAP
0E01C0
0F03C0
0F87C0
07FF80
03FF00
01FE00
000000
000000
7FFFE0
FFFFF0
FFFFF8
FFFFFC
FFFFFC
FFFFFE
FFFFFE
FFFFFE
FF00FE
FF807E
FFC000
FFE000
7FF000
3FF800
1FFC00
0FFE00
07FF00
03FF80
01FFC0
00FFE0
007FF0
003FF8
001FFC
000FFE
0007FE
FC03FE
FE01FE
FFFFFE
FFFFFE
FFFFFE
7FFFFE
7FFFFE
3FFFFE
1FFFFE
0FFFFC
ENDCHAR
STARTCHAR 0161
ENCODING 353
SWIDTH 540 0
DWIDTH 27 0
BBX 23 43 2 0
BITMAP
0E01C0
0F03C0
0F87C0
07FF80
03FF00
01FE00
000000
000000
7FFFE0
FFFFF0
FFFFF8
FFFFFC
FFFFFC
FFFFFE
FFFFFE
FFFFFE
FF00FE
FF807E
FFC000
FFE000
7FF000
3FF800
1FFC00
0FFE00
07FF00
03FF80
01FFC0
00FFE0
007FF0
003FF8
001FFC
000FFE
0007FE
FC03FE
FE01FE
FFFFFE
FFFFFE
FFFFFE
7FFFFE
7FFFFE
3FFFFE
1FFFFE
0FFFFC
ENDCHAR
STARTCHAR 0162
ENCODING 354
SWIDTH 520 0
DWIDTH 26 0
BBX 27 42 0 -7
BITMAP
0FFFFE00
1FFFFF00
3FFFFF00
7FFFFF80
7FFFFFC0
FFFFFFC0
FFFFFFE0
FF7F9FE0
FC7F8FE0
F87F87E0
007F8000
007F8000
007F8000
007F8000
007F8000
007F8000
007F8000
007F8000
007F8000
007F8000
007F8000
007F8000
007F8000
007F8000
007F8000
007F8000
007F8000
007F8000
007F8000
007F8000
007F8000
007F8000
007F8000
007F8000
007F8000
00038000
00070000
001F0000
001F0000
00070000
003F0000
007E0000
ENDCHAR
STARTCHAR 0163
ENCODING 355
SWIDTH 520 0
DWIDTH 26 0
BBX 27 42 0 -7
BITMAP
0FFFFE00
1FFFFF00
3FFFFF00
7FFFFF80
7FFFFFC0
FFFFFFC0
FFFFFFE0
FF7F9FE0
FC7F8FE0
F87F87E0
007F8000
007F8000
007F8000
007F8000
007F8000
007F8000
007F8000
007F8000
007F8000
007F8000
007F8000
007F8000
007F8000
007F8000
007F8000
007F8000
007F8000
007F8000
007F8000
007F8000
007F8000
007F8000
007F8000
007F8000
007F8000
00038000
00070000
001F0000
001F0000
00070000
003F0000
007E0000
ENDCHAR
STARTCHAR 0164
ENCODING 356
SWIDTH 520 0
DWIDTH 26 0
BBX 27 43 0 0
BITMAP
01807000
01C0F000
01E1F000
00FFE000
007FC000
003F8000
00000000
00000000
0FFFFE00
1FFFFF00
3FFFFF00
7FFFFF80
7FFFFFC0
FFFFFFC0
FFFFFFE0
FF7F9FE0
FC7F8FE0
F87F87E0
007F8000
007F8000
007F8000
007F8000
007F8000
007F8000
007F8000
007F8000
007F8000
007F8000
007F8000
007F8000
007F8000
007F8000
007F8000
007F8000
007F8000
007F8000
007F8000
007F8000
007F8000
007F8000
007F8000
007F8000
007F8000
ENDCHAR
STARTCHAR 0165
ENCODING 357
SWIDTH 520 0
DWIDTH 26 0
BBX 27 43 0 0
BITMAP
01807000
01C0F000
01E1F000
00FFE000
007FC000
003F8000
00000000
00000000
0FFFFE00
1FFFFF00
3FFFFF00
7FFFFF80
7FFFFFC0
FFFFFFC0
FFFFFFE0
FF7F9FE0
FC7F8FE0
F87F87E0
007F8000
007F8000
007F8000
007F8000
007F8000
007F8000
007F8000
007F8000
007F8000
007F8000
007F8000
007F8000
007F8000
007F8000
007F8000
007F8000
007F8000
007F8000
007F8000
007F8000
007F8000
007F8000
007F8000
007F8000
007F8000
ENDCHAR
STARTCHAR 0166
ENCODING 358
SWIDTH 520 0
DWIDTH 26 0
BBX 27 35 0 0
BITMAP
0FFFFE00
1FFFFF00
3FFFFF00
7FFFFF80
7FFFFFC0
FFFFFFC0
FFFFFFE0
FF7F9FE0
FC7F8FE0
F87F87E0
007F8000
007F8000
007F8000
007F8000
007F8000
0FFFFE00
0FFFFE00
0FFFFE00
0FFFFE00
0FFFFE00
007F8000
007F8000
007F8000
007F8000
007F8000
007F8000
007F8000
007F8000
007F8000
007F8000
007F8000
007F8000
007F8000
007F8000
007F8000
ENDCHAR
STARTCHAR 0167
ENCODING 359
SWIDTH 520 0
DWIDTH 26 0
BBX 27 35 0 0
BITMAP
0FFFFE00
1FFFFF00
3FFFFF00
7FFFFF80
7FFFFFC0
FFFFFFC0
FFFFFFE0
FF7F9FE0
FC7F8FE0
F87F87E0
007F8000
007F8000
007F8000
007F8000
007F8000
0FFFFE00
0FFFFE00
0FFFFE00
0FFFFE00
0FFFFE00
007F8000
007F8000
007F8000
007F8000
007F8000
007F8000
007F8000
007F8000
007F8000
007F8000
007F8000
007F8000
007F8000
007F8000
007F8000
ENDCHAR
STARTCHAR 0168
ENCODING 360
SWIDTH 600 0
DWIDTH 30 0
BBX 27 44 2 0
BITMAP
00600000
01FC0000
07FF8700
1FFFFF00
1F8FFF00
1F03FE00
1C007000
00000000
00000000
FF001FE0
FF001FE0
FF001FE0
FF001FE0
FF001FE0
FF001FE0
FF001FE0
FF001FE0
FF001FE0
FF001FE0
FF001FE0
FF001FE0
FF001FE0
FF001FE0
FF001FE0
FF001FE0
FF001FE0
FF001FE0
FF001FE0
FF001FE0
FF001FE0
FF001FE0
FF001FE0
FF001FE0
FF001FE0
FF001FE0
FF003FE0
FFFFFFE0
FFFFFFE0
FFFFFFE0
7FFFFFC0
7FFFFF80
3FFFFF00
1FFFFF00
0FFFFE00
ENDCHAR
STARTCHAR 0169
ENCODING 361
SWIDTH 600 0
DWIDTH 30 0
BBX 27 44 2 0
BITMAP
00600000
01FC0000
07FF8700
1FFFFF00
1F8FFF00
1F03FE00
1C007000
00000000
00000000
FF001FE0
FF001FE0
FF001FE0
FF001FE0
FF001FE0
FF001FE0
FF001FE0
FF001FE0
FF001FE0
FF001FE0
FF001FE0
FF001FE0
FF001FE0
FF001FE0
FF001FE0
FF001FE0
FF001FE0
FF001FE0
FF001FE0
FF001FE0
FF001FE0
FF001FE0
FF001FE0
FF001FE0
FF001FE0
FF001FE0
FF003FE0
FFFFFFE0
FFFFFFE0
FFFFFFE0
7FFFFFC0
7FFFFF80
3FFFFF00
1FFFFF00
0FFFFE00
ENDCHAR
STARTCHAR 016A
ENCODING 362
SWIDTH 600 0
DWIDTH 30 0
BBX 27 42 2 0
BITMAP
0FFFFE00
0FFFFE00
0FFFFE00
0FFFFE00
0FFFFE00
00000000
00000000
FF001FE0
FF001FE0
FF001FE0
FF001FE0
FF001FE0
FF001FE0
FF001FE0
FF001FE0
FF001FE0
FF001FE0
FF001FE0
FF001FE0
FF001FE0
FF001FE0
FF001FE0
FF001FE0
FF001FE0
FF001FE0
FF001FE0
FF001FE0
FF001FE0
FF001FE0
FF001FE0
FF001FE0
FF001FE0
FF001FE0
FF003FE0
FFFFFFE0
FFFFFFE0
FFFFFFE0
7FFFFFC0
7FFFFF80
3FFFFF00
1FFFFF00
0FFFFE00
ENDCHAR
STARTCHAR 016B
ENCODING 363
SWIDTH 600 0
DWIDTH 30 0
BBX 27 42 2 0
BITMAP
0FFFFE00
0FFFFE00
0FFFFE00
0FFFFE00
0FFFFE00
00000000
00000000
FF001FE0
FF001FE0
FF001FE0
FF001FE0
FF001FE0
FF001FE0
FF001FE0
FF001FE0
FF001FE0
FF001FE0
FF001FE0
FF001FE0
FF001FE0
FF001FE0
FF001FE0
FF001FE0
FF001FE0
FF001FE0
FF001FE0
FF001FE0
FF001FE0
FF001FE0
FF001FE0
FF001FE0
FF001FE0
FF001FE0
FF003FE0
FFFFFFE0
FFFFFFE0
FFFFFFE0
7FFFFFC0
7FFFFF80
3FFFFF00
1FFFFF00
0FFFFE00
ENDCHAR
STARTCHAR 016E
ENCODING 366
SWIDTH 600 0
DWIDTH 30 0
BBX 27 44 2 0
BITMAP
003F0000
003F8000
00318000
00318000
00318000
003F8000
003F0000
00000000
00000000
FF001FE0
FF001FE0
FF001FE0
FF001FE0
FF001FE0
FF001FE0
FF001FE0
FF001FE0
FF001FE0
FF001FE0
FF001FE0
FF001FE0
FF001FE0
FF001FE0
FF001FE0
FF001FE0
FF001FE0
FF001FE0
FF001FE0
FF001FE0
FF001FE0
FF001FE0
FF001FE0
FF001FE0
FF001FE0
FF001FE0
FF003FE0
FFFFFFE0
FFFFFFE0
FFFFFFE0
7FFFFFC0
7FFFFF80
3FFFFF00
1FFFFF00
0FFFFE00
ENDCHAR
STARTCHAR 016F
ENCODING 367
SWIDTH 600 0
DWIDTH 30 0
BBX 27 44 2 0
BITMAP
003F0000
003F8000
00318000
00318000
00318000
003F8000
003F0000
00000000
00000000
FF001FE0
FF001FE0
FF001FE0
FF001FE0
FF001FE0
FF001FE0
FF001FE0
FF001FE0
FF001FE0
FF001FE0
FF001FE0
FF001FE0
FF001FE0
FF001FE0
FF001FE0
FF001FE0
FF001FE0
FF001FE0
FF001FE0
FF001FE0
FF001FE0
FF001FE0
FF001FE0
FF001FE0
FF001FE0
FF001FE0
FF003FE0
FFFFFFE0
FFFFFFE0
FFFFFFE0
7FFFFFC0
7FFFFF80
3FFFFF00
1FFFFF00
0FFFFE00
ENDCHAR
STARTCHAR 0170
ENCODING 368
SWIDTH 600 0
DWIDTH 30 0
BBX 27 45 2 0
BITMAP
000E7000
000E7000
000E7000
001CF000
001CE000
0039E000
0079C000
0073C000
00000000
00000000
FF001FE0
FF001FE0
FF001FE0
FF001FE0
FF001FE0
FF001FE0
FF001FE0
FF001FE0
FF001FE0
FF001FE0
FF001FE0
FF001FE0
FF001FE0
FF001FE0
FF001FE0
FF001FE0
FF001FE0
FF001FE0
FF001FE0
FF001FE0
FF001FE0
FF001FE0
FF001FE0
FF001FE0
FF001FE0
FF001FE0
FF003FE0
FFFFFFE0
FFFFFFE0
FFFFFFE0
7FFFFFC0
7FFFFF80
3FFFFF00
1FFFFF00
0FFFFE00
ENDCHAR
STARTCHAR 0171
ENCODING 369
SWIDTH 600 0
DWIDTH 30 0
BBX 27 45 2 0
BITMAP
000E7000
000E7000
000E7000
001CF000
001CE000
0039E000
0079C000
0073C000
00000000
00000000
FF001FE0
FF001FE0
FF001FE0
FF001FE0
FF001FE0
FF001FE0
FF001FE0
FF001FE0
FF001FE0
FF001FE0
FF001FE0
FF001FE0
FF001FE0
FF001FE0
FF001FE0
FF001FE0
FF001FE0
FF001FE0
FF001FE0
FF001FE0
FF001FE0
FF001FE0
FF001FE0
FF001FE0
FF001FE0
FF001FE0
FF003FE0
FFFFFFE0
FFFFFFE0
FFFFFFE0
7FFFFFC0
7FFFFF80
3FFFFF00
1FFFFF00
0FFFFE00
ENDCHAR
STARTCHAR 0172
ENCODING 370
SWIDTH 600 0
DWIDTH 30 0
BBX 27 43 2 -8
BITMAP
FF001FE0
FF001FE0
FF001FE0
FF001FE0
FF001FE0
FF001FE0
FF001FE0
FF001FE0
FF001FE0
FF001FE0
FF001FE0
FF001FE0
FF001FE0
FF001FE0
FF001FE0
FF001FE0
FF001FE0
FF001FE0
FF001FE0
FF001FE0
FF001FE0
FF001FE0
FF001FE0
FF001FE0
FF001FE0
FF001FE0
FF003FE0
FFFFFFE0
FFFFFFE0
FFFFFFE0
7FFFFFC0
7FFFFF80
3FFFFF00
1FFFFF00
0FFFFE00
001E0000
001C0000
00380000
00780000
0079C000
007FC000
007F8000
007F8000
ENDCHAR
STARTCHAR 0173
ENCODING 371
SWIDTH 600 0
DWIDTH 30 0
BBX 27 43 2 -8
BITMAP
FF001FE0
FF001FE0
FF001FE0
FF001FE0
FF001FE0
FF001FE0
FF001FE0
FF001FE0
FF001FE0
FF001FE0
FF001FE0
FF001FE0
FF001FE0
FF001FE0
FF001FE0
FF001FE0
FF001FE0
FF001FE0
FF001FE0
FF001FE0
FF001FE0
FF001FE0
FF001FE0
FF001FE0
FF001FE0
FF001FE0
FF003FE0
FFFFFFE0
FFFFFFE0
FFFFFFE0
7FFFFFC0
7FFFFF80
3FFFFF00
1FFFFF00
0FFFFE00
001E0000
001C0000
00380000
00780000
0079C000
007FC000
007F8000
007F8000
ENDCHAR
STARTCHAR 0174
ENCODING 372
SWIDTH 880 0
DWIDTH 44 0
BBX 40 43 2 0
BITMAP
0007FFE000
000FFFF000
001FFFF800
003FFFFC00
003E007C00
003C003C00
0000000000
0000000000
FF000000FF
FF000000FF
FF000000FF
FF000000FF
FF800000FF
FF800001FF
7F800001FF
7F800001FE
7F800001FE
7FC00001FE
7FC07F01FE
3FC0FF03FE
3FC0FF83FC
3FC1FF83FC
3FC1FF83FC
3FE1FF83FC
1FE1FFC7FC
1FE3FFC7F8
1FE3F7C7F8
1FE3F7C7F8
0FF3E7E7F8
0FF7E7E7F8
0FFFE7FFF0
0FFFE3FFF0
0FFFE3FFF0
07FFC3FFF0
07FFC3FFF0
07FFC1FFE0
07FFC1FFE0
07FFC1FFE0
03FF81FFE0
03FF81FFE0
03FF80FFC0
03FF80FFC0
01FF80FFC0
ENDCHAR
STARTCHAR 0175
ENCODING 373
SWIDTH 880 0
DWIDTH 44 0
BBX 40 43 2 0
BITMAP
0007FFE000
000FFFF000
001FFFF800
003FFFFC00
003E007C00
003C003C00
0000000000
0000000000
FF000000FF
FF000000FF
FF000000FF
FF000000FF
FF800000FF
FF800001FF
7F800001FF
7F800001FE
7F800001FE
7FC00001FE
7FC07F01FE
3FC0FF03FE
3FC0FF83FC
3FC1FF83FC
3FC1FF83FC
3FE1FF83FC
1FE1FFC7FC
1FE3FFC7F8
1FE3F7C7F8
1FE3F7C7F8
0FF3E7E7F8
0FF7E7E7F8
0FFFE7FFF0
0FFFE3FFF0
0FFFE3FFF0
07FFC3FFF0
07FFC3FFF0
07FFC1FFE0
07FFC1FFE0
07FFC1FFE0
03FF81FFE0
03FF81FFE0
03FF80FFC0
03FF80FFC0
01FF80FFC0
ENDCHAR
STARTCHAR 0176
ENCODING 374
SWIDTH 460 0
DWIDTH 23 0
BBX 23 43 0 0
BITMAP
07FFE0
0FFFF0
1FFFF8
3FFFFC
3E007C
3C003C
000000
000000
FE00FE
FF00FE
FF01FE
FF01FE
7F81FE
7F83FE
7FC3FC
3FC3FC
3FC7F8
1FE7F8
1FE7F0
0FEFF0
0FFFF0
07FFE0
07FFE0
07FFC0
03FFC0
03FF80
01FF80
01FF00
00FF00
00FF00
00FF00
00FF00
00FF00
00FF00
00FF00
00FF00
00FF00
00FF00
00FF00
00FF00
00FF00
00FF00
00FF00
ENDCHAR
STARTCHAR 0177
ENCODING 375
SWIDTH 460 0
DWIDTH 23 0
BBX 23 43 0 0
BITMAP
07FFE0
0FFFF0
1FFFF8
3FFFFC
3E007C
3C003C
000000
000000
FE00FE
FF00FE
FF01FE
FF01FE
7F81FE
7F83FE
7FC3FC
3FC3FC
3FC7F8
1FE7F8
1FE7F0
0FEFF0
0FFFF0
07FFE0
07FFE0
07FFC0
03FFC0
03FF80
01FF80
01FF00
00FF00
00FF00
00FF00
00FF00
00FF00
00FF00
00FF00
00FF00
00FF00
00FF00
00FF00
00FF00
00FF00
00FF00
00FF00
ENDCHAR
STARTCHAR 0178
ENCODING 376
SWIDTH 460 0
DWIDTH 23 0
BBX 23 42 0 0
BITMAP
07C3C0
07C3C0
07C3C0
07C3C0
07C3C0
000000
000000
FE00FE
FF00FE
FF01FE
FF01FE
7F81FE
7F83FE
7FC3FC
3FC3FC
3FC7F8
1FE7F8
1FE7F0
0FEFF0
0FFFF0
07FFE0
07FFE0
07FFC0
03FFC0
03FF80
01FF80
01FF00
00FF00
00FF00
00FF00
00FF00
00FF00
00FF00
00FF00
00FF00
00FF00
00FF00
00FF00
00FF00
00FF00
00FF00
00FF00
ENDCHAR
STARTCHAR 017B
ENCODING 379
SWIDTH 560 0
DWIDTH 28 0
BBX 24 43 2 0
BITMAP
003C00
007E00
007E00
007E00
007E00
003E00
000000
000000
FFFFF8
FFFFF8
FFFFFC
FFFFFE
FFFFFF
FFFFFF
FFFFFF
7FFFFE
0007FE
000FFC
000FF8
001FF8
003FF0
003FF0
007FE0
00FFC0
00FFC0
01FF80
01FF80
03FF00
07FE00
07FE00
0FFC00
0FF800
1FF800
3FF000
3FF000
7FFFFE
7FFFFF
FFFFFF
7FFFFF
7FFFFF
3FFFFF
1FFFFF
0FFFFF
ENDCHAR
STARTCHAR 017C
ENCODING 380
SWIDTH 560 0
DWIDTH 28 0
BBX 24 45 2 0
BITMAP
003C00
007E00
007E00
007E00
007E00
003C00
000000
000000
000000
000000
FFFFF8
FFFFF8
FFFFFC
FFFFFE
FFFFFF
FFFFFF
FFFFFF
7FFFFE
0007FE
000FFC
000FF8
001FF8
003FF0
003FF0
007FE0
00FFC0
00FFC0
01FF80
01FF80
03FF00
07FE00
07FE00
0FFC00
0FF800
1FF800
3FF000
3FF000
7FFFFE
7FFFFF
FFFFFF
7FFFFF
7FFFFF
3FFFFF
1FFFFF
0FFFFF
ENDCHAR
STARTCHAR 017D
ENCODING 381
SWIDTH 560 0
DWIDTH 28 0
BBX 24 43 2 0
BITMAP
0700E0
0781E0
07C3E0
03FFC0
01FF80
007F00
000000
000000
FFFFF8
FFFFF8
FFFFFC
FFFFFE
FFFFFF
FFFFFF
FFFFFF
7FFFFE
0007FE
000FFC
000FF8
001FF8
003FF0
003FF0
007FE0
00FFC0
00FFC0
01FF80
01FF80
03FF00
07FE00
07FE00
0FFC00
0FF800
1FF800
3FF000
3FF000
7FFFFE
7FFFFF
FFFFFF
7FFFFF
7FFFFF
3FFFFF
1FFFFF
0FFFFF
ENDCHAR
STARTCHAR 017E
ENCODING 382
SWIDTH 560 0
DWIDTH 28 0
BBX 24 43 2 0
BITMAP
0300E0
0381E0
03C3E0
03FFC0
00FF80
007F00
000000
000000
FFFFF8
FFFFF8
FFFFFC
FFFFFE
FFFFFF
FFFFFF
FFFFFF
7FFFFE
0007FE
000FFC
000FF8
001FF8
003FF0
003FF0
007FE0
00FFC0
00FFC0
01FF80
01FF80
03FF00
07FE00
07FE00
0FFC00
0FF800
1FF800
3FF000
3FF000
7FFFFE
7FFFFF
FFFFFF
7FFFFF
7FFFFF
3FFFFF
1FFFFF
0FFFFF
ENDCHAR
STARTCHAR 01A0
ENCODING 416
SWIDTH 620 0
DWIDTH 31 0
BBX 29 38 2 0
BITMAP
00000078
00000078
000000F8
0FFFFFF8
1FFFFFF8
3FFFFFE0
7FFFFFC0
7FFFFFC0
FFFFFFE0
FFFFFFE0
FFFFFFE0
FF001FE0
FF001FE0
FF001FE0
FF001FE0
FF001FE0
FF001FE0
FF001FE0
FF001FE0
FF001FE0
FF001FE0
FF001FE0
FF001FE0
FF001FE0
FF001FE0
FF001FE0
FF001FE0
FF001FE0
FF001FE0
FF001FE0
FFFFFFE0
FFFFFFE0
FFFFFFE0
7FFFFFC0
7FFFFFC0
3FFFFF80
1FFFFF00
0FFFFE00
ENDCHAR
STARTCHAR 01A1
ENCODING 417
SWIDTH 620 0
DWIDTH 31 0
BBX 29 38 2 0
BITMAP
00000078
00000078
000000F8
0FFFFFF8
1FFFFFF8
3FFFFFE0
7FFFFFC0
7FFFFFC0
FFFFFFE0
FFFFFFE0
FFFFFFE0
FF001FE0
FF001FE0
FF001FE0
FF001FE0
FF001FE0
FF001FE0
FF001FE0
FF001FE0
FF001FE0
FF001FE0
FF001FE0
FF001FE0
FF001FE0
FF001FE0
FF001FE0
FF001FE0
FF001FE0
FF001FE0
FF001FE0
FFFFFFE0
FFFFFFE0
FFFFFFE0
7FFFFFC0
7FFFFFC0
3FFFFF80
1FFFFF00
0FFFFE00
ENDCHAR
STARTCHAR 01AF
ENCODING 431
SWIDTH 600 0
DWIDTH 30 0
BBX 29 38 2 0
BITMAP
000000F0
000000F8
000000F8
FF001FF8
FF001FF0
FF001FE0
FF001FC0
FF001FC0
FF001FE0
FF001FE0
FF001FE0
FF001FE0
FF001FE0
FF001FE0
FF001FE0
FF001FE0
FF001FE0
FF001FE0
FF001FE0
FF001FE0
FF001FE0
FF001FE0
FF001FE0
FF001FE0
FF001FE0
FF001FE0
FF001FE0
FF001FE0
FF001FE0
FF003FE0
FFFFFFE0
FFFFFFE0
FFFFFFE0
7FFFFFC0
7FFFFF80
3FFFFF00
1FFFFF00
0FFFFE00
ENDCHAR
STARTCHAR 01B0
ENCODING 432
SWIDTH 600 0
DWIDTH 30 0
BBX 29 38 2 0
BITMAP
000000F0
000000F8
000000F8
FF001FF8
FF001FF0
FF001FE0
FF001FC0
FF001FC0
FF001FE0
FF001FE0
FF001FE0
FF001FE0
FF001FE0
FF001FE0
FF001FE0
FF001FE0
FF001FE0
FF001FE0
FF001FE0
FF001FE0
FF001FE0
FF001FE0
FF001FE0
FF001FE0
FF001FE0
FF001FE0
FF001FE0
FF001FE0
FF001FE0
FF003FE0
FFFFFFE0
FFFFFFE0
FFFFFFE0
7FFFFFC0
7FFFFF80
3FFFFF00
1FFFFF00
0FFFFE00
ENDCHAR
STARTCHAR 0218
ENCODING 536
SWIDTH 540 0
DWIDTH 27 0
BBX 23 43 2 -8
BITMAP
7FFFE0
FFFFF0
FFFFF8
FFFFFC
FFFFFC
FFFFFE
FFFFFE
FFFFFE
FF00FE
FF807E
FFC000
FFE000
7FF000
3FF800
1FFC00
0FFE00
07FF00
03FF80
01FFC0
00FFE0
007FF0
003FF8
001FFC
000FFE
0007FE
FC03FE
FE01FE
FFFFFE
FFFFFE
FFFFFE
7FFFFE
7FFFFE
3FFFFE
1FFFFE
0FFFFC
000000
001C00
001C00
001C00
001C00
001C00
003800
007000
ENDCHAR
STARTCHAR 0219
ENCODING 537
SWIDTH 540 0
DWIDTH 27 0
BBX 23 43 2 -8
BITMAP
7FFFE0
FFFFF0
FFFFF8
FFFFFC
FFFFFC
FFFFFE
FFFFFE
FFFFFE
FF00FE
FF807E
FFC000
FFE000
7FF000
3FF800
1FFC00
0FFE00
07FF00
03FF80
01FFC0
00FFE0
007FF0
003FF8
001FFC
000FFE
0007FE
FC03FE
FE01FE
FFFFFE
FFFFFE
FFFFFE
7FFFFE
7FFFFE
3FFFFE
1FFFFE
0FFFFC
000000
001C00
001C00
001C00
001C00
003C00
003800
007000
ENDCHAR
STARTCHAR 021A
ENCODING 538
SWIDTH 520 0
DWIDTH 26 0
BBX 27 43 0 -8
BITMAP
0FFFFE00
1FFFFF00
3FFFFF00
7FFFFF80
7FFFFFC0
FFFFFFC0
FFFFFFE0
FF7F9FE0
FC7F8FE0
F87F87E0
007F8000
007F8000
007F8000
007F8000
007F8000
007F8000
007F8000
007F8000
007F8000
007F8000
007F8000
007F8000
007F8000
007F8000
007F8000
007F8000
007F8000
007F8000
007F8000
007F8000
007F8000
007F8000
007F8000
007F8000
007F8000
00000000
000E0000
000E0000
000E0000
000E0000
001E0000
001C0000
00380000
ENDCHAR
STARTCHAR 021B
ENCODING 539
SWIDTH 520 0
DWIDTH 26 0
BBX 27 43 0 -8
BITMAP
0FFFFE00
1FFFFF00
3FFFFF00
7FFFFF80
7FFFFFC0
FFFFFFC0
FFFFFFE0
FF7F9FE0
FC7F8FE0
F87F87E0
007F8000
007F8000
007F8000
007F8000
007F8000
007F8000
007F8000
007F8000
007F8000
007F8000
007F8000
007F8000
007F8000
007F8000
007F8000
007F8000
007F8000
007F8000
007F8000
007F8000
007F8000
007F8000
007F8000
007F8000
007F8000
00000000
000E0000
000E0000
000E0000
000E0000
001E0000
001C0000
00380000
ENDCHAR
STARTCHAR 0259
ENCODING 601
SWIDTH 540 0
DWIDTH 27 0
BBX 24 35 2 0
BITMAP
0FFFFF
1FFFFF
3FFFFF
7FFFFF
7FFFFF
FFFFFF
FFFFFF
FFFFFF
FE00FF
FE00FF
0000FF
0000FF
0000FF
0000FF
0000FF
FFF0FF
FFF0FF
FFF0FF
FFF0FF
FFF0FF
FFF0FF
FFF0FF
FFF0FF
FF00FF
FF00FF
FF00FF
FF00FF
FFFFFF
FFFFFF
FFFFFF
FFFFFF
FFFFFF
FFFFFF
FFFFFF
F3FFFF
ENDCHAR
STARTCHAR 02C6
ENCODING 710
SWIDTH 440 0
DWIDTH 22 0
BBX 20 6 1 37
BITMAP
1FFF80
3FFFC0
7FFFE0
FFFFF0
FC01F0
F000F0
ENDCHAR
STARTCHAR 02C7
ENCODING 711
SWIDTH 300 0
DWIDTH 15 0
BBX 13 6 1 37
BITMAP
E018
F038
F878
7FF0
3FE0
1FC0
ENDCHAR
STARTCHAR 02D8
ENCODING 728
SWIDTH 440 0
DWIDTH 22 0
BBX 20 6 1 37
BITMAP
F000F0
FC01F0
FFFFF0
7FFFE0
3FFFC0
1FFF80
ENDCHAR
STARTCHAR 02D9
ENCODING 729
SWIDTH 160 0
DWIDTH 8 0
BBX 6 6 1 39
BITMAP
7C
FC
FC
FC
FC
7C
ENDCHAR
STARTCHAR 02DA
ENCODING 730
SWIDTH 180 0
DWIDTH 9 0
BBX 7 7 1 37
BITMAP
7E
FE
C6
C6
C6
FE
7E
ENDCHAR
STARTCHAR 02DB
ENCODING 731
SWIDTH 220 0
DWIDTH 11 0
BBX 9 8 1 -8
BITMAP
3C00
3800
7000
F000
F380
FF80
FF00
7F00
ENDCHAR
STARTCHAR 02DC
ENCODING 732
SWIDTH 440 0
DWIDTH 22 0
BBX 20 7 1 37
BITMAP
030000
0FE000
3FFC70
FFFFF0
FCFFF0
F01FF0
E00380
ENDCHAR
STARTCHAR 02DD
ENCODING 733
SWIDTH 240 0
DWIDTH 12 0
BBX 11 8 1 37
BITMAP
3CE0
3CE0
3CE0
39C0
79C0
7380
F780
E700
ENDCHAR
STARTCHAR 1E20
ENCODING 7712
SWIDTH 540 0
DWIDTH 27 0
BBX 24 42 2 0
BITMAP
FFFFF8
FFFFF8
FFFFF8
FFFFF8
FFFFF8
000000
000000
FFFFF0
FFFFF8
FFFFFC
FFFFFC
FFFFFE
FFFFFF
FFFFFF
FFFFFF
FF007F
FF007F
FF0000
FF0000
FF0000
FF0000
FF0000
FF0FFF
FF0FFF
FF0FFF
FF0FFF
FF0FFF
FF0FFF
FF0FFF
FF0FFF
FF00FF
FF00FF
FF00FF
FF00FF
FFFFFF
FFFFFF
FFFFFF
FFFFFF
FFFFFF
FFFFFF
FFFFFF
FFFFCF
ENDCHAR
STARTCHAR 1E3E
ENCODING 7742
SWIDTH 680 0
DWIDTH 34 0
BBX 31 42 2 0
BITMAP
0001FF80
00FFFF80
01FFFE00
01FFC000
01F80000
00000000
00000000
0FF03FE0
1FF83FF0
3FF83FF8
7FF83FF8
7FF83FFC
FFF83FFE
FFF87FFE
FFFC7FFE
FFFC7FFE
FFFC7FFE
FFFC7FFE
FF7C7DFE
FF7CFDFE
FF7CF9FE
FF7EF9FE
FF3EF9FE
FF3EF9FE
FF3EF9FE
FF3EF9FE
FF3FF1FE
FF3FF1FE
FF1FF1FE
FF1FF1FE
FF1FF1FE
FF1FF1FE
FF1FE1FE
FF0FE1FE
FF0001FE
FF0001FE
FF0001FE
FF0001FE
FF0001FE
FF0001FE
FF0001FE
FF0001FE
ENDCHAR
STARTCHAR 1E3F
ENCODING 7743
SWIDTH 680 0
DWIDTH 34 0
BBX 31 42 2 0
BITMAP
0001FF80
00FFFF80
01FFFE00
01FFC000
01F80000
00000000
00000000
0FF03FE0
1FF83FF0
3FF83FF8
7FF83FF8
7FF83FFC
FFF83FFE
FFF87FFE
FFFC7FFE
FFFC7FFE
FFFC7FFE
FFFC7FFE
FF7C7DFE
FF7CFDFE
FF7CF9FE
FF7EF9FE
FF3EF9FE
FF3EF9FE
FF3EF9FE
FF3EF9FE
FF3FF1FE
FF3FF1FE
FF1FF1FE
FF1FF1FE
FF1FF1FE
FF1FF1FE
FF1FE1FE
FF0FE1FE
FF0001FE
FF0001FE
FF0001FE
FF0001FE
FF0001FE
FF0001FE
FF0001FE
FF0001FE
ENDCHAR
STARTCHAR 1E44
ENCODING 7748
SWIDTH 560 0
DWIDTH 28 0
BBX 25 43 2 0
BITMAP
003C0000
007E0000
007E0000
007E0000
007E0000
003E0000
00000000
00000000
0F007F80
1F007F80
3F807F80
7F807F80
7FC07F80
FFC07F80
FFE07F80
FFE07F80
FFF07F80
FFF07F80
FFF07F80
FFF87F80
FFF87F80
FFFC7F80
FFFC7F80
FFFE7F80
FFFE7F80
FFFFFF80
FF7FFF80
FF3FFF80
FF3FFF80
FF1FFF80
FF1FFF80
FF0FFF80
FF0FFF80
FF07FF80
FF07FF80
FF07FF80
FF03FF80
FF03FF80
FF01FF00
FF01FE00
FF00FC00
FF00FC00
FF007800
ENDCHAR
STARTCHAR 1E45
ENCODING 7749
SWIDTH 560 0
DWIDTH 28 0
BBX 25 43 2 0
BITMAP
003C0000
007E0000
007E0000
007E0000
007E0000
003E0000
00000000
00000000
0F007F80
1F007F80
3F807F80
7F807F80
7FC07F80
FFC07F80
FFE07F80
FFE07F80
FFF07F80
FFF07F80
FFF07F80
FFF87F80
FFF87F80
FFFC7F80
FFFC7F80
FFFE7F80
FFFE7F80
FFFFFF80
FF7FFF80
FF3FFF80
FF3FFF80
FF1FFF80
FF1FFF80
FF0FFF80
FF0FFF80
FF07FF80
FF07FF80
FF07FF80
FF03FF80
FF03FF80
FF01FF00
FF01FE00
FF00FC00
FF00FC00
FF007800
ENDCHAR
STARTCHAR 1E80
ENCODING 7808
SWIDTH 880 0
DWIDTH 44 0
BBX 40 42 2 0
BITMAP
001F800000
001FFC0000
001FFFE000
000FFFF800
000007F800
0000000000
0000000000
FF000000FF
FF000000FF
FF000000FF
FF000000FF
FF800000FF
FF800001FF
7F800001FF
7F800001FE
7F800001FE
7FC00001FE
7FC07F01FE
3FC0FF03FE
3FC0FF83FC
3FC1FF83FC
3FC1FF83FC
3FE1FF83FC
1FE1FFC7FC
1FE3FFC7F8
1FE3F7C7F8
1FE3F7C7F8
0FF3E7E7F8
0FF7E7E7F8
0FFFE7FFF0
0FFFE3FFF0
0FFFE3FFF0
07FFC3FFF0
07FFC3FFF0
07FFC1FFE0
07FFC1FFE0
07FFC1FFE0
03FF81FFE0
03FF81FFE0
03FF80FFC0
03FF80FFC0
01FF80FFC0
ENDCHAR
STARTCHAR 1E81
ENCODING 7809
SWIDTH 880 0
DWIDTH 44 0
BBX 40 42 2 0
BITMAP
001F800000
001FFC0000
001FFFE000
000FFFF800
000007F800
0000000000
0000000000
FF000000FF
FF000000FF
FF000000FF
FF000000FF
FF800000FF
FF800001FF
7F800001FF
7F800001FE
7F800001FE
7FC00001FE
7FC07F01FE
3FC0FF03FE
3FC0FF83FC
3FC1FF83FC
3FC1FF83FC
3FE1FF83FC
1FE1FFC7FC
1FE3FFC7F8
1FE3F7C7F8
1FE3F7C7F8
0FF3E7E7F8
0FF7E7E7F8
0FFFE7FFF0
0FFFE3FFF0
0FFFE3FFF0
07FFC3FFF0
07FFC3FFF0
07FFC1FFE0
07FFC1FFE0
07FFC1FFE0
03FF81FFE0
03FF81FFE0
03FF80FFC0
03FF80FFC0
01FF80FFC0
ENDCHAR
STARTCHAR 1E82
ENCODING 7810
SWIDTH 880 0
DWIDTH 44 0
BBX 40 42 2 0
BITMAP
00001FF800
000FFFF800
001FFFE000
001FFC0000
001F800000
0000000000
0000000000
FF000000FF
FF000000FF
FF000000FF
FF000000FF
FF800000FF
FF800001FF
7F800001FF
7F800001FE
7F800001FE
7FC00001FE
7FC07F01FE
3FC0FF03FE
3FC0FF83FC
3FC1FF83FC
3FC1FF83FC
3FE1FF83FC
1FE1FFC7FC
1FE3FFC7F8
1FE3F7C7F8
1FE3F7C7F8
0FF3E7E7F8
0FF7E7E7F8
0FFFE7FFF0
0FFFE3FFF0
0FFFE3FFF0
07FFC3FFF0
07FFC3FFF0
07FFC1FFE0
07FFC1FFE0
07FFC1FFE0
03FF81FFE0
03FF81FFE0
03FF80FFC0
03FF80FFC0
01FF80FFC0
ENDCHAR
STARTCHAR 1E83
ENCODING 7811
SWIDTH 880 0
DWIDTH 44 0
BBX 40 42 2 0
BITMAP
00001FF800
000FFFF800
001FFFE000
001FFC0000
001F800000
0000000000
0000000000
FF000000FF
FF000000FF
FF000000FF
FF000000FF
FF800000FF
FF800001FF
7F800001FF
7F800001FE
7F800001FE
7FC00001FE
7FC07F01FE
3FC0FF03FE
3FC0FF83FC
3FC1FF83FC
3FC1FF83FC
3FE1FF83FC
1FE1FFC7FC
1FE3FFC7F8
1FE3F7C7F8
1FE3F7C7F8
0FF3E7E7F8
0FF7E7E7F8
0FFFE7FFF0
0FFFE3FFF0
0FFFE3FFF0
07FFC3FFF0
07FFC3FFF0
07FFC1FFE0
07FFC1FFE0
07FFC1FFE0
03FF81FFE0
03FF81FFE0
03FF80FFC0
03FF80FFC0
01FF80FFC0
ENDCHAR
STARTCHAR 1E84
ENCODING 7812
SWIDTH 880 0
DWIDTH 44 0
BBX 40 42 2 0
BITMAP
0007C3C000
0007C3C000
0007C3C000
0007C3C000
0007C3C000
0000000000
0000000000
FF000000FF
FF000000FF
FF000000FF
FF000000FF
FF800000FF
FF800001FF
7F800001FF
7F800001FE
7F800001FE
7FC00001FE
7FC07F01FE
3FC0FF03FE
3FC0FF83FC
3FC1FF83FC
3FC1FF83FC
3FE1FF83FC
1FE1FFC7FC
1FE3FFC7F8
1FE3F7C7F8
1FE3F7C7F8
0FF3E7E7F8
0FF7E7E7F8
0FFFE7FFF0
0FFFE3FFF0
0FFFE3FFF0
07FFC3FFF0
07FFC3FFF0
07FFC1FFE0
07FFC1FFE0
07FFC1FFE0
03FF81FFE0
03FF81FFE0
03FF80FFC0
03FF80FFC0
01FF80FFC0
ENDCHAR
STARTCHAR 1E85
ENCODING 7813
SWIDTH 880 0
DWIDTH 44 0
BBX 40 42 2 0
BITMAP
0007C3C000
0007C3C000
0007C3C000
0007C3C000
0007C3C000
0000000000
0000000000
FF000000FF
FF000000FF
FF000000FF
FF000000FF
FF800000FF
FF800001FF
7F800001FF
7F800001FE
7F800001FE
7FC00001FE
7FC07F01FE
3FC0FF03FE
3FC0FF83FC
3FC1FF83FC
3FC1FF83FC
3FE1FF83FC
1FE1FFC7FC
1FE3FFC7F8
1FE3F7C7F8
1FE3F7C7F8
0FF3E7E7F8
0FF7E7E7F8
0FFFE7FFF0
0FFFE3FFF0
0FFFE3FFF0
07FFC3FFF0
07FFC3FFF0
07FFC1FFE0
07FFC1FFE0
07FFC1FFE0
03FF81FFE0
03FF81FFE0
03FF80FFC0
03FF80FFC0
01FF80FFC0
ENDCHAR
STARTCHAR 1EA0
ENCODING 7840
SWIDTH 580 0
DWIDTH 29 0
BBX 28 40 1 -5
BITMAP
01FFF000
03FFF800
03FFF800
03FFFC00
03FFFC00
07FFFC00
07FFFC00
07FFFC00
07E0FE00
07E0FE00
0FE0FE00
0FE0FE00
0FE07E00
0FE07F00
0FC07F00
1FC07F00
1FC07F00
1FC07F00
1FC07F80
1FC03F80
3F803F80
3FC07F80
3FFFFF80
3FFFFFC0
3FFFFFC0
7FFFFFC0
7FFFDFC0
7FBFDFC0
7F001FE0
7F001FE0
FF001FE0
FF001FE0
FF000FE0
FE000FF0
FE000FF0
00000000
00000000
003F8000
003F8000
003F8000
ENDCHAR
STARTCHAR 1EA1
ENCODING 7841
SWIDTH 580 0
DWIDTH 29 0
BBX 28 40 1 -5
BITMAP
01FFF000
03FFF800
03FFF800
03FFFC00
03FFFC00
07FFFC00
07FFFC00
07FFFC00
07E0FE00
07E0FE00
0FE0FE00
0FE0FE00
0FE07E00
0FE07F00
0FC07F00
1FC07F00
1FC07F00
1FC07F00
1FC07F80
1FC03F80
3F803F80
3FC07F80
3FFFFF80
3FFFFFC0
3FFFFFC0
7FFFFFC0
7FFFDFC0
7FBFDFC0
7F001FE0
7F001FE0
FF001FE0
FF001FE0
FF000FE0
FE000FF0
FE000FF0
00000000
00000000
003F8000
003F8000
003F8000
ENDCHAR
STARTCHAR 1EA2
ENCODING 7842
SWIDTH 580 0
DWIDTH 29 0
BBX 28 45 1 0
BITMAP
003F8000
007FC000
007FE000
0071C000
00038000
00070000
00070000
00070000
00000000
00000000
01FFF000
03FFF800
03FFF800
03FFFC00
03FFFC00
07FFFC00
07FFFC00
07FFFC00
07E0FE00
07E0FE00
0FE0FE00
0FE0FE00
0FE07E00
0FE07F00
0FC07F00
1FC07F00
1FC07F00
1FC07F00
1FC07F80
1FC03F80
3F803F80
3FC07F80
3FFFFF80
3FFFFFC0
3FFFFFC0
7FFFFFC0
7FFFDFC0
7FBFDFC0
7F001FE0
7F001FE0
FF001FE0
FF001FE0
FF000FE0
FE000FF0
FE000FF0
ENDCHAR
STARTCHAR 1EA3
ENCODING 7843
SWIDTH 580 0
DWIDTH 29 0
BBX 28 45 1 0
BITMAP
003F8000
007FC000
007FE000
0071C000
00038000
00070000
00070000
00070000
00000000
00000000
01FFF000
03FFF800
03FFF800
03FFFC00
03FFFC00
07FFFC00
07FFFC00
07FFFC00
07E0FE00
07E0FE00
0FE0FE00
0FE0FE00
0FE07E00
0FE07F00
0FC07F00
1FC07F00
1FC07F00
1FC07F00
1FC07F80
1FC03F80
3F803F80
3FC07F80
3FFFFF80
3FFFFFC0
3FFFFFC0
7FFFFFC0
7FFFDFC0
7FBFDFC0
7F001FE0
7F001FE0
FF001FE0
FF001FE0
FF000FE0
FE000FF0
FE000FF0
ENDCHAR
STARTCHAR 1EA4
ENCODING 7844
SWIDTH 580 0
DWIDTH 29 0
BBX 28 50 1 0
BITMAP
001FFC00
07FFFC00
0FFFF000
0FFE0000
0FC00000
00000000
00000000
03FFF000
07FFF800
0FFFFC00
1FFFFF00
1F803F00
1F001F00
00000000
00000000
01FFF000
03FFF800
03FFF800
03FFFC00
03FFFC00
07FFFC00
07FFFC00
07FFFC00
07E0FE00
07E0FE00
0FE0FE00
0FE0FE00
0FE07E00
0FE07F00
0FC07F00
1FC07F00
1FC07F00
1FC07F00
1FC07F80
1FC03F80
3F803F80
3FC07F80
3FFFFF80
3FFFFFC0
3FFFFFC0
7FFFFFC0
7FFFDFC0
7FBFDFC0
7F001FE0
7F001FE0
FF001FE0
FF001FE0
FF000FE0
FE000FF0
FE000FF0
ENDCHAR
STARTCHAR 1EA5
ENCODING 7845
SWIDTH 580 0
DWIDTH 29 0
BBX 28 50 1 0
BITMAP
001FFC00
07FFFC00
0FFFF000
0FFE0000
0FC00000
00000000
00000000
03FFF000
07FFF800
0FFFFC00
1FFFFF00
1F803F00
1F001F00
00000000
00000000
01FFF000
03FFF800
03FFF800
03FFFC00
03FFFC00
07FFFC00
07FFFC00
07FFFC00
07E0FE00
07E0FE00
0FE0FE00
0FE0FE00
0FE07E00
0FE07F00
0FC07F00
1FC07F00
1FC07F00
1FC07F00
1FC07F80
1FC03F80
3F803F80
3FC07F80
3FFFFF80
3FFFFFC0
3FFFFFC0
7FFFFFC0
7FFFDFC0
7FBFDFC0
7F001FE0
7F001FE0
FF001FE0
FF001FE0
FF000FE0
FE000FF0
FE000FF0
ENDCHAR
STARTCHAR 1EA6
ENCODING 7846
SWIDTH 580 0
DWIDTH 29 0
BBX 28 50 1 0
BITMAP
0FE00000
0FFF0000
0FFFF800
03FFFC00
0000FC00
00000000
00000000
03FFF000
07FFF800
0FFFFC00
1FFFFF00
1F803F00
1F001F00
00000000
00000000
01FFF000
03FFF800
03FFF800
03FFFC00
03FFFC00
07FFFC00
07FFFC00
07FFFC00
07E0FE00
07E0FE00
0FE0FE00
0FE0FE00
0FE07E00
0FE07F00
0FC07F00
1FC07F00
1FC07F00
1FC07F00
1FC07F80
1FC03F80
3F803F80
3FC07F80
3FFFFF80
3FFFFFC0
3FFFFFC0
7FFFFFC0
7FFFDFC0
7FBFDFC0
7F001FE0
7F001FE0
FF001FE0
FF001FE0
FF000FE0
FE000FF0
FE000FF0
ENDCHAR
STARTCHAR 1EA7
ENCODING 7847
SWIDTH 580 0
DWIDTH 29 0
BBX 28 50 1 0
BITMAP
0FE00000
0FFF0000
0FFFF800
03FFFC00
0000FC00
00000000
00000000
03FFF000
07FFF800
0FFFFC00
1FFFFF00
1F803F00
1F001F00
00000000
00000000
01FFF000
03FFF800
03FFF800
03FFFC00
03FFFC00
07FFFC00
07FFFC00
07FFFC00
07E0FE00
07E0FE00
0FE0FE00
0FE0FE00
0FE07E00
0FE07F00
0FC07F00
1FC07F00
1FC07F00
1FC07F00
1FC07F80
1FC03F80
3F803F80
3FC07F80
3FFFFF80
3FFFFFC0
3FFFFFC0
7FFFFFC0
7FFFDFC0
7FBFDFC0
7F001FE0
7F001FE0
FF001FE0
FF001FE0
FF000FE0
FE000FF0
FE000FF0
ENDCHAR
STARTCHAR 1EA8
ENCODING 7848
SWIDTH 580 0
DWIDTH 29 0
BBX 28 53 1 0
BITMAP
003FC000
007FC000
007FE000
0071C000
00038000
00070000
00070000
00070000
00000000
00000000
03FFF000
07FFF800
0FFFFC00
1FFFFF00
1F803F00
1F001F00
00000000
00000000
01FFF000
03FFF800
03FFF800
03FFFC00
03FFFC00
07FFFC00
07FFFC00
07FFFC00
07E0FE00
07E0FE00
0FE0FE00
0FE0FE00
0FE07E00
0FE07F00
0FC07F00
1FC07F00
1FC07F00
1FC07F00
1FC07F80
1FC03F80
3F803F80
3FC07F80
3FFFFF80
3FFFFFC0
3FFFFFC0
7FFFFFC0
7FFFDFC0
7FBFDFC0
7F001FE0
7F001FE0
FF001FE0
FF001FE0
FF000FE0
FE000FF0
FE000FF0
ENDCHAR
STARTCHAR 1EA9
ENCODING 7849
SWIDTH 580 0
DWIDTH 29 0
BBX 28 53 1 0
BITMAP
003FC000
007FC000
007FE000
0071C000
00038000
00070000
00070000
00070000
00000000
00000000
03FFF000
07FFF800
0FFFFC00
1FFFFF00
1F803F00
1F001F00
00000000
00000000
01FFF000
03FFF800
03FFF800
03FFFC00
03FFFC00
07FFFC00
07FFFC00
07FFFC00
07E0FE00
07E0FE00
0FE0FE00
0FE0FE00
0FE07E00
0FE07F00
0FC07F00
1FC07F00
1FC07F00
1FC07F00
1FC07F80
1FC03F80
3F803F80
3FC07F80
3FFFFF80
3FFFFFC0
3FFFFFC0
7FFFFFC0
7FFFDFC0
7FBFDFC0
7F001FE0
7F001FE0
FF001FE0
FF001FE0
FF000FE0
FE000FF0
FE000FF0
ENDCHAR
STARTCHAR 1EAA
ENCODING 7850
SWIDTH 580 0
DWIDTH 29 0
BBX 28 52 1 0
BITMAP
00600000
01FC0300
07FF8F00
1FFFFF00
1F8FFF00
1E01FE00
1C003000
00000000
00000000
03FFF000
07FFF800
0FFFFC00
1FFFFF00
1F803F00
1F001F00
00000000
00000000
01FFF000
03FFF800
03FFF800
03FFFC00
03FFFC00
07FFFC00
07FFFC00
07FFFC00
07E0FE00
07E0FE00
0FE0FE00
0FE0FE00
0FE07E00
0FE07F00
0FC07F00
1FC07F00
1FC07F00
1FC07F00
1FC07F80
1FC03F80
3F803F80
3FC07F80
3FFFFF80
3FFFFFC0
3FFFFFC0
7FFFFFC0
7FFFDFC0
7FBFDFC0
7F001FE0
7F001FE0
FF001FE0
FF001FE0
FF000FE0
FE000FF0
FE000FF0
ENDCHAR
STARTCHAR 1EAB
ENCODING 7851
SWIDTH 580 0
DWIDTH 29 0
BBX 28 52 1 0
BITMAP
00600000
01FC0300
07FF8F00
1FFFFF00
1F8FFF00
1E01FE00
1C003000
00000000
00000000
03FFF000
07FFF800
0FFFFC00
1FFFFF00
1F803F00
1F001F00
00000000
00000000
01FFF000
03FFF800
03FFF800
03FFFC00
03FFFC00
07FFFC00
07FFFC00
07FFFC00
07E0FE00
07E0FE00
0FE0FE00
0FE0FE00
0FE07E00
0FE07F00
0FC07F00
1FC07F00
1FC07F00
1FC07F00
1FC07F80
1FC03F80
3F803F80
3FC07F80
3FFFFF80
3FFFFFC0
3FFFFFC0
7FFFFFC0
7FFFDFC0
7FBFDFC0
7F001FE0
7F001FE0
FF001FE0
FF001FE0
FF000FE0
FE000FF0
FE000FF0
ENDCHAR
STARTCHAR 1EAC
ENCODING 7852
SWIDTH 580 0
DWIDTH 29 0
BBX 28 48 1 -5
BITMAP
03FFF000
07FFF800
0FFFFC00
1FFFFF00
1F803F00
1F001F00
00000000
00000000
01FFF000
03FFF800
03FFF800
03FFFC00
03FFFC00
07FFFC00
07FFFC00
07FFFC00
07E0FE00
07E0FE00
0FE0FE00
0FE0FE00
0FE07E00
0FE07F00
0FC07F00
1FC07F00
1FC07F00
1FC07F00
1FC07F80
1FC03F80
3F803F80
3FC07F80
3FFFFF80
3FFFFFC0
3FFFFFC0
7FFFFFC0
7FFFDFC0
7FBFDFC0
7F001FE0
7F001FE0
FF001FE0
FF001FE0
FF000FE0
FE000FF0
FE000FF0
00000000
00000000
003F8000
003F8000
003F8000
ENDCHAR
STARTCHAR 1EAD
ENCODING 7853
SWIDTH 580 0
DWIDTH 29 0
BBX 28 48 1 -5
BITMAP
03FFF000
07FFF800
0FFFFC00
1FFFFF00
1F803F00
1F001F00
00000000
00000000
01FFF000
03FFF800
03FFF800
03FFFC00
03FFFC00
07FFFC00
07FFFC00
07FFFC00
07E0FE00
07E0FE00
0FE0FE00
0FE0FE00
0FE07E00
0FE07F00
0FC07F00
1FC07F00
1FC07F00
1FC07F00
1FC07F80
1FC03F80
3F803F80
3FC07F80
3FFFFF80
3FFFFFC0
3FFFFFC0
7FFFFFC0
7FFFDFC0
7FBFDFC0
7F001FE0
7F001FE0
FF001FE0
FF001FE0
FF000FE0
FE000FF0
FE000FF0
00000000
00000000
003F8000
003F8000
003F8000
ENDCHAR
STARTCHAR 1EAE
ENCODING 7854
SWIDTH 580 0
DWIDTH 29 0
BBX 28 50 1 0
BITMAP
001FFC00
07FFFC00
0FFFF000
0FFE0000
0FC00000
00000000
00000000
1F001F00
1F803F00
1FFFFF00
0FFFFC00
07FFF800
03FFF000
00000000
00000000
01FFF000
03FFF800
03FFF800
03FFFC00
03FFFC00
07FFFC00
07FFFC00
07FFFC00
07E0FE00
07E0FE00
0FE0FE00
0FE0FE00
0FE07E00
0FE07F00
0FC07F00
1FC07F00
1FC07F00
1FC07F00
1FC07F80
1FC03F80
3F803F80
3FC07F80
3FFFFF80
3FFFFFC0
3FFFFFC0
7FFFFFC0
7FFFDFC0
7FBFDFC0
7F001FE0
7F001FE0
FF001FE0
FF001FE0
FF000FE0
FE000FF0
FE000FF0
ENDCHAR
STARTCHAR 1EAF
ENCODING 7855
SWIDTH 580 0
DWIDTH 29 0
BBX 28 50 1 0
BITMAP
001FFC00
07FFFC00
0FFFF000
0FFE0000
0FC00000
00000000
00000000
1F001F00
1F803F00
1FFFFF00
0FFFFC00
07FFF800
03FFF000
00000000
00000000
01FFF000
03FFF800
03FFF800
03FFFC00
03FFFC00
07FFFC00
07FFFC00
07FFFC00
07E0FE00
07E0FE00
0FE0FE00
0FE0FE00
0FE07E00
0FE07F00
0FC07F00
1FC07F00
1FC07F00
1FC07F00
1FC07F80
1FC03F80
3F803F80
3FC07F80
3FFFFF80
3FFFFFC0
3FFFFFC0
7FFFFFC0
7FFFDFC0
7FBFDFC0
7F001FE0
7F001FE0
FF001FE0
FF001FE0
FF000FE0
FE000FF0
FE000FF0
ENDCHAR
STARTCHAR 1EB0
ENCODING 7856
SWIDTH 580 0
DWIDTH 29 0
BBX 28 50 1 0
BITMAP
0FE00000
0FFF0000
0FFFF800
03FFFC00
0000FC00
00000000
00000000
1F001F00
1F803F00
1FFFFF00
0FFFFC00
07FFF800
03FFF000
00000000
00000000
01FFF000
03FFF800
03FFF800
03FFFC00
03FFFC00
07FFFC00
07FFFC00
07FFFC00
07E0FE00
07E0FE00
0FE0FE00
0FE0FE00
0FE07E00
0FE07F00
0FC07F00
1FC07F00
1FC07F00
1FC07F00
1FC07F80
1FC03F80
3F803F80
3FC07F80
3FFFFF80
3FFFFFC0
3FFFFFC0
7FFFFFC0
7FFFDFC0
7FBFDFC0
7F001FE0
7F001FE0
FF001FE0
FF001FE0
FF000FE0
FE000FF0
FE000FF0
ENDCHAR
STARTCHAR 1EB1
ENCODING 7857
SWIDTH 580 0
DWIDTH 29 0
BBX 28 50 1 0
BITMAP
0FE00000
0FFF0000
0FFFF800
03FFFC00
0000FC00
00000000
00000000
1F001F00
1F803F00
1FFFFF00
0FFFFC00
07FFF800
03FFF000
00000000
00000000
01FFF000
03FFF800
03FFF800
03FFFC00
03FFFC00
07FFFC00
07FFFC00
07FFFC00
07E0FE00
07E0FE00
0FE0FE00
0FE0FE00
0FE07E00
0FE07F00
0FC07F00
1FC07F00
1FC07F00
1FC07F00
1FC07F80
1FC03F80
3F803F80
3FC07F80
3FFFFF80
3FFFFFC0
3FFFFFC0
7FFFFFC0
7FFFDFC0
7FBFDFC0
7F001FE0
7F001FE0
FF001FE0
FF001FE0
FF000FE0
FE000FF0
FE000FF0
ENDCHAR
STARTCHAR 1EB2
ENCODING 7858
SWIDTH 580 0
DWIDTH 29 0
BBX 28 51 1 0
BITMAP
003FC000
007FC000
007FC000
0073C000
00038000
00070000
00070000
00070000
1F001F00
1F803F00
1FFFFF00
0FFFFC00
07FFF800
03FFF000
00000000
00000000
01FFF000
03FFF800
03FFF800
03FFFC00
03FFFC00
07FFFC00
07FFFC00
07FFFC00
07E0FE00
07E0FE00
0FE0FE00
0FE0FE00
0FE07E00
0FE07F00
0FC07F00
1FC07F00
1FC07F00
1FC07F00
1FC07F80
1FC03F80
3F803F80
3FC07F80
3FFFFF80
3FFFFFC0
3FFFFFC0
7FFFFFC0
7FFFDFC0
7FBFDFC0
7F001FE0
7F001FE0
FF001FE0
FF001FE0
FF000FE0
FE000FF0
FE000FF0
ENDCHAR
STARTCHAR 1EB3
ENCODING 7859
SWIDTH 580 0
DWIDTH 29 0
BBX 28 51 1 0
BITMAP
003FC000
007FC000
007FC000
0073C000
00038000
00070000
00070000
00070000
1F001F00
1F803F00
1FFFFF00
0FFFFC00
07FFF800
03FFF000
00000000
00000000
01FFF000
03FFF800
03FFF800
03FFFC00
03FFFC00
07FFFC00
07FFFC00
07FFFC00
07E0FE00
07E0FE00
0FE0FE00
0FE0FE00
0FE07E00
0FE07F00
0FC07F00
1FC07F00
1FC07F00
1FC07F00
1FC07F80
1FC03F80
3F803F80
3FC07F80
3FFFFF80
3FFFFFC0
3FFFFFC0
7FFFFFC0
7FFFDFC0
7FBFDFC0
7F001FE0
7F001FE0
FF001FE0
FF001FE0
FF000FE0
FE000FF0
FE000FF0
ENDCHAR
STARTCHAR 1EB4
ENCODING 7860
SWIDTH 580 0
DWIDTH 29 0
BBX 28 52 1 0
BITMAP
00600000
01FC0300
07FF8F00
1FFFFF00
1F8FFF00
1E01FE00
1C003000
00000000
00000000
1F001F00
1F803F00
1FFFFF00
0FFFFC00
07FFF800
03FFF000
00000000
00000000
01FFF000
03FFF800
03FFF800
03FFFC00
03FFFC00
07FFFC00
07FFFC00
07FFFC00
07E0FE00
07E0FE00
0FE0FE00
0FE0FE00
0FE07E00
0FE07F00
0FC07F00
1FC07F00
1FC07F00
1FC07F00
1FC07F80
1FC03F80
3F803F80
3FC07F80
3FFFFF80
3FFFFFC0
3FFFFFC0
7FFFFFC0
7FFFDFC0
7FBFDFC0
7F001FE0
7F001FE0
FF001FE0
FF001FE0
FF000FE0
FE000FF0
FE000FF0
ENDCHAR
STARTCHAR 1EB5
ENCODING 7861
SWIDTH 580 0
DWIDTH 29 0
BBX 28 52 1 0
BITMAP
00600000
01FC0300
07FF8F00
1FFFFF00
1F8FFF00
1E01FE00
1C003000
00000000
00000000
1F001F00
1F803F00
1FFFFF00
0FFFFC00
07FFF800
03FFF000
00000000
00000000
01FFF000
03FFF800
03FFF800
03FFFC00
03FFFC00
07FFFC00
07FFFC00
07FFFC00
07E0FE00
07E0FE00
0FE0FE00
0FE0FE00
0FE07E00
0FE07F00
0FC07F00
1FC07F00
1FC07F00
1FC07F00
1FC07F80
1FC03F80
3F803F80
3FC07F80
3FFFFF80
3FFFFFC0
3FFFFFC0
7FFFFFC0
7FFFDFC0
7FBFDFC0
7F001FE0
7F001FE0
FF001FE0
FF001FE0
FF000FE0
FE000FF0
FE000FF0
ENDCHAR
STARTCHAR 1EB6
ENCODING 7862
SWIDTH 580 0
DWIDTH 29 0
BBX 28 48 1 -5
BITMAP
1F001F00
1F803F00
1FFFFF00
0FFFFC00
07FFF800
03FFF000
00000000
00000000
01FFF000
03FFF800
03FFF800
03FFFC00
03FFFC00
07FFFC00
07FFFC00
07FFFC00
07E0FE00
07E0FE00
0FE0FE00
0FE0FE00
0FE07E00
0FE07F00
0FC07F00
1FC07F00
1FC07F00
1FC07F00
1FC07F80
1FC03F80
3F803F80
3FC07F80
3FFFFF80
3FFFFFC0
3FFFFFC0
7FFFFFC0
7FFFDFC0
7FBFDFC0
7F001FE0
7F001FE0
FF001FE0
FF001FE0
FF000FE0
FE000FF0
FE000FF0
00000000
00000000
003F8000
003F8000
003F8000
ENDCHAR
STARTCHAR 1EB7
ENCODING 7863
SWIDTH 580 0
DWIDTH 29 0
BBX 28 48 1 -5
BITMAP
1F001F00
1F803F00
1FFFFF00
0FFFFC00
07FFF800
03FFF000
00000000
00000000
01FFF000
03FFF800
03FFF800
03FFFC00
03FFFC00
07FFFC00
07FFFC00
07FFFC00
07E0FE00
07E0FE00
0FE0FE00
0FE0FE00
0FE07E00
0FE07F00
0FC07F00
1FC07F00
1FC07F00
1FC07F00
1FC07F80
1FC03F80
3F803F80
3FC07F80
3FFFFF80
3FFFFFC0
3FFFFFC0
7FFFFFC0
7FFFDFC0
7FBFDFC0
7F001FE0
7F001FE0
FF001FE0
FF001FE0
FF000FE0
FE000FF0
FE000FF0
00000000
00000000
003F8000
003F8000
003F8000
ENDCHAR
STARTCHAR 1EB8
ENCODING 7864
SWIDTH 540 0
DWIDTH 27 0
BBX 23 40 2 -5
BITMAP
FFFFF0
FFFFF0
FFFFF8
FFFFFC
FFFFFC
FFFFFE
FFFFFE
FFFFFE
FF00FE
FF007E
FF0000
FF0000
FF0000
FF0000
FFFF80
FFFF80
FFFF80
FFFF80
FFFF80
FFFF80
FFFF80
FF0000
FF0000
FF0000
FF0000
FF007E
FF00FE
FFFFFE
FFFFFE
FFFFFE
FFFFFC
FFFFFC
FFFFF8
FFFFF0
FFFFF0
000000
000000
03FE00
03FE00
03FE00
ENDCHAR
STARTCHAR 1EB9
ENCODING 7865
SWIDTH 540 0
DWIDTH 27 0
BBX 23 40 2 -5
BITMAP
FFFFF0
FFFFF0
FFFFF8
FFFFFC
FFFFFC
FFFFFE
FFFFFE
FFFFFE
FF00FE
FF007E
FF0000
FF0000
FF0000
FF0000
FFFF80
FFFF80
FFFF80
FFFF80
FFFF80
FFFF80
FFFF80
FF0000
FF0000
FF0000
FF0000
FF007E
FF00FE
FFFFFE
FFFFFE
FFFFFE
FFFFFC
FFFFFC
FFFFF8
FFFFF0
FFFFF0
000000
000000
03FE00
03FE00
03FE00
ENDCHAR
STARTCHAR 1EBA
ENCODING 7866
SWIDTH 540 0
DWIDTH 27 0
BBX 23 45 2 0
BITMAP
01FC00
03FE00
03FE00
039E00
001C00
003800
003800
003800
000000
000000
FFFFF0
FFFFF0
FFFFF8
FFFFFC
FFFFFC
FFFFFE
FFFFFE
FFFFFE
FF00FE
FF007E
FF0000
FF0000
FF0000
FF0000
FFFF80
FFFF80
FFFF80
FFFF80
FFFF80
FFFF80
FFFF80
FF0000
FF0000
FF0000
FF0000
FF007E
FF00FE
FFFFFE
FFFFFE
FFFFFE
FFFFFC
FFFFFC
FFFFF8
FFFFF0
FFFFF0
ENDCHAR
STARTCHAR 1EBB
ENCODING 7867
SWIDTH 540 0
DWIDTH 27 0
BBX 23 45 2 0
BITMAP
01FC00
03FE00
03FE00
039E00
001C00
003800
003800
003800
000000
000000
FFFFF0
FFFFF0
FFFFF8
FFFFFC
FFFFFC
FFFFFE
FFFFFE
FFFFFE
FF00FE
FF007E
FF0000
FF0000
FF0000
FF0000
FFFF80
FFFF80
FFFF80
FFFF80
FFFF80
FFFF80
FFFF80
FF0000
FF0000
FF0000
FF0000
FF007E
FF00FE
FFFFFE
FFFFFE
FFFFFE
FFFFFC
FFFFFC
FFFFF8
FFFFF0
FFFFF0
ENDCHAR
STARTCHAR 1EBC
ENCODING 7868
SWIDTH 540 0
DWIDTH 27 0
BBX 23 44 2 0
BITMAP
030000
0FE000
3FFC70
FFFFF0
FCFFF0
F01FF0
E00380
000000
000000
FFFFF0
FFFFF0
FFFFF8
FFFFFC
FFFFFC
FFFFFE
FFFFFE
FFFFFE
FF00FE
FF007E
FF0000
FF0000
FF0000
FF0000
FFFF80
FFFF80
FFFF80
FFFF80
FFFF80
FFFF80
FFFF80
FF0000
FF0000
FF0000
FF0000
FF007E
FF00FE
FFFFFE
FFFFFE
FFFFFE
FFFFFC
FFFFFC
FFFFF8
FFFFF0
FFFFF0
ENDCHAR
STARTCHAR 1EBD
ENCODING 7869
SWIDTH 540 0
DWIDTH 27 0
BBX 23 44 2 0
BITMAP
030000
0FE000
3FFC70
FFFFF0
FCFFF0
F01FF0
E00380
000000
000000
FFFFF0
FFFFF0
FFFFF8
FFFFFC
FFFFFC
FFFFFE
FFFFFE
FFFFFE
FF00FE
FF007E
FF0000
FF0000
FF0000
FF0000
FFFF80
FFFF80
FFFF80
FFFF80
FFFF80
FFFF80
FFFF80
FF0000
FF0000
FF0000
FF0000
FF007E
FF00FE
FFFFFE
FFFFFE
FFFFFE
FFFFFC
FFFFFC
FFFFF8
FFFFF0
FFFFF0
ENDCHAR
STARTCHAR 1EBE
ENCODING 7870
SWIDTH 540 0
DWIDTH 27 0
BBX 23 50 2 0
BITMAP
007FF0
1FFFF0
3FFFC0
3FF800
3F0000
000000
000000
1FFF80
3FFFC0
7FFFE0
FFFFF0
FC01F0
F000F0
000000
000000
FFFFF0
FFFFF0
FFFFF8
FFFFFC
FFFFFC
FFFFFE
FFFFFE
FFFFFE
FF00FE
FF007E
FF0000
FF0000
FF0000
FF0000
FFFF80
FFFF80
FFFF80
FFFF80
FFFF80
FFFF80
FFFF80
FF0000
FF0000
FF0000
FF0000
FF007E
FF00FE
FFFFFE
FFFFFE
FFFFFE
FFFFFC
FFFFFC
FFFFF8
FFFFF0
FFFFF0
ENDCHAR
STARTCHAR 1EBF
ENCODING 7871
SWIDTH 540 0
DWIDTH 27 0
BBX 23 50 2 0
BITMAP
007FF0
1FFFF0
3FFFC0
3FF800
3F0000
000000
000000
1FFF80
3FFFC0
7FFFE0
FFFFF0
FC01F0
F000F0
000000
000000
FFFFF0
FFFFF0
FFFFF8
FFFFFC
FFFFFC
FFFFFE
FFFFFE
FFFFFE
FF00FE
FF007E
FF0000
FF0000
FF0000
FF0000
FFFF80
FFFF80
FFFF80
FFFF80
FFFF80
FFFF80
FFFF80
FF0000
FF0000
FF0000
FF0000
FF007E
FF00FE
FFFFFE
FFFFFE
FFFFFE
FFFFFC
FFFFFC
FFFFF8
FFFFF0
FFFFF0
ENDCHAR
STARTCHAR 1EC0
ENCODING 7872
SWIDTH 540 0
DWIDTH 27 0
BBX 23 50 2 0
BITMAP
3F8000
3FFC00
3FFFE0
0FFFF0
0007F0
000000
000000
1FFF80
3FFFC0
7FFFE0
FFFFF0
FC01F0
F000F0
000000
000000
FFFFF0
FFFFF0
FFFFF8
FFFFFC
FFFFFC
FFFFFE
FFFFFE
FFFFFE
FF00FE
FF007E
FF0000
FF0000
FF0000
FF0000
FFFF80
FFFF80
FFFF80
FFFF80
FFFF80
FFFF80
FFFF80
FF0000
FF0000
FF0000
FF0000
FF007E
FF00FE
FFFFFE
FFFFFE
FFFFFE
FFFFFC
FFFFFC
FFFFF8
FFFFF0
FFFFF0
ENDCHAR
STARTCHAR 1EC1
ENCODING 7873
SWIDTH 540 0
DWIDTH 27 0
BBX 23 50 2 0
BITMAP
3F8000
3FFC00
3FFFE0
0FFFF0
0007F0
000000
000000
1FFF80
3FFFC0
7FFFE0
FFFFF0
FC01F0
F000F0
000000
000000
FFFFF0
FFFFF0
FFFFF8
FFFFFC
FFFFFC
FFFFFE
FFFFFE
FFFFFE
FF00FE
FF007E
FF0000
FF0000
FF0000
FF0000
FFFF80
FFFF80
FFFF80
FFFF80
FFFF80
FFFF80
FFFF80
FF0000
FF0000
FF0000
FF0000
FF007E
FF00FE
FFFFFE
FFFFFE
FFFFFE
FFFFFC
FFFFFC
FFFFF8
FFFFF0
FFFFF0
ENDCHAR
STARTCHAR 1EC2
ENCODING 7874
SWIDTH 540 0
DWIDTH 27 0
BBX 23 53 2 0
BITMAP
01FC00
03FE00
03FE00
039E00
003C00
003800
003800
003800
000000
000000
1FFF80
3FFFC0
7FFFE0
FFFFF0
FC01F0
F000F0
000000
000000
FFFFF0
FFFFF0
FFFFF8
FFFFFC
FFFFFC
FFFFFE
FFFFFE
FFFFFE
FF00FE
FF007E
FF0000
FF0000
FF0000
FF0000
FFFF80
FFFF80
FFFF80
FFFF80
FFFF80
FFFF80
FFFF80
FF0000
FF0000
FF0000
FF0000
FF007E
FF00FE
FFFFFE
FFFFFE
FFFFFE
FFFFFC
FFFFFC
FFFFF8
FFFFF0
FFFFF0
ENDCHAR
STARTCHAR 1EC3
ENCODING 7875
SWIDTH 540 0
DWIDTH 27 0
BBX 23 53 2 0
BITMAP
01FC00
03FE00
03FE00
039E00
003C00
003800
003800
003800
000000
000000
1FFF80
3FFFC0
7FFFE0
FFFFF0
FC01F0
F000F0
000000
000000
FFFFF0
FFFFF0
FFFFF8
FFFFFC
FFFFFC
FFFFFE
FFFFFE
FFFFFE
FF00FE
FF007E
FF0000
FF0000
FF0000
FF0000
FFFF80
FFFF80
FFFF80
FFFF80
FFFF80
FFFF80
FFFF80
FF0000
FF0000
FF0000
FF0000
FF007E
FF00FE
FFFFFE
FFFFFE
FFFFFE
FFFFFC
FFFFFC
FFFFF8
FFFFF0
FFFFF0
ENDCHAR
STARTCHAR 1EC4
ENCODING 7876
SWIDTH 540 0
DWIDTH 27 0
BBX 23 52 2 0
BITMAP
030000
0FE010
3FFC70
FFFFF0
FC7FF0
F01FE0
E00380
000000
000000
1FFF80
3FFFC0
7FFFE0
FFFFF0
FC01F0
F000F0
000000
000000
FFFFF0
FFFFF0
FFFFF8
FFFFFC
FFFFFC
FFFFFE
FFFFFE
FFFFFE
FF00FE
FF007E
FF0000
FF0000
FF0000
FF0000
FFFF80
FFFF80
FFFF80
FFFF80
FFFF80
FFFF80
FFFF80
FF0000
FF0000
FF0000
FF0000
FF007E
FF00FE
FFFFFE
FFFFFE
FFFFFE
FFFFFC
FFFFFC
FFFFF8
FFFFF0
FFFFF0
ENDCHAR
STARTCHAR 1EC5
ENCODING 7877
SWIDTH 540 0
DWIDTH 27 0
BBX 23 52 2 0
BITMAP
030000
0FE010
3FFC70
FFFFF0
FC7FF0
F01FE0
E00380
000000
000000
1FFF80
3FFFC0
7FFFE0
FFFFF0
FC01F0
F000F0
000000
000000
FFFFF0
FFFFF0
FFFFF8
FFFFFC
FFFFFC
FFFFFE
FFFFFE
FFFFFE
FF00FE
FF007E
FF0000
FF0000
FF0000
FF0000
FFFF80
FFFF80
FFFF80
FFFF80
FFFF80
FFFF80
FFFF80
FF0000
FF0000
FF0000
FF0000
FF007E
FF00FE
FFFFFE
FFFFFE
FFFFFE
FFFFFC
FFFFFC
FFFFF8
FFFFF0
FFFFF0
ENDCHAR
STARTCHAR 1EC6
ENCODING 7878
SWIDTH 540 0
DWIDTH 27 0
BBX 23 48 2 -5
BITMAP
1FFF80
3FFFC0
7FFFE0
FFFFF0
FC01F0
F000F0
000000
000000
FFFFF0
FFFFF0
FFFFF8
FFFFFC
FFFFFC
FFFFFE
FFFFFE
FFFFFE
FF00FE
FF007E
FF0000
FF0000
FF0000
FF0000
FFFF80
FFFF80
FFFF80
FFFF80
FFFF80
FFFF80
FFFF80
FF0000
FF0000
FF0000
FF0000
FF007E
FF00FE
FFFFFE
FFFFFE
FFFFFE
FFFFFC
FFFFFC
FFFFF8
FFFFF0
FFFFF0
000000
000000
03FE00
03FE00
03FE00
ENDCHAR
STARTCHAR 1EC7
ENCODING 7879
SWIDTH 540 0
DWIDTH 27 0
BBX 23 48 2 -5
BITMAP
1FFF80
3FFFC0
7FFFE0
FFFFF0
FC01F0
F000F0
000000
000000
FFFFF0
FFFFF0
FFFFF8
FFFFFC
FFFFFC
FFFFFE
FFFFFE
FFFFFE
FF00FE
FF007E
FF0000
FF0000
FF0000
FF0000
FFFF80
FFFF80
FFFF80
FFFF80
FFFF80
FFFF80
FFFF80
FF0000
FF0000
FF0000
FF0000
FF007E
FF00FE
FFFFFE
FFFFFE
FFFFFE
FFFFFC
FFFFFC
FFFFF8
FFFFF0
FFFFF0
000000
000000
03FE00
03FE00
03FE00
ENDCHAR
STARTCHAR 1EC8
ENCODING 7880
SWIDTH 220 0
DWIDTH 11 0
BBX 10 45 1 0
BITMAP
7F00
FF80
FFC0
E380
0700
0E00
0E00
0E00
0000
0000
7F80
7F80
7F80
7F80
7F80
7F80
7F80
7F80
7F80
7F80
7F80
7F80
7F80
7F80
7F80
7F80
7F80
7F80
7F80
7F80
7F80
7F80
7F80
7F80
7F80
7F80
7F80
7F80
7F80
7F80
7F80
7F80
7F80
7F80
7F80
ENDCHAR
STARTCHAR 1EC9
ENCODING 7881
SWIDTH 220 0
DWIDTH 11 0
BBX 10 45 1 0
BITMAP
7F00
FF80
FFC0
E380
0700
0E00
0E00
0E00
0000
0000
7F80
7F80
7F80
7F80
7F80
7F80
7F80
7F80
7F80
7F80
7F80
7F80
7F80
7F80
7F80
7F80
7F80
7F80
7F80
7F80
7F80
7F80
7F80
7F80
7F80
7F80
7F80
7F80
7F80
7F80
7F80
7F80
7F80
7F80
7F80
ENDCHAR
STARTCHAR 1ECA
ENCODING 7882
SWIDTH 220 0
DWIDTH 11 0
BBX 8 40 2 -5
BITMAP
FF
FF
FF
FF
FF
FF
FF
FF
FF
FF
FF
FF
FF
FF
FF
FF
FF
FF
FF
FF
FF
FF
FF
FF
FF
FF
FF
FF
FF
FF
FF
FF
FF
FF
FF
00
00
FF
FF
FF
ENDCHAR
STARTCHAR 1ECB
ENCODING 7883
SWIDTH 220 0
DWIDTH 11 0
BBX 8 40 2 -5
BITMAP
FF
FF
FF
FF
FF
FF
FF
FF
FF
FF
FF
FF
FF
FF
FF
FF
FF
FF
FF
FF
FF
FF
FF
FF
FF
FF
FF
FF
FF
FF
FF
FF
FF
FF
FF
00
00
FF
FF
FF
ENDCHAR
STARTCHAR 1ECC
ENCODING 7884
SWIDTH 620 0
DWIDTH 31 0
BBX 27 40 2 -5
BITMAP
0FFFFE00
1FFFFF00
3FFFFF80
7FFFFFC0
7FFFFFC0
FFFFFFE0
FFFFFFE0
FFFFFFE0
FF001FE0
FF001FE0
FF001FE0
FF001FE0
FF001FE0
FF001FE0
FF001FE0
FF001FE0
FF001FE0
FF001FE0
FF001FE0
FF001FE0
FF001FE0
FF001FE0
FF001FE0
FF001FE0
FF001FE0
FF001FE0
FF001FE0
FFFFFFE0
FFFFFFE0
FFFFFFE0
7FFFFFC0
7FFFFFC0
3FFFFF80
1FFFFF00
0FFFFE00
00000000
00000000
007FC000
007FC000
007FC000
ENDCHAR
STARTCHAR 1ECD
ENCODING 7885
SWIDTH 620 0
DWIDTH 31 0
BBX 27 40 2 -5
BITMAP
0FFFFE00
1FFFFF00
3FFFFF80
7FFFFFC0
7FFFFFC0
FFFFFFE0
FFFFFFE0
FFFFFFE0
FF001FE0
FF001FE0
FF001FE0
FF001FE0
FF001FE0
FF001FE0
FF001FE0
FF001FE0
FF001FE0
FF001FE0
FF001FE0
FF001FE0
FF001FE0
FF001FE0
FF001FE0
FF001FE0
FF001FE0
FF001FE0
FF001FE0
FFFFFFE0
FFFFFFE0
FFFFFFE0
7FFFFFC0
7FFFFFC0
3FFFFF80
1FFFFF00
0FFFFE00
00000000
00000000
007FC000
007FC000
007FC000
ENDCHAR
STARTCHAR 1ECE
ENCODING 7886
SWIDTH 620 0
DWIDTH 31 0
BBX 27 45 2 0
BITMAP
003FC000
003FC000
007FE000
0071C000
00038000
00078000
00070000
00070000
00000000
00000000
0FFFFE00
1FFFFF00
3FFFFF80
7FFFFFC0
7FFFFFC0
FFFFFFE0
FFFFFFE0
FFFFFFE0
FF001FE0
FF001FE0
FF001FE0
FF001FE0
FF001FE0
FF001FE0
FF001FE0
FF001FE0
FF001FE0
FF001FE0
FF001FE0
FF001FE0
FF001FE0
FF001FE0
FF001FE0
FF001FE0
FF001FE0
FF001FE0
FF001FE0
FFFFFFE0
FFFFFFE0
FFFFFFE0
7FFFFFC0
7FFFFFC0
3FFFFF80
1FFFFF00
0FFFFE00
ENDCHAR
STARTCHAR 1ECF
ENCODING 7887
SWIDTH 620 0
DWIDTH 31 0
BBX 27 45 2 0
BITMAP
003FC000
003FC000
007FE000
0071C000
00038000
00078000
00070000
00070000
00000000
00000000
0FFFFE00
1FFFFF00
3FFFFF80
7FFFFFC0
7FFFFFC0
FFFFFFE0
FFFFFFE0
FFFFFFE0
FF001FE0
FF001FE0
FF001FE0
FF001FE0
FF001FE0
FF001FE0
FF001FE0
FF001FE0
FF001FE0
FF001FE0
FF001FE0
FF001FE0
FF001FE0
FF001FE0
FF001FE0
FF001FE0
FF001FE0
FF001FE0
FF001FE0
FFFFFFE0
FFFFFFE0
FFFFFFE0
7FFFFFC0
7FFFFFC0
3FFFFF80
1FFFFF00
0FFFFE00
ENDCHAR
STARTCHAR 1ED0
ENCODING 7888
SWIDTH 620 0
DWIDTH 31 0
BBX 27 50 2 0
BITMAP
000FFE00
03FFFE00
07FFF000
07FE0000
07E00000
00000000
00000000
01FFF000
03FFFC00
0FFFFE00
1FFFFF00
1F803F00
1F001F00
00000000
00000000
0FFFFE00
1FFFFF00
3FFFFF80
7FFFFFC0
7FFFFFC0
FFFFFFE0
FFFFFFE0
FFFFFFE0
FF001FE0
FF001FE0
FF001FE0
FF001FE0
FF001FE0
FF001FE0
FF001FE0
FF001FE0
FF001FE0
FF001FE0
FF001FE0
FF001FE0
FF001FE0
FF001FE0
FF001FE0
FF001FE0
FF001FE0
FF001FE0
FF001FE0
FFFFFFE0
FFFFFFE0
FFFFFFE0
7FFFFFC0
7FFFFFC0
3FFFFF80
1FFFFF00
0FFFFE00
ENDCHAR
STARTCHAR 1ED1
ENCODING 7889
SWIDTH 620 0
DWIDTH 31 0
BBX 27 50 2 0
BITMAP
000FFE00
03FFFE00
07FFF000
07FE0000
07E00000
00000000
00000000
01FFF000
03FFFC00
0FFFFE00
1FFFFF00
1F803F00
1F001F00
00000000
00000000
0FFFFE00
1FFFFF00
3FFFFF80
7FFFFFC0
7FFFFFC0
FFFFFFE0
FFFFFFE0
FFFFFFE0
FF001FE0
FF001FE0
FF001FE0
FF001FE0
FF001FE0
FF001FE0
FF001FE0
FF001FE0
FF001FE0
FF001FE0
FF001FE0
FF001FE0
FF001FE0
FF001FE0
FF001FE0
FF001FE0
FF001FE0
FF001FE0
FF001FE0
FFFFFFE0
FFFFFFE0
FFFFFFE0
7FFFFFC0
7FFFFFC0
3FFFFF80
1FFFFF00
0FFFFE00
ENDCHAR
STARTCHAR 1ED2
ENCODING 7890
SWIDTH 620 0
DWIDTH 31 0
BBX 27 50 2 0
BITMAP
07F00000
07FF8000
07FFFC00
01FFFE00
0000FE00
00000000
00000000
01FFF000
03FFFC00
0FFFFE00
1FFFFF00
1F803F00
1F001F00
00000000
00000000
0FFFFE00
1FFFFF00
3FFFFF80
7FFFFFC0
7FFFFFC0
FFFFFFE0
FFFFFFE0
FFFFFFE0
FF001FE0
FF001FE0
FF001FE0
FF001FE0
FF001FE0
FF001FE0
FF001FE0
FF001FE0
FF001FE0
FF001FE0
FF001FE0
FF001FE0
FF001FE0
FF001FE0
FF001FE0
FF001FE0
FF001FE0
FF001FE0
FF001FE0
FFFFFFE0
FFFFFFE0
FFFFFFE0
7FFFFFC0
7FFFFFC0
3FFFFF80
1FFFFF00
0FFFFE00
ENDCHAR
STARTCHAR 1ED3
ENCODING 7891
SWIDTH 620 0
DWIDTH 31 0
BBX 27 50 2 0
BITMAP
07F00000
07FF8000
07FFFC00
01FFFE00
0000FE00
00000000
00000000
01FFF000
03FFFC00
0FFFFE00
1FFFFF00
1F803F00
1F001F00
00000000
00000000
0FFFFE00
1FFFFF00
3FFFFF80
7FFFFFC0
7FFFFFC0
FFFFFFE0
FFFFFFE0
FFFFFFE0
FF001FE0
FF001FE0
FF001FE0
FF001FE0
FF001FE0
FF001FE0
FF001FE0
FF001FE0
FF001FE0
FF001FE0
FF001FE0
FF001FE0
FF001FE0
FF001FE0
FF001FE0
FF001FE0
FF001FE0
FF001FE0
FF001FE0
FFFFFFE0
FFFFFFE0
FFFFFFE0
7FFFFFC0
7FFFFFC0
3FFFFF80
1FFFFF00
0FFFFE00
ENDCHAR
STARTCHAR 1ED4
ENCODING 7892
SWIDTH 620 0
DWIDTH 31 0
BBX 27 53 2 0
BITMAP
003FC000
003FC000
007FE000
0071C000
00038000
00078000
00070000
00070000
00000000
00000000
01FFF000
03FFFC00
0FFFFE00
1FFFFF00
1F803F00
1F001F00
00000000
00000000
0FFFFE00
1FFFFF00
3FFFFF80
7FFFFFC0
7FFFFFC0
FFFFFFE0
FFFFFFE0
FFFFFFE0
FF001FE0
FF001FE0
FF001FE0
FF001FE0
FF001FE0
FF001FE0
FF001FE0
FF001FE0
FF001FE0
FF001FE0
FF001FE0
FF001FE0
FF001FE0
FF001FE0
FF001FE0
FF001FE0
FF001FE0
FF001FE0
FF001FE0
FFFFFFE0
FFFFFFE0
FFFFFFE0
7FFFFFC0
7FFFFFC0
3FFFFF80
1FFFFF00
0FFFFE00
ENDCHAR
STARTCHAR 1ED5
ENCODING 7893
SWIDTH 620 0
DWIDTH 31 0
BBX 27 53 2 0
BITMAP
003FC000
003FC000
007FE000
0071C000
00038000
00078000
00070000
00070000
00000000
00000000
01FFF000
03FFFC00
0FFFFE00
1FFFFF00
1F803F00
1F001F00
00000000
00000000
0FFFFE00
1FFFFF00
3FFFFF80
7FFFFFC0
7FFFFFC0
FFFFFFE0
FFFFFFE0
FFFFFFE0
FF001FE0
FF001FE0
FF001FE0
FF001FE0
FF001FE0
FF001FE0
FF001FE0
FF001FE0
FF001FE0
FF001FE0
FF001FE0
FF001FE0
FF001FE0
FF001FE0
FF001FE0
FF001FE0
FF001FE0
FF001FE0
FF001FE0
FFFFFFE0
FFFFFFE0
FFFFFFE0
7FFFFFC0
7FFFFFC0
3FFFFF80
1FFFFF00
0FFFFE00
ENDCHAR
STARTCHAR 1ED6
ENCODING 7894
SWIDTH 620 0
DWIDTH 31 0
BBX 27 52 2 0
BITMAP
00600000
01FC0300
07FF8F00
1FFFFF00
1F8FFF00
1E01FE00
1C003000
00000000
00000000
01FFF000
03FFFC00
0FFFFE00
1FFFFF00
1F803F00
1F001F00
00000000
00000000
0FFFFE00
1FFFFF00
3FFFFF80
7FFFFFC0
7FFFFFC0
FFFFFFE0
FFFFFFE0
FFFFFFE0
FF001FE0
FF001FE0
FF001FE0
FF001FE0
FF001FE0
FF001FE0
FF001FE0
FF001FE0
FF001FE0
FF001FE0
FF001FE0
FF001FE0
FF001FE0
FF001FE0
FF001FE0
FF001FE0
FF001FE0
FF001FE0
FF001FE0
FFFFFFE0
FFFFFFE0
FFFFFFE0
7FFFFFC0
7FFFFFC0
3FFFFF80
1FFFFF00
0FFFFE00
ENDCHAR
STARTCHAR 1ED7
ENCODING 7895
SWIDTH 620 0
DWIDTH 31 0
BBX 27 52 2 0
BITMAP
00600000
01FC0300
07FF8F00
1FFFFF00
1F8FFF00
1E01FE00
1C003000
00000000
00000000
01FFF000
03FFFC00
0FFFFE00
1FFFFF00
1F803F00
1F001F00
00000000
00000000
0FFFFE00
1FFFFF00
3FFFFF80
7FFFFFC0
7FFFFFC0
FFFFFFE0
FFFFFFE0
FFFFFFE0
FF001FE0
FF001FE0
FF001FE0
FF001FE0
FF001FE0
FF001FE0
FF001FE0
FF001FE0
FF001FE0
FF001FE0
FF001FE0
FF001FE0
FF001FE0
FF001FE0
FF001FE0
FF001FE0
FF001FE0
FF001FE0
FF001FE0
FFFFFFE0
FFFFFFE0
FFFFFFE0
7FFFFFC0
7FFFFFC0
3FFFFF80
1FFFFF00
0FFFFE00
ENDCHAR
STARTCHAR 1ED8
ENCODING 7896
SWIDTH 620 0
DWIDTH 31 0
BBX 27 48 2 -5
BITMAP
01FFF000
03FFFC00
0FFFFE00
1FFFFF00
1F803F00
1F001F00
00000000
00000000
0FFFFE00
1FFFFF00
3FFFFF80
7FFFFFC0
7FFFFFC0
FFFFFFE0
FFFFFFE0
FFFFFFE0
FF001FE0
FF001FE0
FF001FE0
FF001FE0
FF001FE0
FF001FE0
FF001FE0
FF001FE0
FF001FE0
FF001FE0
FF001FE0
FF001FE0
FF001FE0
FF001FE0
FF001FE0
FF001FE0
FF001FE0
FF001FE0
FF001FE0
FFFFFFE0
FFFFFFE0
FFFFFFE0
7FFFFFC0
7FFFFFC0
3FFFFF80
1FFFFF00
0FFFFE00
00000000
00000000
007FC000
007FC000
007FC000
ENDCHAR
STARTCHAR 1ED9
ENCODING 7897
SWIDTH 620 0
DWIDTH 31 0
BBX 27 48 2 -5
BITMAP
01FFF000
03FFFC00
0FFFFE00
1FFFFF00
1F803F00
1F001F00
00000000
00000000
0FFFFE00
1FFFFF00
3FFFFF80
7FFFFFC0
7FFFFFC0
FFFFFFE0
FFFFFFE0
FFFFFFE0
FF001FE0
FF001FE0
FF001FE0
FF001FE0
FF001FE0
FF001FE0
FF001FE0
FF001FE0
FF001FE0
FF001FE0
FF001FE0
FF001FE0
FF001FE0
FF001FE0
FF001FE0
FF001FE0
FF001FE0
FF001FE0
FF001FE0
FFFFFFE0
FFFFFFE0
FFFFFFE0
7FFFFFC0
7FFFFFC0
3FFFFF80
1FFFFF00
0FFFFE00
00000000
00000000
007FC000
007FC000
007FC000
ENDCHAR
STARTCHAR 1EDA
ENCODING 7898
SWIDTH 620 0
DWIDTH 31 0
BBX 29 42 2 0
BITMAP
0007FE00
03FFFE00
07FFF800
07FF0000
07E00078
00000078
000000F8
0FFFFFF8
1FFFFFF8
3FFFFFE0
7FFFFFC0
7FFFFFC0
FFFFFFE0
FFFFFFE0
FFFFFFE0
FF001FE0
FF001FE0
FF001FE0
FF001FE0
FF001FE0
FF001FE0
FF001FE0
FF001FE0
FF001FE0
FF001FE0
FF001FE0
FF001FE0
FF001FE0
FF001FE0
FF001FE0
FF001FE0
FF001FE0
FF001FE0
FF001FE0
FFFFFFE0
FFFFFFE0
FFFFFFE0
7FFFFFC0
7FFFFFC0
3FFFFF80
1FFFFF00
0FFFFE00
ENDCHAR
STARTCHAR 1EDB
ENCODING 7899
SWIDTH 620 0
DWIDTH 31 0
BBX 29 42 2 0
BITMAP
0007FE00
03FFFE00
07FFF800
07FF0000
07E00078
00000078
000000F8
0FFFFFF8
1FFFFFF8
3FFFFFE0
7FFFFFC0
7FFFFFC0
FFFFFFE0
FFFFFFE0
FFFFFFE0
FF001FE0
FF001FE0
FF001FE0
FF001FE0
FF001FE0
FF001FE0
FF001FE0
FF001FE0
FF001FE0
FF001FE0
FF001FE0
FF001FE0
FF001FE0
FF001FE0
FF001FE0
FF001FE0
FF001FE0
FF001FE0
FF001FE0
FFFFFFE0
FFFFFFE0
FFFFFFE0
7FFFFFC0
7FFFFFC0
3FFFFF80
1FFFFF00
0FFFFE00
ENDCHAR
STARTCHAR 1EDC
ENCODING 7900
SWIDTH 620 0
DWIDTH 31 0
BBX 29 42 2 0
BITMAP
0FC00000
0FFE0000
0FFFF000
07FFFC00
0007FC78
00000078
000000F8
0FFFFFF8
1FFFFFF8
3FFFFFE0
7FFFFFC0
7FFFFFC0
FFFFFFE0
FFFFFFE0
FFFFFFE0
FF001FE0
FF001FE0
FF001FE0
FF001FE0
FF001FE0
FF001FE0
FF001FE0
FF001FE0
FF001FE0
FF001FE0
FF001FE0
FF001FE0
FF001FE0
FF001FE0
FF001FE0
FF001FE0
FF001FE0
FF001FE0
FF001FE0
FFFFFFE0
FFFFFFE0
FFFFFFE0
7FFFFFC0
7FFFFFC0
3FFFFF80
1FFFFF00
0FFFFE00
ENDCHAR
STARTCHAR 1EDD
ENCODING 7901
SWIDTH 620 0
DWIDTH 31 0
BBX 29 42 2 0
BITMAP
0FC00000
0FFE0000
0FFFF000
07FFFC00
0007FC78
00000078
000000F8
0FFFFFF8
1FFFFFF8
3FFFFFE0
7FFFFFC0
7FFFFFC0
FFFFFFE0
FFFFFFE0
FFFFFFE0
FF001FE0
FF001FE0
FF001FE0
FF001FE0
FF001FE0
FF001FE0
FF001FE0
FF001FE0
FF001FE0
FF001FE0
FF001FE0
FF001FE0
FF001FE0
FF001FE0
FF001FE0
FF001FE0
FF001FE0
FF001FE0
FF001FE0
FFFFFFE0
FFFFFFE0
FFFFFFE0
7FFFFFC0
7FFFFFC0
3FFFFF80
1FFFFF00
0FFFFE00
ENDCHAR
STARTCHAR 1EDE
ENCODING 7902
SWIDTH 620 0
DWIDTH 31 0
BBX 29 45 2 0
BITMAP
003FC000
003FC000
007FE000
0071C000
00038000
00078000
00070000
00070078
00000078
000000F8
0FFFFFF8
1FFFFFF8
3FFFFFE0
7FFFFFC0
7FFFFFC0
FFFFFFE0
FFFFFFE0
FFFFFFE0
FF001FE0
FF001FE0
FF001FE0
FF001FE0
FF001FE0
FF001FE0
FF001FE0
FF001FE0
FF001FE0
FF001FE0
FF001FE0
FF001FE0
FF001FE0
FF001FE0
FF001FE0
FF001FE0
FF001FE0
FF001FE0
FF001FE0
FFFFFFE0
FFFFFFE0
FFFFFFE0
7FFFFFC0
7FFFFFC0
3FFFFF80
1FFFFF00
0FFFFE00
ENDCHAR
STARTCHAR 1EDF
ENCODING 7903
SWIDTH 620 0
DWIDTH 31 0
BBX 29 45 2 0
BITMAP
003FC000
003FC000
007FE000
0071C000
00038000
00078000
00070000
00070078
00000078
000000F8
0FFFFFF8
1FFFFFF8
3FFFFFE0
7FFFFFC0
7FFFFFC0
FFFFFFE0
FFFFFFE0
FFFFFFE0
FF001FE0
FF001FE0
FF001FE0
FF001FE0
FF001FE0
FF001FE0
FF001FE0
FF001FE0
FF001FE0
FF001FE0
FF001FE0
FF001FE0
FF001FE0
FF001FE0
FF001FE0
FF001FE0
FF001FE0
FF001FE0
FF001FE0
FFFFFFE0
FFFFFFE0
FFFFFFE0
7FFFFFC0
7FFFFFC0
3FFFFF80
1FFFFF00
0FFFFE00
ENDCHAR
STARTCHAR 1EE0
ENCODING 7904
SWIDTH 620 0
DWIDTH 31 0
BBX 29 46 2 0
BITMAP
00600000
01FC0300
07FF8F00
1FFFFF00
1F8FFF00
1E01FE00
1C003000
00000000
00000078
00000078
000000F8
0FFFFFF8
1FFFFFF8
3FFFFFE0
7FFFFFC0
7FFFFFC0
FFFFFFE0
FFFFFFE0
FFFFFFE0
FF001FE0
FF001FE0
FF001FE0
FF001FE0
FF001FE0
FF001FE0
FF001FE0
FF001FE0
FF001FE0
FF001FE0
FF001FE0
FF001FE0
FF001FE0
FF001FE0
FF001FE0
FF001FE0
FF001FE0
FF001FE0
FF001FE0
FFFFFFE0
FFFFFFE0
FFFFFFE0
7FFFFFC0
7FFFFFC0
3FFFFF80
1FFFFF00
0FFFFE00
ENDCHAR
STARTCHAR 1EE1
ENCODING 7905
SWIDTH 620 0
DWIDTH 31 0
BBX 29 46 2 0
BITMAP
00600000
01FC0300
07FF8F00
1FFFFF00
1F8FFF00
1E01FE00
1C003000
00000000
00000078
00000078
000000F8
0FFFFFF8
1FFFFFF8
3FFFFFE0
7FFFFFC0
7FFFFFC0
FFFFFFE0
FFFFFFE0
FFFFFFE0
FF001FE0
FF001FE0
FF001FE0
FF001FE0
FF001FE0
FF001FE0
FF001FE0
FF001FE0
FF001FE0
FF001FE0
FF001FE0
FF001FE0
FF001FE0
FF001FE0
FF001FE0
FF001FE0
FF001FE0
FF001FE0
FF001FE0
FFFFFFE0
FFFFFFE0
FFFFFFE0
7FFFFFC0
7FFFFFC0
3FFFFF80
1FFFFF00
0FFFFE00
ENDCHAR
STARTCHAR 1EE2
ENCODING 7906
SWIDTH 620 0
DWIDTH 31 0
BBX 29 43 2 -5
BITMAP
00000078
00000078
000000F8
0FFFFFF8
1FFFFFF8
3FFFFFE0
7FFFFFC0
7FFFFFC0
FFFFFFE0
FFFFFFE0
FFFFFFE0
FF001FE0
FF001FE0
FF001FE0
FF001FE0
FF001FE0
FF001FE0
FF001FE0
FF001FE0
FF001FE0
FF001FE0
FF001FE0
FF001FE0
FF001FE0
FF001FE0
FF001FE0
FF001FE0
FF001FE0
FF001FE0
FF001FE0
FFFFFFE0
FFFFFFE0
FFFFFFE0
7FFFFFC0
7FFFFFC0
3FFFFF80
1FFFFF00
0FFFFE00
00000000
00000000
007FC000
007FC000
007FC000
ENDCHAR
STARTCHAR 1EE3
ENCODING 7907
SWIDTH 620 0
DWIDTH 31 0
BBX 29 43 2 -5
BITMAP
00000078
00000078
000000F8
0FFFFFF8
1FFFFFF8
3FFFFFE0
7FFFFFC0
7FFFFFC0
FFFFFFE0
FFFFFFE0
FFFFFFE0
FF001FE0
FF001FE0
FF001FE0
FF001FE0
FF001FE0
FF001FE0
FF001FE0
FF001FE0
FF001FE0
FF001FE0
FF001FE0
FF001FE0
FF001FE0
FF001FE0
FF001FE0
FF001FE0
FF001FE0
FF001FE0
FF001FE0
FFFFFFE0
FFFFFFE0
FFFFFFE0
7FFFFFC0
7FFFFFC0
3FFFFF80
1FFFFF00
0FFFFE00
00000000
00000000
007FC000
007FC000
007FC000
ENDCHAR
STARTCHAR 1EE4
ENCODING 7908
SWIDTH 600 0
DWIDTH 30 0
BBX 27 40 2 -5
BITMAP
FF001FE0
FF001FE0
FF001FE0
FF001FE0
FF001FE0
FF001FE0
FF001FE0
FF001FE0
FF001FE0
FF001FE0
FF001FE0
FF001FE0
FF001FE0
FF001FE0
FF001FE0
FF001FE0
FF001FE0
FF001FE0
FF001FE0
FF001FE0
FF001FE0
FF001FE0
FF001FE0
FF001FE0
FF001FE0
FF001FE0
FF003FE0
FFFFFFE0
FFFFFFE0
FFFFFFE0
7FFFFFC0
7FFFFF80
3FFFFF00
1FFFFF00
0FFFFE00
00000000
00000000
007FC000
007FC000
007FC000
ENDCHAR
STARTCHAR 1EE5
ENCODING 7909
SWIDTH 600 0
DWIDTH 30 0
BBX 27 40 2 -5
BITMAP
FF001FE0
FF001FE0
FF001FE0
FF001FE0
FF001FE0
FF001FE0
FF001FE0
FF001FE0
FF001FE0
FF001FE0
FF001FE0
FF001FE0
FF001FE0
FF001FE0
FF001FE0
FF001FE0
FF001FE0
FF001FE0
FF001FE0
FF001FE0
FF001FE0
FF001FE0
FF001FE0
FF001FE0
FF001FE0
FF001FE0
FF003FE0
FFFFFFE0
FFFFFFE0
FFFFFFE0
7FFFFFC0
7FFFFF80
3FFFFF00
1FFFFF00
0FFFFE00
00000000
00000000
007FC000
007FC000
007FC000
ENDCHAR
STARTCHAR 1EE6
ENCODING 7910
SWIDTH 600 0
DWIDTH 30 0
BBX 27 45 2 0
BITMAP
003F8000
007FC000
007FC000
00738000
00078000
000F0000
000E0000
000E0000
00000000
00000000
FF001FE0
FF001FE0
FF001FE0
FF001FE0
FF001FE0
FF001FE0
FF001FE0
FF001FE0
FF001FE0
FF001FE0
FF001FE0
FF001FE0
FF001FE0
FF001FE0
FF001FE0
FF001FE0
FF001FE0
FF001FE0
FF001FE0
FF001FE0
FF001FE0
FF001FE0
FF001FE0
FF001FE0
FF001FE0
FF001FE0
FF003FE0
FFFFFFE0
FFFFFFE0
FFFFFFE0
7FFFFFC0
7FFFFF80
3FFFFF00
1FFFFF00
0FFFFE00
ENDCHAR
STARTCHAR 1EE7
ENCODING 7911
SWIDTH 600 0
DWIDTH 30 0
BBX 27 45 2 0
BITMAP
003F8000
007FC000
007FC000
00738000
00078000
000F0000
000E0000
000E0000
00000000
00000000
FF001FE0
FF001FE0
FF001FE0
FF001FE0
FF001FE0
FF001FE0
FF001FE0
FF001FE0
FF001FE0
FF001FE0
FF001FE0
FF001FE0
FF001FE0
FF001FE0
FF001FE0
FF001FE0
FF001FE0
FF001FE0
FF001FE0
FF001FE0
FF001FE0
FF001FE0
FF001FE0
FF001FE0
FF001FE0
FF001FE0
FF003FE0
FFFFFFE0
FFFFFFE0
FFFFFFE0
7FFFFFC0
7FFFFF80
3FFFFF00
1FFFFF00
0FFFFE00
ENDCHAR
STARTCHAR 1EE8
ENCODING 7912
SWIDTH 600 0
DWIDTH 30 0
BBX 29 42 2 0
BITMAP
0007FE00
03FFFE00
07FFF800
07FF0000
07E000F0
000000F8
000000F8
FF001FF8
FF001FF0
FF001FE0
FF001FC0
FF001FC0
FF001FE0
FF001FE0
FF001FE0
FF001FE0
FF001FE0
FF001FE0
FF001FE0
FF001FE0
FF001FE0
FF001FE0
FF001FE0
FF001FE0
FF001FE0
FF001FE0
FF001FE0
FF001FE0
FF001FE0
FF001FE0
FF001FE0
FF001FE0
FF001FE0
FF003FE0
FFFFFFE0
FFFFFFE0
FFFFFFE0
7FFFFFC0
7FFFFF80
3FFFFF00
1FFFFF00
0FFFFE00
ENDCHAR
STARTCHAR 1EE9
ENCODING 7913
SWIDTH 600 0
DWIDTH 30 0
BBX 29 42 2 0
BITMAP
0007FE00
03FFFE00
07FFF800
07FF0000
07E000F0
000000F8
000000F8
FF001FF8
FF001FF0
FF001FE0
FF001FC0
FF001FC0
FF001FE0
FF001FE0
FF001FE0
FF001FE0
FF001FE0
FF001FE0
FF001FE0
FF001FE0
FF001FE0
FF001FE0
FF001FE0
FF001FE0
FF001FE0
FF001FE0
FF001FE0
FF001FE0
FF001FE0
FF001FE0
FF001FE0
FF001FE0
FF001FE0
FF003FE0
FFFFFFE0
FFFFFFE0
FFFFFFE0
7FFFFFC0
7FFFFF80
3FFFFF00
1FFFFF00
0FFFFE00
ENDCHAR
STARTCHAR 1EEA
ENCODING 7914
SWIDTH 600 0
DWIDTH 30 0
BBX 29 42 2 0
BITMAP
0FC00000
0FFE0000
0FFFF000
07FFFC00
0007FCF0
000000F8
000000F8
FF001FF8
FF001FF0
FF001FE0
FF001FC0
FF001FC0
FF001FE0
FF001FE0
FF001FE0
FF001FE0
FF001FE0
FF001FE0
FF001FE0
FF001FE0
FF001FE0
FF001FE0
FF001FE0
FF001FE0
FF001FE0
FF001FE0
FF001FE0
FF001FE0
FF001FE0
FF001FE0
FF001FE0
FF001FE0
FF001FE0
FF003FE0
FFFFFFE0
FFFFFFE0
FFFFFFE0
7FFFFFC0
7FFFFF80
3FFFFF00
1FFFFF00
0FFFFE00
ENDCHAR
STARTCHAR 1EEB
ENCODING 7915
SWIDTH 600 0
DWIDTH 30 0
BBX 29 42 2 0
BITMAP
0FC00000
0FFE0000
0FFFF000
07FFFC00
0007FCF0
000000F8
000000F8
FF001FF8
FF001FF0
FF001FE0
FF001FC0
FF001FC0
FF001FE0
FF001FE0
FF001FE0
FF001FE0
FF001FE0
FF001FE0
FF001FE0
FF001FE0
FF001FE0
FF001FE0
FF001FE0
FF001FE0
FF001FE0
FF001FE0
FF001FE0
FF001FE0
FF001FE0
FF001FE0
FF001FE0
FF001FE0
FF001FE0
FF003FE0
FFFFFFE0
FFFFFFE0
FFFFFFE0
7FFFFFC0
7FFFFF80
3FFFFF00
1FFFFF00
0FFFFE00
ENDCHAR
STARTCHAR 1EEC
ENCODING 7916
SWIDTH 600 0
DWIDTH 30 0
BBX 29 45 2 0
BITMAP
003F8000
007FC000
007FC000
0073C000
00078000
00070000
00070000
000700F0
000000F8
000000F8
FF001FF8
FF001FF0
FF001FE0
FF001FC0
FF001FC0
FF001FE0
FF001FE0
FF001FE0
FF001FE0
FF001FE0
FF001FE0
FF001FE0
FF001FE0
FF001FE0
FF001FE0
FF001FE0
FF001FE0
FF001FE0
FF001FE0
FF001FE0
FF001FE0
FF001FE0
FF001FE0
FF001FE0
FF001FE0
FF001FE0
FF003FE0
FFFFFFE0
FFFFFFE0
FFFFFFE0
7FFFFFC0
7FFFFF80
3FFFFF00
1FFFFF00
0FFFFE00
ENDCHAR
STARTCHAR 1EED
ENCODING 7917
SWIDTH 600 0
DWIDTH 30 0
BBX 29 45 2 0
BITMAP
003F8000
007FC000
007FC000
0073C000
00078000
00070000
00070000
000700F0
000000F8
000000F8
FF001FF8
FF001FF0
FF001FE0
FF001FC0
FF001FC0
FF001FE0
FF001FE0
FF001FE0
FF001FE0
FF001FE0
FF001FE0
FF001FE0
FF001FE0
FF001FE0
FF001FE0
FF001FE0
FF001FE0
FF001FE0
FF001FE0
FF001FE0
FF001FE0
FF001FE0
FF001FE0
FF001FE0
FF001FE0
FF001FE0
FF003FE0
FFFFFFE0
FFFFFFE0
FFFFFFE0
7FFFFFC0
7FFFFF80
3FFFFF00
1FFFFF00
0FFFFE00
ENDCHAR
STARTCHAR 1EEE
ENCODING 7918
SWIDTH 600 0
DWIDTH 30 0
BBX 29 46 2 0
BITMAP
00600000
01FC0300
07FF8F00
1FFFFF00
1F8FFF00
1E01FE00
1C003000
00000000
000000F0
000000F8
000000F8
FF001FF8
FF001FF0
FF001FE0
FF001FC0
FF001FC0
FF001FE0
FF001FE0
FF001FE0
FF001FE0
FF001FE0
FF001FE0
FF001FE0
FF001FE0
FF001FE0
FF001FE0
FF001FE0
FF001FE0
FF001FE0
FF001FE0
FF001FE0
FF001FE0
FF001FE0
FF001FE0
FF001FE0
FF001FE0
FF001FE0
FF003FE0
FFFFFFE0
FFFFFFE0
FFFFFFE0
7FFFFFC0
7FFFFF80
3FFFFF00
1FFFFF00
0FFFFE00
ENDCHAR
STARTCHAR 1EEF
ENCODING 7919
SWIDTH 600 0
DWIDTH 30 0
BBX 29 46 2 0
BITMAP
00600000
01FC0300
07FF8F00
1FFFFF00
1F8FFF00
1E01FE00
1C003000
00000000
000000F0
000000F8
000000F8
FF001FF8
FF001FF0
FF001FE0
FF001FC0
FF001FC0
FF001FE0
FF001FE0
FF001FE0
FF001FE0
FF001FE0
FF001FE0
FF001FE0
FF001FE0
FF001FE0
FF001FE0
FF001FE0
FF001FE0
FF001FE0
FF001FE0
FF001FE0
FF001FE0
FF001FE0
FF001FE0
FF001FE0
FF001FE0
FF001FE0
FF003FE0
FFFFFFE0
FFFFFFE0
FFFFFFE0
7FFFFFC0
7FFFFF80
3FFFFF00
1FFFFF00
0FFFFE00
ENDCHAR
STARTCHAR 1EF0
ENCODING 7920
SWIDTH 600 0
DWIDTH 30 0
BBX 29 43 2 -5
BITMAP
000000F0
000000F8
000000F8
FF001FF8
FF001FF0
FF001FE0
FF001FC0
FF001FC0
FF001FE0
FF001FE0
FF001FE0
FF001FE0
FF001FE0
FF001FE0
FF001FE0
FF001FE0
FF001FE0
FF001FE0
FF001FE0
FF001FE0
FF001FE0
FF001FE0
FF001FE0
FF001FE0
FF001FE0
FF001FE0
FF001FE0
FF001FE0
FF001FE0
FF003FE0
FFFFFFE0
FFFFFFE0
FFFFFFE0
7FFFFFC0
7FFFFF80
3FFFFF00
1FFFFF00
0FFFFE00
00000000
00000000
007FC000
007FC000
007FC000
ENDCHAR
STARTCHAR 1EF1
ENCODING 7921
SWIDTH 600 0
DWIDTH 30 0
BBX 29 43 2 -5
BITMAP
000000F0
000000F8
000000F8
FF001FF8
FF001FF0
FF001FE0
FF001FC0
FF001FC0
FF001FE0
FF001FE0
FF001FE0
FF001FE0
FF001FE0
FF001FE0
FF001FE0
FF001FE0
FF001FE0
FF001FE0
FF001FE0
FF001FE0
FF001FE0
FF001FE0
FF001FE0
FF001FE0
FF001FE0
FF001FE0
FF001FE0
FF001FE0
FF001FE0
FF003FE0
FFFFFFE0
FFFFFFE0
FFFFFFE0
7FFFFFC0
7FFFFF80
3FFFFF00
1FFFFF00
0FFFFE00
00000000
00000000
007FC000
007FC000
007FC000
ENDCHAR
STARTCHAR 1EF2
ENCODING 7922
SWIDTH 460 0
DWIDTH 23 0
BBX 23 42 0 0
BITMAP
1F8000
1FFC00
1FFFE0
0FFFF8
000FF8
000000
000000
FE00FE
FF00FE
FF01FE
FF01FE
7F81FE
7F83FE
7FC3FC
3FC3FC
3FC7F8
1FE7F8
1FE7F0
0FEFF0
0FFFF0
07FFE0
07FFE0
07FFC0
03FFC0
03FF80
01FF80
01FF00
00FF00
00FF00
00FF00
00FF00
00FF00
00FF00
00FF00
00FF00
00FF00
00FF00
00FF00
00FF00
00FF00
00FF00
00FF00
ENDCHAR
STARTCHAR 1EF3
ENCODING 7923
SWIDTH 460 0
DWIDTH 23 0
BBX 23 42 0 0
BITMAP
1F8000
1FFC00
1FFFE0
0FFFF8
000FF8
000000
000000
FE00FE
FF00FE
FF01FE
FF01FE
7F81FE
7F83FE
7FC3FC
3FC3FC
3FC7F8
1FE7F8
1FE7F0
0FEFF0
0FFFF0
07FFE0
07FFE0
07FFC0
03FFC0
03FF80
01FF80
01FF00
00FF00
00FF00
00FF00
00FF00
00FF00
00FF00
00FF00
00FF00
00FF00
00FF00
00FF00
00FF00
00FF00
00FF00
00FF00
ENDCHAR
STARTCHAR 1EF4
ENCODING 7924
SWIDTH 460 0
DWIDTH 23 0
BBX 23 40 0 -5
BITMAP
FE00FE
FF00FE
FF01FE
FF01FE
7F81FE
7F83FE
7FC3FC
3FC3FC
3FC7F8
1FE7F8
1FE7F0
0FEFF0
0FFFF0
07FFE0
07FFE0
07FFC0
03FFC0
03FF80
01FF80
01FF00
00FF00
00FF00
00FF00
00FF00
00FF00
00FF00
00FF00
00FF00
00FF00
00FF00
00FF00
00FF00
00FF00
00FF00
00FF00
000000
000000
00FF00
00FF00
00FF00
ENDCHAR
STARTCHAR 1EF5
ENCODING 7925
SWIDTH 460 0
DWIDTH 23 0
BBX 23 40 0 -5
BITMAP
FE00FE
FF00FE
FF01FE
FF01FE
7F81FE
7F83FE
7FC3FC
3FC3FC
3FC7F8
1FE7F8
1FE7F0
0FEFF0
0FFFF0
07FFE0
07FFE0
07FFC0
03FFC0
03FF80
01FF80
01FF00
00FF00
00FF00
00FF00
00FF00
00FF00
00FF00
00FF00
00FF00
00FF00
00FF00
00FF00
00FF00
00FF00
00FF00
00FF00
000000
000000
00FF00
00FF00
00FF00
ENDCHAR
STARTCHAR 1EF6
ENCODING 7926
SWIDTH 460 0
DWIDTH 23 0
BBX 23 45 0 0
BITMAP
00FE00
01FF00
01FF00
01CF00
000E00
001C00
001C00
001C00
000000
000000
FE00FE
FF00FE
FF01FE
FF01FE
7F81FE
7F83FE
7FC3FC
3FC3FC
3FC7F8
1FE7F8
1FE7F0
0FEFF0
0FFFF0
07FFE0
07FFE0
07FFC0
03FFC0
03FF80
01FF80
01FF00
00FF00
00FF00
00FF00
00FF00
00FF00
00FF00
00FF00
00FF00
00FF00
00FF00
00FF00
00FF00
00FF00
00FF00
00FF00
ENDCHAR
STARTCHAR 1EF7
ENCODING 7927
SWIDTH 460 0
DWIDTH 23 0
BBX 23 45 0 0
BITMAP
00FE00
01FF00
01FF00
01CF00
000E00
001C00
001C00
001C00
000000
000000
FE00FE
FF00FE
FF01FE
FF01FE
7F81FE
7F83FE
7FC3FC
3FC3FC
3FC7F8
1FE7F8
1FE7F0
0FEFF0
0FFFF0
07FFE0
07FFE0
07FFC0
03FFC0
03FF80
01FF80
01FF00
00FF00
00FF00
00FF00
00FF00
00FF00
00FF00
00FF00
00FF00
00FF00
00FF00
00FF00
00FF00
00FF00
00FF00
00FF00
ENDCHAR
STARTCHAR 1EF8
ENCODING 7928
SWIDTH 460 0
DWIDTH 23 0
BBX 23 45 0 0
BITMAP
01C000
07F804
1FFF1C
3FFFFC
3E3FFC
3C07F8
3000C0
000000
000000
000000
FE00FE
FF00FE
FF01FE
FF01FE
7F81FE
7F83FE
7FC3FC
3FC3FC
3FC7F8
1FE7F8
1FE7F0
0FEFF0
0FFFF0
07FFE0
07FFE0
07FFC0
03FFC0
03FF80
01FF80
01FF00
00FF00
00FF00
00FF00
00FF00
00FF00
00FF00
00FF00
00FF00
00FF00
00FF00
00FF00
00FF00
00FF00
00FF00
00FF00
ENDCHAR
STARTCHAR 1EF9
ENCODING 7929
SWIDTH 460 0
DWIDTH 23 0
BBX 23 45 0 0
BITMAP
01C000
07F804
1FFF1C
3FFFFC
3E3FFC
3C07F8
3000C0
000000
000000
000000
FE00FE
FF00FE
FF01FE
FF01FE
7F81FE
7F83FE
7FC3FC
3FC3FC
3FC7F8
1FE7F8
1FE7F0
0FEFF0
0FFFF0
07FFE0
07FFE0
07FFC0
03FFC0
03FF80
01FF80
01FF00
00FF00
00FF00
00FF00
00FF00
00FF00
00FF00
00FF00
00FF00
00FF00
00FF00
00FF00
00FF00
00FF00
00FF00
00FF00
ENDCHAR
STARTCHAR 2013
ENCODING 8211
SWIDTH 500 0
DWIDTH 25 0
BBX 23 5 1 14
BITMAP
FFFFFE
FFFFFE
FFFFFE
FFFFFE
FFFFFE
ENDCHAR
STARTCHAR 2014
ENCODING 8212
SWIDTH 1000 0
DWIDTH 50 0
BBX 48 5 1 14
BITMAP
FFFFFFFFFFFF
FFFFFFFFFFFF
FFFFFFFFFFFF
FFFFFFFFFFFF
FFFFFFFFFFFF
ENDCHAR
STARTCHAR 2018
ENCODING 8216
SWIDTH 200 0
DWIDTH 10 0
BBX 9 12 1 23
BITMAP
1F80
1F00
3F00
7E00
7C00
F800
F800
F800
F800
F800
F800
7800
ENDCHAR
STARTCHAR 2019
ENCODING 8217
SWIDTH 200 0
DWIDTH 10 0
BBX 9 12 1 23
BITMAP
1F00
1F80
1F80
1F80
1F80
1F80
1F00
3F00
3E00
7C00
FC00
F800
ENDCHAR
STARTCHAR 201A
ENCODING 8218
SWIDTH 160 0
DWIDTH 8 0
BBX 9 12 -2 -5
BITMAP
0F00
0F80
0F80
0F80
0F80
0F80
0F80
1F00
3F00
3E00
7C00
FC00
ENDCHAR
STARTCHAR 201C
ENCODING 8220
SWIDTH 360 0
DWIDTH 18 0
BBX 17 12 1 23
BITMAP
1F9F80
1F1F00
3F3F00
7E7E00
7C7C00
F8F800
F8F800
F8F800
F8F800
F8F800
F8F800
787800
ENDCHAR
STARTCHAR 201D
ENCODING 8221
SWIDTH 360 0
DWIDTH 18 0
BBX 17 12 1 23
BITMAP
1F1F00
1F9F80
1F9F80
1F9F80
1F9F80
1F9F80
1F1F00
3F3F00
3E3E00
7C7C00
FCFC00
F8F800
ENDCHAR
STARTCHAR 201E
ENCODING 8222
SWIDTH 360 0
DWIDTH 18 0
BBX 17 12 1 -5
BITMAP
1F1F00
1F9F80
1F9F80
1F9F80
1F9F80
1F9F80
1F1F00
3F3F00
3E3E00
7C7C00
FCFC00
F8F800
ENDCHAR
STARTCHAR 2020
ENCODING 8224
SWIDTH 520 0
DWIDTH 26 0
BBX 24 35 1 0
BITMAP
003E00
003E00
003E00
003E00
003E00
003E00
003E00
003E00
003E00
003E00
FFFFFF
FFFFFF
FFFFFF
FFFFFF
FFFFFF
003E00
003E00
003E00
003E00
003E00
003E00
003E00
003E00
003E00
003E00
003E00
003E00
003E00
003E00
003E00
003E00
003E00
003E00
003E00
003E00
ENDCHAR
STARTCHAR 2021
ENCODING 8225
SWIDTH 520 0
DWIDTH 26 0
BBX 24 35 1 0
BITMAP
003E00
003E00
003E00
003E00
003E00
003E00
003E00
003E00
003E00
003E00
FFFFFF
FFFFFF
FFFFFF
FFFFFF
FFFFFF
003E00
003E00
003E00
003E00
003E00
FFFFFF
FFFFFF
FFFFFF
FFFFFF
FFFFFF
003E00
003E00
003E00
003E00
003E00
003E00
003E00
003E00
003E00
003E00
ENDCHAR
STARTCHAR 2022
ENCODING 8226
SWIDTH 220 0
DWIDTH 11 0
BBX 10 10 1 14
BITMAP
FFC0
FFC0
FFC0
FFC0
FFC0
FFC0
FFC0
FFC0
FFC0
FFC0
ENDCHAR
STARTCHAR 2026
ENCODING 8230
SWIDTH 500 0
DWIDTH 25 0
BBX 23 6 1 0
BITMAP
FC7E7E
FC7E7E
FC7E7E
FC7E7E
FC7E7E
FC7E7E
ENDCHAR
STARTCHAR 2030
ENCODING 8240
SWIDTH 880 0
DWIDTH 44 0
BBX 40 35 2 0
BITMAP
7FE01F0000
FFF03F0000
FFF03E0000
FFF07E0000
F0F07C0000
F0F0FC0000
F0F0F80000
F0F1F80000
FFF1F00000
FFF3F00000
FFF3E00000
7FE3E00000
0007E00000
0007C00000
000FC00000
000F800000
001F800000
001F000000
003F000000
003E000000
007E000000
007C000000
00FC000000
00F8FFC7FE
01F9FFC7FF
01F1FFEFFF
03F1FFEFFF
03F1E3EF8F
07E1E3EF8F
07E1E3EF8F
07C1E3EF8F
0FC1FFEFFF
0F81FFEFFF
1F81FFE7FF
1F00FFC7FE
ENDCHAR
STARTCHAR 2039
ENCODING 8249
SWIDTH 260 0
DWIDTH 13 0
BBX 11 20 1 7
BITMAP
0060
00E0
01E0
03E0
0FE0
1F80
3F00
7E00
F800
F800
F800
FC00
7E00
1F80
0FC0
07E0
03E0
00E0
0060
0020
ENDCHAR
STARTCHAR 203A
ENCODING 8250
SWIDTH 260 0
DWIDTH 13 0
BBX 11 21 1 6
BITMAP
8000
C000
E000
F000
FC00
7E00
3F00
1F80
07E0
03E0
03E0
03E0
07E0
0FC0
1F80
7E00
FC00
F800
F000
C000
8000
ENDCHAR
STARTCHAR 2044
ENCODING 8260
SWIDTH 340 0
DWIDTH 17 0
BBX 20 35 -1 0
BITMAP
0000F0
0001F0
0001E0
0003E0
0003C0
0007C0
000780
000F80
000F00
000F00
001E00
001E00
003E00
003C00
007C00
007800
00F800
00F000
01F000
01E000
03E000
03C000
07C000
078000
0F8000
0F0000
0F0000
1F0000
1E0000
3E0000
3C0000
7C0000
780000
F80000
F00000
ENDCHAR
STARTCHAR 20AB
ENCODING 8363
SWIDTH 460 0
DWIDTH 23 0
BBX 23 35 -1 0
BITMAP
1FFFF0
1FFFF8
1FFFFC
1FFFFE
1FFFFE
1FFFFE
1FFFFE
1F80FE
1F80FE
1F80FE
1F80FE
1F80FE
FFF0FE
FFF0FE
FFF0FE
FFF0FE
1F80FE
1F80FE
1F80FE
1F80FE
1F80FE
1F80FE
1FFFFE
1FFFFE
1FFFFE
1FFFFC
1FFFF8
1FFFF0
000000
000000
1FFFFE
1FFFFE
1FFFFE
1FFFFE
1FFFFE
ENDCHAR
STARTCHAR 20AC
ENCODING 8364
SWIDTH 600 0
DWIDTH 30 0
BBX 26 35 2 0
BITMAP
1FFFFE00
1FFFFF00
1FFFFF00
1FFFFF80
1FFFFFC0
1FFFFFC0
1FFFFFC0
1FFFFFC0
1FE03FC0
1FE01FC0
1FE00000
FFFF0000
FFFF0000
FFFF0000
FFFF0000
FFFF0000
FFFF0000
1FE00000
FFFF0000
FFFF0000
FFFF0000
FFFF0000
FFFF0000
FFFF0000
1FE00000
1FE01FC0
1FE03FC0
1FFFFFC0
1FFFFFC0
1FFFFFC0
1FFFFFC0
1FFFFF80
1FFFFF00
1FFFFF00
1FFFFE00
ENDCHAR
STARTCHAR 2122
ENCODING 8482
SWIDTH 600 0
DWIDTH 30 0
BBX 30 18 0 17
BITMAP
3FF0F9F0
7FF1F9F8
FFFBF9F8
F7FBF9FC
E7BBF9FC
0783F9FC
0783DDBC
0783DFBC
0783DFBC
0783DFBC
0783CF3C
0783CF3C
0783CF3C
0783C03C
0783C03C
0783C03C
0783C03C
0783C03C
ENDCHAR
STARTCHAR 215B
ENCODING 8539
SWIDTH 640 0
DWIDTH 32 0
BBX 29 35 2 0
BITMAP
0F003E00
3F003C00
7F007C00
FF007800
FF00F800
FF00F000
EF01F000
0F01E000
0F01E000
0F03C000
0F03C000
0F07C000
0F078000
0F0F8000
0F0F0000
0F1F0000
0F1E0000
0F3E3FE0
003C3FF0
007C7FF0
0078FFF8
00F8F8F8
00F0F078
01F0F078
01E0F878
01E07FF0
03E07FF0
03C0F8F8
07C0F078
0780F078
0F80F8F8
0F00FFF8
1F00FFF8
1E007FF0
3E003FE0
ENDCHAR
STARTCHAR 215C
ENCODING 8540
SWIDTH 700 0
DWIDTH 35 0
BBX 31 35 2 0
BITMAP
FFE00780
FFE00F80
7FE00F00
3FE01F00
01E01E00
01E03E00
01E03C00
3FE07C00
3FE07800
3FE07800
3FE0F000
01E0F000
01E1F000
01E1E000
3FE3E000
7FE3C000
FFE7C000
FFE787F8
000F8FFC
000F1FFE
001F1FFE
001E1F3E
003E1E1E
003C1E1E
007C1E1E
00781FFE
00780FFC
00F81E1E
00F01E1E
01F01E1E
01E01E1E
03E01FFE
03C01FFE
07C00FFC
07800FFC
ENDCHAR
STARTCHAR 215D
ENCODING 8541
SWIDTH 700 0
DWIDTH 35 0
BBX 31 35 2 0
BITMAP
FFE00780
FFE00F80
FFC00F00
FF801F00
F0001E00
F0003E00
F0003C00
FFE03C00
FFE07800
FFE07800
7FE0F800
01E0F000
01E1F000
01E1E000
7FE3E000
7FE3C000
FFE7C000
FFC787F8
000F8FFC
000F1FFE
001F1FFE
001E1F3E
003E1E1E
003C1E1E
003C1E1E
007C1FFE
00780FFC
00F81E1E
00F01E1E
01F01E1E
01E01E1E
03E01FFE
03C01FFE
07C00FFC
07800FFC
ENDCHAR
STARTCHAR 215E
ENCODING 8542
SWIDTH 640 0
DWIDTH 32 0
BBX 29 35 2 0
BITMAP
FFC03C00
FFE07800
7FE07800
3FE0F800
03C0F000
03C1F000
07C1E000
0783E000
0783C000
0F87C000
0F878000
0F0F8000
1F0F0000
1F1F0000
1E1E0000
3E1E0000
3E3C0000
3C3C3FE0
007C7FE0
00787FF0
00F8FFF8
00F0F8F8
01F0F078
01E0F078
03E0F0F8
03C0FFF0
07C07FE0
0780F8F8
0F80F078
0F00F078
1F00F0F8
1E00FFF8
3E00FFF0
3E007FF0
3C003FE0
ENDCHAR
STARTCHAR 2190
ENCODING 8592
SWIDTH 420 0
DWIDTH 21 0
BBX 19 16 1 6
BITMAP
078000
0F8000
3F8000
7F0000
FC0000
FFFFE0
FFFFE0
FFFFE0
FFFFE0
FFFFE0
FC0000
7E0000
3F0000
1F8000
0F8000
078000
ENDCHAR
STARTCHAR 2191
ENCODING 8593
SWIDTH 360 0
DWIDTH 18 0
BBX 16 19 1 6
BITMAP
07F0
0FF8
1FFC
3FFE
7FFE
FFFF
FBEF
F3EF
E3E7
03E0
03E0
03E0
03E0
03E0
03E0
03E0
03E0
03E0
03E0
ENDCHAR
STARTCHAR 2192
ENCODING 8594
SWIDTH 420 0
DWIDTH 21 0
BBX 19 16 1 6
BITMAP
003C00
003F00
003F80
001FC0
0007E0
FFFFE0
FFFFE0
FFFFE0
FFFFE0
FFFFE0
0007E0
000FC0
001F80
003F00
003E00
003C00
ENDCHAR
STARTCHAR 2193
ENCODING 8595
SWIDTH 360 0
DWIDTH 18 0
BBX 16 19 1 6
BITMAP
03E0
03E0
03E0
03E0
03E0
03E0
03E0
03E0
03E0
03E0
E3E7
F3EF
FBEF
FFFF
7FFE
3FFE
1FFC
0FF8
07F0
ENDCHAR
STARTCHAR 2194
ENCODING 8596
SWIDTH 520 0
DWIDTH 26 0
BBX 24 16 1 6
BITMAP
0781F0
0F81F8
3F80FC
7F007E
FC003F
FFFFFF
FFFFFF
FFFFFF
FFFFFF
FFFFFF
FC001F
7E007F
3F00FE
1F81FC
0F81F0
0781E0
ENDCHAR
STARTCHAR 2195
ENCODING 8597
SWIDTH 360 0
DWIDTH 18 0
BBX 16 24 1 6
BITMAP
0FF0
1FF8
3FFC
3FFE
7FFF
FBFF
FBEF
F3E7
E3E3
03E0
03E0
03E0
03E0
03E0
03E0
E3E7
F3EF
FBEF
FFFF
7FFE
3FFE
1FFC
0FF8
07F0
ENDCHAR
STARTCHAR 2196
ENCODING 8598
SWIDTH 400 0
DWIDTH 20 0
BBX 18 17 1 6
BITMAP
07F000
1FF800
3FFC00
7FF800
7FE000
FF8000
FFC000
FFE000
FFF800
7BFC00
79FE00
78FF00
787F80
381FC0
100F80
000700
000200
ENDCHAR
STARTCHAR 2197
ENCODING 8599
SWIDTH 400 0
DWIDTH 20 0
BBX 18 17 1 6
BITMAP
03F800
07FE00
0FFF00
07FF80
00FFC0
007FC0
00FFC0
01FFC0
03FBC0
0FF7C0
1FE780
3FC780
7F8780
FE0700
7C0200
380000
100000
ENDCHAR
STARTCHAR 2198
ENCODING 8600
SWIDTH 400 0
DWIDTH 20 0
BBX 18 17 1 6
BITMAP
100000
380000
7C0200
FE0300
7F0780
3FC780
1FE780
0FF7C0
07FFC0
01FFC0
00FFC0
007FC0
003FC0
07FF80
0FFF00
07FE00
03FC00
ENDCHAR
STARTCHAR 2199
ENCODING 8601
SWIDTH 400 0
DWIDTH 20 0
BBX 18 16 1 7
BITMAP
000700
100F80
381FC0
783FC0
787F00
79FE00
7BFC00
FFF800
FFF000
FFC000
FF8000
FF0000
7FF800
3FFC00
1FF800
0FF000
ENDCHAR
STARTCHAR 220F
ENCODING 8719
SWIDTH 480 0
DWIDTH 24 0
BBX 23 35 1 0
BITMAP
FFFFFE
FFFFFE
FFFFFE
FFFFFE
FFFFFE
0FC7C0
0FC7C0
0FC7C0
0FC7C0
0FC7C0
0FC7C0
0FC7C0
0FC7C0
0FC7C0
0FC7C0
0FC7C0
0FC7C0
0FC7C0
0FC7C0
0FC7C0
0FC7C0
0FC7C0
0FC7C0
0FC7C0
0FC7C0
0FC7C0
0FC7C0
0FC7C0
0FC7C0
0FC7C0
0FC7C0
0FC7C0
0FC7C0
0FC7C0
0FC7C0
ENDCHAR
STARTCHAR 2211
ENCODING 8721
SWIDTH 400 0
DWIDTH 20 0
BBX 19 35 1 0
BITMAP
FFFFE0
FFFFE0
FFFFE0
FFFFC0
FFFFC0
FC0000
7C0000
7E0000
3E0000
3F0000
1F0000
1F8000
0FC000
0FC000
07E000
07E000
03F000
03F000
03F000
03E000
07E000
07C000
0FC000
1F8000
1F8000
3F0000
3F0000
7E0000
7E0000
FC0000
FFFFC0
FFFFC0
FFFFE0
FFFFE0
FFFFE0
ENDCHAR
STARTCHAR 2212
ENCODING 8722
SWIDTH 420 0
DWIDTH 21 0
BBX 20 5 1 15
BITMAP
FFFFF0
FFFFF0
FFFFF0
FFFFF0
FFFFF0
ENDCHAR
STARTCHAR 221A
ENCODING 8730
SWIDTH 520 0
DWIDTH 26 0
BBX 39 45 1 0
BITMAP
00000FFFFC
00000FFFFE
00000FFFFE
00000FFFFE
00000FFFFE
00000F8000
00001F0000
00001F0000
00001F0000
00001F0000
00001F0000
00001F0000
00001F0000
00003F0000
00003E0000
00003E0000
00003E0000
00003E0000
00003E0000
00003E0000
00007E0000
00007C0000
00007C0000
00007C0000
00007C0000
00007C0000
7F807C0000
FF807C0000
FFC0F80000
FFC0F80000
FFC0F80000
07E0F80000
03E0F80000
03E0F80000
03F0F80000
01F1F00000
01F1F00000
01F9F00000
00F9F00000
00F9F00000
00FFF00000
007FF00000
007FE00000
007FE00000
003FE00000
ENDCHAR
STARTCHAR 2260
ENCODING 8800
SWIDTH 420 0
DWIDTH 21 0
BBX 20 21 1 6
BITMAP
003E00
003E00
007C00
007C00
FFFFF0
FFFFF0
FFFFF0
FFFFF0
FFFFF0
01F800
01F000
FFFFF0
FFFFF0
FFFFF0
FFFFF0
FFFFF0
FFFFF0
07C000
07C000
07C000
0FC000
ENDCHAR
STARTCHAR 2264
ENCODING 8804
SWIDTH 380 0
DWIDTH 19 0
BBX 18 35 1 0
BITMAP
000040
0001C0
0007C0
001FC0
007FC0
01FFC0
03FFC0
0FFF00
3FFC00
FFF000
FFC000
FF0000
FC0000
F80000
F80000
FE0000
FF8000
FFE000
7FF800
1FFE00
07FF80
01FFC0
007FC0
003FC0
000FC0
0003C0
0000C0
000000
000000
000000
FFFFC0
FFFFC0
FFFFC0
FFFFC0
FFFFC0
ENDCHAR
STARTCHAR 2265
ENCODING 8805
SWIDTH 380 0
DWIDTH 19 0
BBX 18 35 1 0
BITMAP
800000
E00000
F80000
FE0000
FF0000
FFC000
FFF000
3FFC00
0FFF00
03FFC0
00FFC0
003FC0
000FC0
0007C0
0007C0
001FC0
007FC0
01FFC0
0FFF80
3FFE00
FFF800
FFE000
FF8000
FE0000
F80000
F00000
C00000
000000
000000
000000
FFFFC0
FFFFC0
FFFFC0
FFFFC0
FFFFC0
ENDCHAR
ENDFONT
